SplineFontDB: 3.0
FontName: RoutedGothic-Italic
FullName: Routed Gothic Italic
FamilyName: Routed Gothic
Weight: Regular

StartChar: exclam
Encoding: 33 33 0
Width: 288
VWidth: 32
Flags: HW
HStem: 48 48<121.906 166.094>
VStem: 120 48<49.9059 94.0941>
LayerCount: 2
Fore
SplineSet
92.9755520753 60.7606959671 m 0
 77.8036989473 26.0821745315 43.8643122063 0 3 0 c 0
 -36.7397625316 0 -54.3027527006 32.8908636915 -54.3027527006 60.9407718063 c 0
 -54.3027527006 68.103594907 -53.1574928828 74.950745571 -50.9438005233 80.8539251962 c 0
 -50.6566495202 81.6196612047 -50.2183734887 82.6842836596 -49.9755520753 83.2393040329 c 0
 -35.3232239694 116.730339704 -2.63691187826 144 39 144 c 0
 75.6877619128 144 97.58312114 113.629209973 97.58312114 83.6257509961 c 0
 97.58312114 76.6506027486 96.3997627116 69.6953073059 93.9438005233 63.1460748038 c 0
 93.6566495202 62.3803387953 93.2183734887 61.3157163404 92.9755520753 60.7606959671 c 0
295.398560466 732.333880642 m 0
 313.69538116 724.740700054 324.908749082 706.503027789 324.908749082 687.60574123 c 0
 324.908749082 681.562927377 323.762139395 675.452665445 321.333880642 669.601439534 c 2
 155.333880642 269.601439534 l 2
 147.740700054 251.30461884 129.503027789 240.091250918 110.60574123 240.091250918 c 0
 104.562927377 240.091250918 98.4526654449 241.237860605 92.6014395336 243.666119358 c 0
 74.3035338807 251.259750204 63.0913204448 269.497763351 63.0913204448 288.394339845 c 0
 63.0913204448 294.437254818 64.2379366193 300.547517722 66.6661193582 306.398560466 c 2
 232.666119358 706.398560466 l 2
 240.259750204 724.696466119 258.497763351 735.908679555 277.394339845 735.908679555 c 0
 283.437254818 735.908679555 289.547517722 734.762063381 295.398560466 732.333880642 c 0
EndSplineSet
EndChar

StartChar: quotedbl
Encoding: 34 34 1
Width: 384
VWidth: 32
Flags: HW
LayerCount: 2
Fore
SplineSet
423.521988893 732.282456204 m 0
 441.754677044 724.656283756 452.907650289 706.455226274 452.907650289 687.605380726 c 0
 452.907650289 681.51918965 451.74495414 675.365362496 449.282456204 669.478011107 c 2
 362.282456204 461.478011107 l 2
 354.656283756 443.245322956 336.455226274 432.092349711 317.605380726 432.092349711 c 0
 311.51918965 432.092349711 305.365362496 433.25504586 299.478011107 435.717543796 c 0
 281.244244604 443.344167285 270.092419458 461.545557485 270.092419458 480.394696442 c 0
 270.092419458 486.480991336 271.255122748 492.634821329 273.717543796 498.521988893 c 2
 360.717543796 706.521988893 l 2
 368.344167285 724.755755396 386.545557485 735.907580542 405.394696442 735.907580542 c 0
 411.480991336 735.907580542 417.634821329 734.744877252 423.521988893 732.282456204 c 0
263.521988893 732.282456204 m 0
 281.754677044 724.656283756 292.907650289 706.455226274 292.907650289 687.605380726 c 0
 292.907650289 681.51918965 291.74495414 675.365362496 289.282456204 669.478011107 c 2
 202.282456204 461.478011107 l 2
 194.656283756 443.245322956 176.455226274 432.092349711 157.605380726 432.092349711 c 0
 151.51918965 432.092349711 145.365362496 433.25504586 139.478011107 435.717543796 c 0
 121.244244604 443.344167285 110.092419458 461.545557485 110.092419458 480.394696442 c 0
 110.092419458 486.480991336 111.255122748 492.634821329 113.717543796 498.521988893 c 2
 200.717543796 706.521988893 l 2
 208.344167285 724.755755396 226.545557485 735.907580542 245.394696442 735.907580542 c 0
 251.480991336 735.907580542 257.634821329 734.744877252 263.521988893 732.282456204 c 0
EndSplineSet
EndChar

StartChar: numbersign
Encoding: 35 35 2
Width: 672
VWidth: 32
Flags: HW
LayerCount: 2
Fore
SplineSet
175.722865765 8.5036970349 m 0
 162.375209788 17.7219219441 155.166939188 32.9243095996 155.166939188 48.2751124528 c 0
 155.166939188 57.6655328658 157.864299517 67.1114907701 163.503697035 75.2771342353 c 2
 277.265426204 240 l 1
 217.934573796 240 l 1
 66.4963029651 20.7228657647 l 2
 57.2776490631 7.37458862158 42.0753713732 0.166993084577 26.7251092242 0.166993084577 c 0
 17.3343783267 0.166993084577 7.88826355817 2.8644691838 -0.277134235272 8.5036970349 c 0
 -13.6247902124 17.7219219441 -20.8330608121 32.9243095996 -20.8330608121 48.2751124528 c 0
 -20.8330608121 57.6655328658 -18.1357004832 67.1114907701 -12.4963029651 75.2771342353 c 2
 101.265426204 240 l 1
 79 240 l 2
 52.8536339246 240 31 261.855528292 31 288 c 0
 31 314.144471708 52.8536339246 336 79 336 c 2
 167.565426204 336 l 1
 211.765426204 400 l 1
 145 400 l 2
 118.853633925 400 97 421.855528292 97 448 c 0
 97 474.144471708 118.853633925 496 145 496 c 2
 278.065426204 496 l 1
 429.503697035 715.277134235 l 2
 438.721921944 728.624790212 453.9243096 735.833060812 469.275112453 735.833060812 c 0
 478.665532866 735.833060812 488.11149077 733.135700483 496.277134235 727.496302965 c 0
 509.625411378 718.277649063 516.833006915 703.075371373 516.833006915 687.725109224 c 0
 516.833006915 678.334378327 514.135530816 668.888263558 508.496302965 660.722865765 c 2
 394.734573796 496 l 1
 454.065426204 496 l 1
 605.503697035 715.277134235 l 2
 614.721921944 728.624790212 629.9243096 735.833060812 645.275112453 735.833060812 c 0
 654.665532866 735.833060812 664.11149077 733.135700483 672.277134235 727.496302965 c 0
 685.625411378 718.277649063 692.833006915 703.075371373 692.833006915 687.725109224 c 0
 692.833006915 678.334378327 690.135530816 668.888263558 684.496302965 660.722865765 c 2
 570.734573796 496 l 1
 593 496 l 2
 619.144471708 496 641 474.146366075 641 448 c 0
 641 421.853633925 619.144471708 400 593 400 c 2
 504.434573796 400 l 1
 460.234573796 336 l 1
 527 336 l 2
 553.144471708 336 575 314.146366075 575 288 c 0
 575 261.853633925 553.144471708 240 527 240 c 2
 393.934573796 240 l 1
 242.496302965 20.7228657647 l 2
 233.277649063 7.37458862158 218.075371373 0.166993084577 202.725109224 0.166993084577 c 0
 193.334378327 0.166993084577 183.888263558 2.8644691838 175.722865765 8.5036970349 c 0
328.434573796 400 m 1
 284.234573796 336 l 1
 343.565426204 336 l 1
 387.765426204 400 l 1
 328.434573796 400 l 1
EndSplineSet
EndChar

StartChar: dollar
Encoding: 36 36 3
Width: 504
VWidth: 32
Flags: HW
LayerCount: 2
Fore
SplineSet
471.077637054 491.140727685 m 0
 465.67828085 489.085227432 460.169684332 488.140239116 454.759600047 488.140239116 c 0
 435.125667827 488.140239116 416.789203682 500.586329536 409.680364966 517.566811638 c 0
 408.885008672 519.065255514 403.169760157 532.506955236 379.311804258 539.623493624 c 1
 327.262820152 414.392855172 l 2
 330.350649308 413.301121331 333.371684833 412.143776196 336.329763936 410.917951792 c 0
 390.080886539 388.643551564 406.543997524 347.714712697 406.543997524 308.808691159 c 0
 406.543997524 285.416380313 400.592523903 262.75532518 393.215965387 245.319823233 c 0
 362.694488134 172.972617893 290.112896585 111.486670356 195.976853166 98.5168443787 c 1
 167.324066879 29.5778097035 l 2
 159.724549288 11.2932561016 141.493874636 0.0914610993227 122.605668165 0.0914610993227 c 0
 116.554555413 0.0914610993227 110.435957882 1.24114028437 104.577809703 3.67593312117 c 0
 86.2921724073 11.2759011224 75.0915306694 29.5069150905 75.0915306694 48.3944121631 c 0
 75.0915306694 54.4456265521 76.2412164654 60.5642254105 78.6759331212 66.4221902965 c 2
 95.672225005 107.315524152 l 1
 28.177683191 133.563122312 4.96768072117 196.643213015 3.64012971091 200.280595722 c 0
 1.91965703536 205.520907871 1.10651489072 210.792509541 1.10651489072 215.938602253 c 0
 1.10651489072 235.980412355 13.4399809867 254.118544852 32.543063775 261.090678084 c 0
 38.0674079486 263.106921432 43.7371615671 264.098560832 49.3267388658 264.098560832 c 0
 68.0408639627 264.098560832 85.8562631924 252.982909962 94.3068368992 231.988748109 c 0
 95.2342354641 229.757641176 105.527797029 206.384536321 132.714339399 196.439408409 c 1
 194.71333582 345.609926113 l 1
 141.622962356 366.808858107 114.505665994 408.497549525 114.505665994 453.798764516 c 0
 114.505665994 457.723637271 114.709219155 461.675627058 115.117069619 465.643757766 c 0
 116.83360578 482.344584287 121.149462194 496.774086935 126.586207716 510.20604646 c 0
 155.327876178 579.447338664 234.244181637 628.818347363 316.375172706 638.330135163 c 1
 344.675933121 706.422190297 l 2
 352.275901122 724.707827593 370.506915091 735.908469331 389.394412163 735.908469331 c 0
 395.445626552 735.908469331 401.56422541 734.758783535 407.422190297 732.324066879 c 0
 425.706743898 724.724549288 436.908538901 706.493874636 436.908538901 687.605668165 c 0
 436.908538901 681.554555413 435.758859716 675.435957882 433.324066879 669.577809703 c 2
 416.032446911 627.973912036 l 1
 474.089180409 606.141165172 495.691386123 561.39903475 499.138576239 552.344009185 c 0
 500.876167695 547.288078313 501.718558722 542.000369449 501.718558722 536.721468617 c 0
 501.718558722 517.602410696 490.668624237 498.598890766 471.077637054 491.140727685 c 0
268.345678672 522.770450269 m 1
 242.070857659 508.369311918 221.964558738 489.218249146 215.410474608 473.78557028 c 0
 212.707965626 467.024412461 211.136377467 460.911059711 210.613978277 455.828441333 c 0
 210.398784876 453.734743714 209.408066631 451.117878891 209.408066631 448.299486525 c 0
 209.408066631 443.075374107 212.811931267 437.158862531 230.867876736 432.598295235 c 1
 268.345678672 522.770450269 l 1
244.588220619 215.476525468 m 1
 273.134247826 232.676936818 294.097783451 257.349803642 304.774520274 282.657624259 c 0
 311.193600502 297.829995708 314.388770994 305.876791896 314.388770994 310.786005757 c 0
 314.388770994 316.899696803 309.433389334 318.147319524 299.5781333 322.231325711 c 0
 296.99130898 323.303302582 293.90286995 324.392107456 290.296673513 325.451750477 c 2
 244.588220619 215.476525468 l 1
EndSplineSet
EndChar

StartChar: percent
Encoding: 37 37 5
Width: 864
VWidth: 32
Flags: HW
HStem: 48 240<549.902 698.098> 448 240<165.902 314.098>
VStem: 112 256<500.907 635.093> 496 256<100.907 235.093>
LayerCount: 2
Fore
SplineSet
713.426253898 149.825623405 m 0
 678.420351881 64.2556406985 583.462359475 0 491 0 c 0
 470.073644438 0 450.050022564 3.49119899658 431.790880382 10.8870870701 c 0
 381.611063323 31.2124838938 356.454170711 76.6564584069 356.454170711 126.131571677 c 0
 356.454170711 145.950812653 360.491158519 166.416940281 368.573746102 186.174376595 c 0
 403.579648119 271.744359302 498.537640525 336 591 336 c 0
 611.926355562 336 631.949977436 332.508801003 650.209119618 325.11291293 c 0
 700.388936677 304.787516106 725.545829289 259.343541593 725.545829289 209.868428323 c 0
 725.545829289 190.049187347 721.508841481 169.583059719 713.426253898 149.825623405 c 0
624.573746102 186.174376595 m 0
 629.127117649 197.304840375 631.007384253 205.928774903 631.007384253 212.683500694 c 0
 631.007384253 226.512079331 623.126788091 232.506407672 614.168496027 236.134974927 c 0
 608.880765189 238.276776828 601.27543816 240 591 240 c 0
 541.462359475 240 476.420351881 196.255640698 457.426253898 149.825623405 c 0
 452.872882351 138.695159625 450.992615747 130.071225097 450.992615747 123.316499306 c 0
 450.992615747 109.487920669 458.873211909 103.493592328 467.831503973 99.8650250728 c 0
 473.119234811 97.7232231716 480.72456184 96 491 96 c 0
 540.537640525 96 605.579648119 139.744359302 624.573746102 186.174376595 c 0
495.426253898 549.825623405 m 0
 460.420351881 464.255640698 365.462359475 400 273 400 c 0
 252.073644438 400 232.050022564 403.491198997 213.790880382 410.88708707 c 0
 163.611063323 431.212483894 138.454170711 476.656458407 138.454170711 526.131571677 c 0
 138.454170711 545.950812653 142.491158519 566.416940281 150.573746102 586.174376595 c 0
 185.579648119 671.744359302 280.537640525 736 373 736 c 0
 393.926355562 736 413.949977436 732.508801003 432.209119618 725.11291293 c 0
 482.388936677 704.787516106 507.545829289 659.343541593 507.545829289 609.868428323 c 0
 507.545829289 590.049187347 503.508841481 569.583059719 495.426253898 549.825623405 c 0
406.573746102 586.174376595 m 0
 411.127117649 597.304840375 413.007384253 605.928774903 413.007384253 612.683500694 c 0
 413.007384253 626.512079331 405.126788091 632.506407672 396.168496027 636.134974927 c 0
 390.880765189 638.276776828 383.27543816 640 373 640 c 0
 323.462359475 640 258.420351881 596.255640698 239.426253898 549.825623405 c 0
 234.872882351 538.695159625 232.992615747 530.071225097 232.992615747 523.316499306 c 0
 232.992615747 509.487920669 240.873211909 503.493592328 249.831503973 499.865025073 c 0
 255.119234811 497.723223172 262.72456184 496 273 496 c 0
 322.537640525 496 387.579648119 539.744359302 406.573746102 586.174376595 c 0
89.6575377156 13.47058922 m 0
 80.0340290878 22.7632897387 75.1929122151 35.3920193291 75.1929122151 48.0295591392 c 0
 75.1929122151 60.089741304 79.6017917173 72.1579470712 88.47058922 81.3424622844 c 2
 706.47058922 721.342462284 l 2
 715.763289739 730.965970912 728.392019329 735.807087785 741.029559139 735.807087785 c 0
 753.089741304 735.807087785 765.157947071 731.398208283 774.342462284 722.52941078 c 0
 783.966327885 713.236365559 788.807081891 700.60785944 788.807081891 687.970777149 c 0
 788.807081891 675.91015826 784.397894318 663.841727788 775.52941078 654.657537716 c 2
 157.52941078 14.6575377156 l 2
 148.236365559 5.03367211478 135.60785944 0.19291810905 122.970777149 0.19291810905 c 0
 110.91015826 0.19291810905 98.8417277877 4.60210568163 89.6575377156 13.47058922 c 0
EndSplineSet
EndChar

StartChar: ampersand
Encoding: 38 38 6
Width: 784
VWidth: 32
Flags: HW
LayerCount: 2
Fore
SplineSet
404.27518146 455.180030235 m 1
 493.88737768 463.445189519 562.17184344 518.812424257 583.692307692 570.461538462 c 0
 588.114745405 581.075388971 590.618172194 590.194118462 590.618172194 598.192415042 c 0
 590.618172194 614.031226464 580.801030401 625.476280975 556.628404502 635.437258124 c 0
 539.469861472 642.507894793 512.928206658 648 476 648 c 0
 341.673814974 648 271.27781091 577.977854791 252.311935493 533.547064317 c 0
 245.093282311 515.688283426 242.006055524 503.497828196 242.006055524 494.813026201 c 0
 242.006055524 480.076452547 250.894826756 475.433387331 263.570922928 470.318075554 c 0
 275.070062659 465.677712773 293.763439515 462 319 462 c 0
 348.661147662 462 377.399073944 459.733182394 404.27518146 455.180030235 c 1
712.738112732 393.850714407 m 0
 716.221927307 387.036673581 717.812684821 379.833681332 717.812684821 372.747823191 c 0
 717.812684821 355.067937259 707.909429097 338.117269336 692.798597853 329.756948677 c 0
 690.473419855 328.540380258 660.391416654 312.637441773 619.447299437 278.032266264 c 1
 624.873157722 256.496075797 627.56472216 233.510265889 627.56472216 209.281454214 c 0
 627.56472216 154.902409305 614.006470083 94.2619756513 587.373052853 29.6961156983 c 0
 579.804911582 11.349106556 561.538912857 0.090479018135 542.60596908 0.090479018135 c 0
 536.596280986 0.090479018135 530.519394693 1.22484456184 524.696115698 3.6269471473 c 0
 506.350196581 11.1946387832 495.090409667 29.4602903319 495.090409667 48.3939468691 c 0
 495.090409667 54.4035359028 496.224769213 60.4804226431 498.626947147 66.3038843017 c 0
 517.661903491 112.449233015 527.817357391 152.632773916 531.023706856 186.433162642 c 1
 525.28281403 179.191914737 519.542715446 171.645094548 513.832446925 163.785800281 c 0
 410.570383927 21.6616705621 282.154309721 -8 180 -8 c 0
 142.911035532 -8 109.993104509 -2.3901965322 81.4622697439 9.41914349831 c 0
 13.8398109394 37.4090924882 -14.4322931936 94.52710603 -14.4322931936 155.423000084 c 0
 -14.4322931936 184.49421482 -7.98899148268 214.426420442 3.69230769231 242.461538462 c 0
 38.2540240415 325.4096577 105.645568805 383.988737388 174.852012585 419.709266762 c 1
 157.313110592 441.862562623 148.811985978 469.468558212 148.811985978 499.256325669 c 0
 148.811985978 522.181150021 153.847137062 546.398221162 163.672816077 570.416547645 c 0
 199.271543692 654.798716807 306.669389079 744 476 744 c 0
 521.980884251 744 560.778990686 737.55822091 593.20406621 724.196601129 c 0
 655.687888579 698.448470602 684.655104424 647.186839807 684.655104424 593.934371153 c 0
 684.655104424 573.658206227 680.455591764 553.093420233 672.307692308 533.538461538 c 0
 649.161620962 477.987890309 602.268820457 429.818880483 542.353566285 397.819600164 c 1
 554.649247193 388.086509392 565.592418258 377.441028036 575.197202945 365.951449982 c 1
 616.217612075 398.293371996 645.521242565 413.394475255 648.848598235 415.09565235 c 0
 655.349254943 418.155224747 662.441822844 419.653031103 669.531816381 419.653031103 c 0
 686.82438124 419.653031103 704.101631801 410.742926203 712.738112732 393.850714407 c 0
504.561250886 301.860293581 m 1
 489.827968497 320.411388725 469.219014844 334.520309705 442.791173266 345.358811071 c 0
 411.316940554 358.266922134 370.116331172 365.83901554 320.588270336 365.997463437 c 0
 256.022021948 361.21919674 132.480763921 301.953832715 92.3076923077 205.538461538 c 0
 83.660508048 184.785219315 79.6391592834 167.350317343 79.6391592834 152.785187517 c 0
 79.6391592834 125.434332048 93.8194406889 108.203010844 118.177272216 98.1209393847 c 0
 132.286992603 92.2807146888 152.609400435 88 180 88 c 0
 263.845690279 88 353.429616073 106.338329438 436.167553075 220.214199719 c 0
 458.981171735 251.613588843 482.221343257 278.709824415 504.561250886 301.860293581 c 1
EndSplineSet
EndChar

StartChar: quotesingle
Encoding: 39 39 7
Width: 224
VWidth: 0
Flags: HW
LayerCount: 2
Fore
SplineSet
263.521988893 732.282456204 m 0
 281.754677044 724.656283756 292.907650289 706.455226274 292.907650289 687.605380726 c 0
 292.907650289 681.51918965 291.74495414 675.365362496 289.282456204 669.478011107 c 2
 202.282456204 461.478011107 l 2
 194.656283756 443.245322956 176.455226274 432.092349711 157.605380726 432.092349711 c 0
 151.51918965 432.092349711 145.365362496 433.25504586 139.478011107 435.717543796 c 0
 121.244244604 443.344167285 110.092419458 461.545557485 110.092419458 480.394696442 c 0
 110.092419458 486.480991336 111.255122748 492.634821329 113.717543796 498.521988893 c 2
 200.717543796 706.521988893 l 2
 208.344167285 724.755755396 226.545557485 735.907580542 245.394696442 735.907580542 c 0
 251.480991336 735.907580542 257.634821329 734.744877252 263.521988893 732.282456204 c 0
EndSplineSet
EndChar

StartChar: parenleft
Encoding: 40 40 8
Width: 344
VWidth: 32
Flags: HW
LayerCount: 2
Fore
SplineSet
433.94522342 799.81101874 m 0
 441.963609029 790.750552475 445.671389766 779.598342992 445.671389766 768.534842573 c 0
 445.671389766 755.137712925 440.234475922 741.870662041 430.43105351 732.605412198 c 0
 427.726498431 730.203466686 246.450226973 567.38254324 156.352807956 349.647113949 c 0
 112.023302792 242.517476468 100.858180985 150.810648057 100.858180985 85.592535819 c 0
 100.858180985 21.0747008842 111.784819809 -17.5202073195 112.339903052 -19.4789273409 c 0
 113.415141857 -23.5959053128 113.927696008 -27.723286008 113.927696008 -31.7806669947 c 0
 113.927696008 -52.79578733 100.177403463 -71.9330251651 79.6424472846 -78.0204697074 c 0
 75.1441099718 -79.353970431 70.5811330682 -79.9953861368 66.07616856 -79.9953861368 c 0
 46.0418365697 -79.9953861368 27.1548330845 -67.3099157807 20.2027637859 -46.3954912246 c 0
 18.9992416667 -42.3356145708 4.89516404281 6.30908125539 4.89516404281 85.6427866016 c 0
 4.89516404281 161.734453021 17.870045613 266.05811551 67.6471920437 386.352886051 c 0
 168.729172201 630.634338097 362.397170568 800.589524712 366.777175709 804.46576785 c 0
 375.619657756 811.789586024 386.919994905 815.627386684 398.263415463 815.627386684 c 0
 411.330658878 815.627386684 424.455075158 810.534520001 433.94522342 799.81101874 c 0
EndSplineSet
EndChar

StartChar: parenright
Encoding: 41 41 9
Width: 344
VWidth: 32
Flags: HW
LayerCount: 2
Fore
SplineSet
232.357552715 814.020469707 m 0
 236.783667985 815.33256071 241.22024352 815.948210936 245.571906352 815.948210936 c 0
 266.436150846 815.948210936 285.348450633 801.795850127 291.797236214 782.395491225 c 0
 293.136019735 777.879333296 307.113944043 729.309592205 307.113944043 650.350602996 c 0
 307.113944043 574.260837843 294.133426408 469.950275206 244.352807956 349.647113949 c 0
 143.076563543 104.89618995 -51.2024413821 -65.3021780917 -54.7771757088 -68.4657678496 c 0
 -64.1210376271 -76.2048557401 -75.2120949072 -79.9131577428 -86.1300886049 -79.9131577428 c 0
 -99.5049008105 -79.9131577428 -112.619998995 -74.3481624305 -121.94522342 -63.8110187402 c 0
 -129.902475543 -54.8196309543 -133.92479959 -43.5235480744 -133.92479959 -32.1558387103 c 0
 -133.92479959 -19.3270870245 -128.80208771 -6.40711398584 -118.43105351 3.39458780224 c 0
 -116.475738131 5.13112518477 65.3691382535 168.180922724 155.647192044 386.352886051 c 0
 199.977292885 493.483963083 211.145053293 585.182433669 211.145053293 650.400126959 c 0
 211.145053293 714.601461356 200.322659572 753.140945259 199.660096948 755.478927341 c 0
 198.672697804 759.259576354 198.193361024 763.158537946 198.193361024 767.069965776 c 0
 198.193361024 787.197643079 210.886160911 807.655425355 232.357552715 814.020469707 c 0
EndSplineSet
EndChar

StartChar: asterisk
Encoding: 42 42 10
Width: 512
VWidth: 32
Flags: HW
LayerCount: 2
Fore
SplineSet
492.735634899 719.145379453 m 0
 502.109879934 709.883625358 506.806859413 697.438162387 506.806859413 684.989677425 c 0
 506.806859413 672.74078863 502.25929302 660.488973975 493.145379453 651.264365101 c 2
 450.400186733 608 l 1
 480 608 l 2
 506.144471708 608 528 586.146366075 528 560 c 0
 528 533.853633925 506.144471708 512 480 512 c 2
 392.013221037 512 l 1
 403.367231966 442.768226042 l 2
 403.782638402 440.23525997 403.983487204 437.708999209 403.983487204 435.208537697 c 0
 403.983487204 412.240260326 387.036763665 391.448808204 363.768226042 387.632768034 c 0
 361.235149462 387.217343474 358.708810888 387.016488107 356.208298169 387.016488107 c 0
 333.238816184 387.016488107 312.448543698 403.964849176 308.632768034 427.231773958 c 2
 303.389382152 459.203639088 l 1
 246.145379453 401.264365101 l 2
 236.883625358 391.890120066 224.438162387 387.193140587 211.989677425 387.193140587 c 0
 199.74078863 387.193140587 187.488973975 391.74070698 178.264365101 400.854620547 c 0
 168.889777694 410.116712906 164.193142623 422.561951226 164.193142623 435.009985268 c 0
 164.193142623 447.259317809 168.741034508 459.511357531 177.854620547 468.735634899 c 2
 220.599813267 512 l 1
 192 512 l 2
 165.853633925 512 144 533.855528292 144 560 c 0
 144 586.144471708 165.853633925 608 192 608 c 2
 278.986778963 608 l 1
 267.632768034 677.231773958 l 2
 267.217343474 679.764850538 267.016488107 682.291189112 267.016488107 684.791701831 c 0
 267.016488107 707.761183816 283.964849176 728.551456302 307.231773958 732.367231966 c 0
 309.76474003 732.782638402 312.291000791 732.983487204 314.791462303 732.983487204 c 0
 337.759739674 732.983487204 358.551191796 716.036763665 362.367231966 692.768226042 c 2
 367.610617848 660.796360912 l 1
 424.854620547 718.735634899 l 2
 434.116712906 728.110222306 446.561951226 732.806857377 459.009985268 732.806857377 c 0
 471.259317809 732.806857377 483.511357531 728.258965492 492.735634899 719.145379453 c 0
EndSplineSet
EndChar

StartChar: plus
Encoding: 43 43 11
Width: 640
VWidth: 192
Flags: HW
LayerCount: 2
Fore
SplineSet
584 368 m 0
 584 341.855528292 562.146366075 320 536 320 c 2
 352.137157393 320 l 1
 275.380292346 133.713675839 l 2
 267.817345673 115.358659196 249.546514782 104.090253792 230.606114345 104.090253792 c 0
 224.602683177 104.090253792 218.53198278 105.222349702 212.713675839 107.619707654 c 0
 194.357568232 115.183103844 183.090323109 133.454283082 183.090323109 152.393970256 c 0
 183.090323109 158.397500103 184.222424927 164.46819979 186.619707654 170.286324161 c 2
 248.307287051 320 l 1
 104 320 l 2
 77.8555282921 320 56 341.853633925 56 368 c 0
 56 394.146366075 77.8555282921 416 104 416 c 2
 287.862842607 416 l 1
 364.619707654 602.286324161 l 2
 372.183103844 620.642431768 390.454283082 631.909676891 409.393970256 631.909676891 c 0
 415.397500103 631.909676891 421.46819979 630.777575073 427.286324161 628.380292346 c 0
 445.641340804 620.817345673 456.909746208 602.546514782 456.909746208 583.606114345 c 0
 456.909746208 577.602683177 455.777650298 571.53198278 453.380292346 565.713675839 c 2
 391.692712949 416 l 1
 536 416 l 2
 562.146366075 416 584 394.144471708 584 368 c 0
EndSplineSet
EndChar

StartChar: comma
Encoding: 44 44 12
Width: 296
VWidth: 32
Flags: HW
LayerCount: 2
Fore
SplineSet
-37.6978231351 16.5802895677 m 1
 -49.8324390174 29.2475042492 -54.7923312179 44.7374503202 -54.7923312179 59.2282765171 c 0
 -54.7923312179 66.9069210159 -53.3996392684 74.3050218759 -50.9438005233 80.8539251962 c 0
 -50.6566495202 81.6196612047 -50.2183734887 82.6842836596 -49.9755520753 83.2393040329 c 0
 -35.3232239694 116.730339704 -2.63691187826 144 39 144 c 0
 46.9378246038 144 54.4016925276 142.556163699 61.8640451875 139.598113996 c 0
 87.8550994863 129.295353733 100.535339601 103.570060107 100.535339601 77.1230090159 c 0
 100.535339601 66.3296744861 98.423386622 55.4161278928 94.2423425479 45.381622115 c 0
 71.0518400061 -9.18426621875 4.14829365409 -85.2069225503 2.81187634734 -86.8039893486 c 0
 -6.56964083606 -98.0152401576 -20.3305464057 -103.813369712 -34.1456955207 -103.813369712 c 0
 -45.0380061417 -103.813369712 -55.9640359383 -100.209104028 -64.8039893486 -92.8118763473 c 0
 -76.0156993842 -83.4299748855 -81.8133406763 -69.6692668217 -81.8133406763 -55.8546126985 c 0
 -81.8133406763 -44.9619142078 -78.2088635439 -34.0356766746 -70.8118763473 -25.1960106514 c 2
 -70.8118763473 -25.1960106514 -55.5925874622 -7.03813274806 -37.6978231351 16.5802895677 c 1
EndSplineSet
EndChar

StartChar: hyphen
Encoding: 45 45 13
Width: 416
VWidth: 32
Flags: HW
LayerCount: 2
Fore
SplineSet
-11 264 m 0
 -11 290.144471708 10.8536339246 312 37 312 c 2
 293 312 l 2
 319.144471708 312 341 290.146366075 341 264 c 0
 341 237.853633925 319.144471708 216 293 216 c 2
 37 216 l 2
 10.8536339246 216 -11 237.855528292 -11 264 c 0
EndSplineSet
EndChar

StartChar: period
Encoding: 46 46 14
Width: 288
VWidth: 32
Flags: HW
HStem: 48 48<121.906 166.094>
VStem: 120 48<49.9059 94.0941>
AnchorPoint: "above" -152 0 mark 0
LayerCount: 2
Fore
SplineSet
92.9755520753 60.7606959671 m 0
 77.8036989473 26.0821745315 43.8643122063 0 3 0 c 0
 -36.7397625316 0 -54.3027527006 32.8908636915 -54.3027527006 60.9407718063 c 0
 -54.3027527006 68.103594907 -53.1574928828 74.950745571 -50.9438005233 80.8539251962 c 0
 -50.6566495202 81.6196612047 -50.2183734887 82.6842836596 -49.9755520753 83.2393040329 c 0
 -35.3232239694 116.730339704 -2.63691187826 144 39 144 c 0
 75.6877619128 144 97.58312114 113.629209973 97.58312114 83.6257509961 c 0
 97.58312114 76.6506027486 96.3997627116 69.6953073059 93.9438005233 63.1460748038 c 0
 93.6566495202 62.3803387953 93.2183734887 61.3157163404 92.9755520753 60.7606959671 c 0
EndSplineSet
EndChar

StartChar: slash
Encoding: 47 47 15
Width: 576
VWidth: 32
Flags: HW
LayerCount: 2
Fore
SplineSet
-54.3424622844 13.47058922 m 0
 -63.9659709122 22.7632897387 -68.8070877849 35.3920193291 -68.8070877849 48.0295591392 c 0
 -68.8070877849 60.089741304 -64.3982082827 72.1579470712 -55.52941078 81.3424622844 c 2
 562.47058922 721.342462284 l 2
 571.763289739 730.965970912 584.392019329 735.807087785 597.029559139 735.807087785 c 0
 609.089741304 735.807087785 621.157947071 731.398208283 630.342462284 722.52941078 c 0
 639.966327885 713.236365559 644.807081891 700.60785944 644.807081891 687.970777149 c 0
 644.807081891 675.91015826 640.397894318 663.841727788 631.52941078 654.657537716 c 2
 13.52941078 14.6575377156 l 2
 4.2363655592 5.03367211478 -8.3921405597 0.19291810905 -21.0292228507 0.19291810905 c 0
 -33.08984174 0.19291810905 -45.1582722123 4.60210568163 -54.3424622844 13.47058922 c 0
EndSplineSet
EndChar

StartChar: zero
Encoding: 48 48 16
Width: 672
VWidth: 32
Flags: HW
HStem: 40 656<250.729 421.271>
VStem: 88 496<233.016 502.984>
LayerCount: 2
Fore
SplineSet
628.343848595 349.625477101 m 0
 548.658020236 157.317011328 367.300219029 -8 200 -8 c 0
 172.387440004 -8 146.154248075 -3.1767142054 122.399372495 6.60696655944 c 0
 41.4672313855 39.9396703905 5.36025551802 117.261570678 5.36025551802 209.045135362 c 0
 5.36025551802 265.009519761 18.784341835 326.350555804 43.6561514046 386.374522899 c 0
 123.341979764 578.682988672 304.699780971 744 472 744 c 0
 499.612559996 744 525.845751925 739.176714205 549.600627505 729.393033441 c 0
 630.532768614 696.060329609 666.639744482 618.738429322 666.639744482 526.954864638 c 0
 666.639744482 470.990480239 653.215658165 409.649444196 628.343848595 349.625477101 c 0
539.656151405 386.374522899 m 0
 561.985907416 440.263667406 571.07359701 486.295419402 571.07359701 523.94818812 c 0
 571.07359701 587.726787478 544.999480238 627.464668218 513.041421042 640.626911396 c 0
 501.984354801 645.180873631 488.564023497 648 472 648 c 0
 365.300219029 648 202.658020236 519.317011328 132.343848595 349.625477101 c 0
 110.014092584 295.736332594 100.92640299 249.704580598 100.92640299 212.05181188 c 0
 100.92640299 148.273212522 127.000519762 108.535331782 158.958578958 95.3730886037 c 0
 170.015645199 90.8191263686 183.435976503 88 200 88 c 0
 306.699780971 88 469.341979764 216.682988672 539.656151405 386.374522899 c 0
EndSplineSet
EndChar

StartChar: one
Encoding: 49 49 17
Width: 352
VWidth: 0
Flags: HW
LayerCount: 2
Fore
SplineSet
327.422190297 732.324066879 m 0
 345.706743898 724.724549288 356.908538901 706.493874636 356.908538901 687.605668165 c 0
 356.908538901 681.554555413 355.758859716 675.435957882 353.324066879 669.577809703 c 2
 87.3240668788 29.5778097035 l 2
 79.7245492881 11.2932561016 61.4938746356 0.0914610993227 42.6056681655 0.0914610993227 c 0
 36.5545554127 0.0914610993227 30.4359578823 1.24114028437 24.5778097035 3.67593312117 c 0
 6.29217240726 11.2759011224 -4.90846933057 29.5069150905 -4.90846933057 48.3944121631 c 0
 -4.90846933057 54.4456265521 -3.75878353458 60.5642254105 -1.32406687883 66.4221902965 c 2
 264.675933121 706.422190297 l 2
 272.275901122 724.707827593 290.506915091 735.908469331 309.394412163 735.908469331 c 0
 315.445626552 735.908469331 321.56422541 734.758783535 327.422190297 732.324066879 c 0
EndSplineSet
EndChar

StartChar: two
Encoding: 50 50 18
Width: 672
VWidth: 32
Flags: HW
LayerCount: 2
Fore
SplineSet
179.744878572 491.6068638 m 0
 161.373703464 499.161365714 150.089976939 517.441391985 150.089976939 536.393774291 c 0
 150.089976939 542.386266993 151.218057104 548.44597787 153.6068638 554.255121428 c 0
 206.691405548 683.347075223 335.539965827 744 458 744 c 0
 491.000601962 744 521.40512767 738.777300144 548.310937872 727.723067633 c 0
 610.214819297 702.289903068 642.502680809 648.331015332 642.502680809 586.852023891 c 0
 642.502680809 561.837266341 637.157302968 535.577527122 626.286569294 509.487766305 c 0
 594.088752014 432.708355869 538.525417045 392.086965634 426.709863871 338.697557361 c 0
 226.835173423 243.105314104 142.828647075 205.505437942 79.5198365384 96 c 1
 411 96 l 2
 437.144471708 96 459 74.1463660754 459 48 c 0
 459 21.8536339246 437.144471708 0 411 0 c 2
 3 0 l 2
 -1.13080906591 0 -7.06969027759 0.806878007977 -11.787288862 2.33451973195 c 0
 -32.0314125344 8.88992444345 -44.907248211 28.2265211213 -44.907248211 48.4288110769 c 0
 -44.907248211 54.4215337992 -43.7742672995 60.4904313022 -41.3645484715 66.3244874122 c 0
 41.2056153494 266.231199821 158.791500295 316.977008109 385.290136129 425.302442639 c 0
 495.474582955 477.913034366 517.911247986 499.291644131 537.713430706 546.512233695 c 0
 545.044195511 564.106069226 548.368665972 578.604661402 548.368665972 590.628425892 c 0
 548.368665972 615.463131475 534.185944052 629.739826904 511.828471835 638.925378069 c 0
 498.803513404 644.276672748 480.831229869 648 458 648 c 0
 364.460034173 648 277.308594452 602.652924777 242.3931362 517.744878572 c 0
 234.838184979 499.372610831 216.55780828 488.090046197 197.606140131 488.090046197 c 0
 191.613549427 488.090046197 185.553839725 489.218132111 179.744878572 491.6068638 c 0
EndSplineSet
EndChar

StartChar: three
Encoding: 51 51 19
Width: 672
VWidth: 32
Flags: HW
LayerCount: 2
Fore
SplineSet
41.309081066 201.661446072 m 0
 43.1667395514 201.883256041 45.0158583867 201.991347952 46.8492833092 201.991347952 c 0
 70.6372729236 201.991347952 91.7833377425 183.795076195 94.6614460721 159.690918934 c 0
 99.3805355018 120.168544961 127.977821063 88 198 88 c 0
 299.333421459 88 421.085044863 168.531230919 458.716165897 258.518694261 c 0
 468.718346213 282.436951539 472.998773008 303.642740979 472.998773008 321.469871835 c 0
 472.998773008 364.415517101 452.829247461 396 375 396 c 0
 352.967021764 396 309.901330768 386.334309504 281.603828889 376.607043233 c 0
 276.590156939 374.883593501 271.45114261 374.06729894 266.372910449 374.06729894 c 0
 259.046560049 374.06729894 251.846720113 375.766313776 245.332284136 378.891507836 c 0
 234.295519274 384.179763736 225.217677791 393.563333145 220.832854339 405.754109663 c 0
 220.793610926 405.863214975 220.754800524 405.972386386 220.716421032 406.081621521 c 0
 220.679615411 406.186269443 220.643155966 406.291119723 220.607043233 406.396171111 c 0
 218.883535687 411.410011247 218.067237022 416.549062007 218.067237022 421.627249977 c 0
 218.067237022 428.953725135 219.766347837 436.153515502 222.891563824 442.667837986 c 0
 228.17961211 453.704285695 237.562828009 462.782140533 249.754109663 467.167145661 c 0
 382.246945735 514.822671679 469.629639579 587.571499992 519.032464563 640 c 1
 249 640 l 2
 222.855528292 640 201 661.853633925 201 688 c 0
 201 714.146366075 222.855528292 736 249 736 c 2
 617 736 l 2
 623.663301054 736 630.849453537 734.477561827 637.136632342 731.571963898 c 0
 654.616607905 723.493653678 664.85531925 705.744265642 664.85531925 687.578552392 c 0
 664.85531925 679.71584998 662.937162617 671.775151721 658.857791484 664.506909695 c 0
 656.640646529 660.556608137 601.473745916 563.241909014 470.700777024 473.033390808 c 1
 532.244014425 445.519728627 568.998446257 390.210560408 568.998446257 321.308432373 c 0
 568.998446257 288.284342329 561.272707274 254.932958974 547.283834103 221.481305739 c 0
 492.914955137 91.4687690809 340.666578541 -8 198 -8 c 0
 92.0221789372 -8 10.6194644982 53.8314550392 -0.661446072133 148.309081066 c 0
 -0.883266492343 150.166827085 -0.991362685861 152.016015774 -0.991362685861 153.849495235 c 0
 -0.991362685861 177.638841624 17.2066231456 198.783540649 41.309081066 201.661446072 c 0
EndSplineSet
EndChar

StartChar: four
Encoding: 52 52 20
Width: 672
VWidth: 32
Flags: HW
LayerCount: 2
Fore
SplineSet
407.672948789 318 m 1
 527.564670254 607.549817878 l 1
 157.039055851 318 l 1
 407.672948789 318 l 1
599 270 m 0
 599 243.855528292 577.146366075 222 551 222 c 2
 471.827051211 222 l 1
 391.348585788 27.636913697 l 2
 383.764937112 9.3216867054 365.516770501 -1.90906445472 346.605854507 -1.90906445472 c 0
 340.575494487 -1.90906445472 334.477742105 -0.767053800996 328.636913697 1.65141421163 c 0
 310.320599848 9.23551291473 299.091005007 27.4840227632 299.091005007 46.3942276852 c 0
 299.091005007 52.4246880523 300.233021963 58.5224408735 302.651414212 64.363086303 c 2
 367.922948789 222 l 1
 71 222 l 2
 44.6451520917 222 23.0033362114 244.134417773 23.0033362114 270.089835167 c 0
 23.0033362114 276.135379756 26.5729018344 287.895508544 26.7346696722 288.56288046 c 2
 52.7346696722 350.56288046 l 2
 55.8977082672 358.105510956 61.1684226414 364.917102398 67.4442256318 369.821372285 c 2
 520.444225632 723.821372285 l 2
 528.913052515 730.439395942 540.435939372 734 550 734 c 2
 612 734 l 2
 638.354847908 734 659.996663789 711.865582227 659.996663789 685.910164833 c 0
 659.996663789 678.898999408 658.72324507 673.371939886 656.348585788 667.636913697 c 2
 511.577051211 318 l 1
 551 318 l 2
 577.146366075 318 599 296.144471708 599 270 c 0
EndSplineSet
EndChar

StartChar: five
Encoding: 53 53 21
Width: 672
VWidth: 0
Flags: HW
LayerCount: 2
Fore
SplineSet
33.7917191647 203.596819737 m 0
 35.8178972988 203.861103841 37.8353625988 203.989631647 39.8347148775 203.989631647 c 0
 63.4169957383 203.989631647 84.4793733363 186.10870324 87.5968197369 162.208280835 c 0
 93.3383574082 118.189825355 121.893034703 88 186 88 c 0
 285.713572003 88 412.868950074 175.911958905 456.608040731 282.257983248 c 0
 467.240757523 308.110078977 471.657509179 330.949772132 471.657509179 350.77404493 c 0
 471.657509179 405.112002392 441.60941127 440 372 440 c 0
 314.047696991 440 243.257032471 413.20998666 178.725711981 362.312043738 c 0
 170.057923878 355.475478473 159.634326046 352.200339436 149.265337149 352.200339436 c 0
 133.718821053 352.200339436 118.295065004 359.562801742 109.096024442 373.32280497 c 0
 103.738621886 381.336453347 101.279342124 390.842499355 101.279342124 400.08480526 c 0
 101.279342124 408.105984428 103.131694866 415.928512059 106.549531863 422.404413739 c 2
 258.549531863 710.404413739 l 2
 266.99494721 726.406253342 284.802373074 736 301 736 c 2
 621 736 l 2
 647.144471708 736 669 714.146366075 669 688 c 0
 669 661.853633925 647.144471708 640 621 640 c 2
 329.941686499 640 l 1
 265.554206395 518.002669276 l 1
 299.945427437 529.260867659 336.703968734 536 372 536 c 0
 487.34331757 536 567.657225832 457.819159379 567.657225832 350.64556028 c 0
 567.657225832 316.44513363 560.073567655 281.438476358 545.391959269 245.742016752 c 0
 487.131049926 104.088041095 332.286427997 -8 186 -8 c 0
 82.1069652974 -8 4.66164259179 55.8101746445 -7.59681973694 149.791719165 c 0
 -7.86111605693 151.817990951 -7.98964873445 153.83552891 -7.98964873445 155.834935934 c 0
 -7.98964873445 179.418533661 9.89297524724 200.479592269 33.7917191647 203.596819737 c 0
EndSplineSet
EndChar

StartChar: six
Encoding: 54 54 22
Width: 672
VWidth: 0
Flags: HW
LayerCount: 2
Fore
SplineSet
123.652955483 181.960734461 m 0
 127.750638832 105.002982771 176.401264029 88 222 88 c 0
 331.115851187 88 427.934281615 168.078570666 457.648525634 240.356461521 c 0
 464.150250179 255.960600429 466.68661116 269.379674441 466.68661116 281.582823932 c 0
 466.68661116 319.840471769 440.56421426 356 365 356 c 0
 263.556512221 356 174.490449022 304.981195778 125.384548727 185.724009348 c 0
 124.991482614 184.769420217 124.270525268 183.219674809 123.652955483 181.960734461 c 0
187.93479931 404.783607091 m 1
 241.788943007 436.599180701 302.919917978 452 365 452 c 0
 477.999940862 452 562.686595535 381.975455957 562.686595535 281.57613742 c 0
 562.686595535 255.476658987 556.994166842 229.186000421 546.351474366 203.643538479 c 0
 502.065718385 95.9214293343 374.884148813 -8 222 -8 c 0
 144.153270746 -8 27.4228028544 40.3201960261 27.4228028544 191.477164468 c 0
 27.4228028544 225.036902308 32.8699407304 261.418084207 44.4097575904 302.785836037 c 0
 51.6496112821 328.739148333 61.304133161 356.505128558 73.643130061 386.343066516 c 0
 186.361748326 659.632546649 391.569881965 744 494 744 c 0
 632.48302896 744 667.256790659 648.649791754 670.710871433 635.077542505 c 0
 671.451645837 631.709267411 671.811300011 628.287742022 671.811300011 624.875511414 c 0
 671.811300011 603.840901368 658.144171212 583.159499969 635.838437324 577.482783814 c 0
 632.031899936 576.51403594 628.234653806 576.058449257 624.505140019 576.058449257 c 0
 602.839680507 576.058449257 583.459964399 591.432998657 577.822844499 610.895129304 c 0
 577.122244086 612.766168983 568.510219835 648 494 648 c 0
 441.365151481 648 289.130482068 599.066634303 187.93479931 404.783607091 c 1
EndSplineSet
EndChar

StartChar: seven
Encoding: 55 55 23
Width: 672
VWidth: 0
Flags: HW
LayerCount: 2
Fore
SplineSet
189 688 m 0
 189 714.144471708 210.853633925 736 237 736 c 2
 685 736 l 2
 711.354847908 736 732.996663789 713.865582227 732.996663789 687.910164833 c 0
 732.996663789 680.907348394 731.717737394 675.362360091 729.352807956 669.647113949 c 2
 705.352807956 611.647113949 l 2
 700.573901796 600.098090729 689.472975732 590.186946461 680.73027478 586.242506492 c 0
 677.125712182 584.600986699 362.198830194 439.589269779 205.158718478 61.1793620297 c 1
 190.975552075 28.7606959671 l 2
 183.163015269 10.9034689802 165.177846979 0.0987750513938 146.604333092 0.0987750513938 c 0
 140.264619737 0.0987750513938 133.856360148 1.35759484544 127.760695967 4.02444792469 c 0
 109.902429075 11.8374396898 99.0988458654 29.8228941605 99.0988458654 48.3957208416 c 0
 99.0988458654 54.7355539456 100.357676954 61.1438275277 103.024447925 67.2393040329 c 2
 116.827391138 98.7888885212 l 1
 245.963660512 408.661164126 470.618378357 574.536386853 579.074312009 640 c 1
 237 640 l 2
 210.853633925 640 189 661.855528292 189 688 c 0
EndSplineSet
EndChar

StartChar: eight
Encoding: 56 56 24
Width: 672
VWidth: 0
Flags: HW
LayerCount: 2
Fore
SplineSet
262.381740081 350.809106574 m 1
 228.698084701 337.332984911 135.572849502 290.417122416 102.391959269 209.742016752 c 0
 95.9332928083 194.105245322 92.8015567039 179.455259606 92.8015567039 166.109446797 c 0
 92.8015567039 135.044551082 109.76972258 111.045838939 141.244317426 98.1161114584 c 0
 155.890209139 92.0995959325 175.247839838 88 200 88 c 0
 323.309210449 88 418.973721269 163.293382555 448.706721743 234.496094217 c 0
 455.172306239 249.899398455 458.32367155 263.494965417 458.32367155 275.359915518 c 0
 458.32367155 297.347479158 447.501332468 313.391802127 426.89306448 323.983682608 c 0
 424.793321251 325.062872248 422.528201169 326.11448726 420.084158589 327.12611129 c 0
 405.090626725 333.332147655 383.133690987 338 353 338 c 0
 319.942560052 338 289.51326209 342.24522122 262.381740081 350.809106574 c 1
514.824499328 376.398021213 m 1
 542.240883349 346.704861021 553.385550975 310.608193878 553.385550975 274.549937005 c 0
 553.385550975 247.97370069 547.331520288 221.418329686 537.276197727 197.46300241 c 0
 491.041106726 86.7421265911 360.685356785 -8 200 -8 c 0
 164.719283449 -8 132.731235785 -2.17136924832 104.765681891 9.3168482323 c 0
 32.8875831356 38.8442888008 -2.0609147141 102.003554862 -2.0609147141 168.73060551 c 0
 -2.0609147141 194.632718007 3.20525711524 221.07243778 13.6217212144 246.291245599 c 0
 49.0549121853 332.44253345 120.285348774 384.459776884 171.721551855 413.475855743 c 1
 154.68893443 437.760176272 146.713042116 465.72265238 146.713042116 494.6162976 c 0
 146.713042116 517.050827015 151.521530137 540.04673757 160.632562239 562.318149373 c 0
 205.598273633 670.23585672 338.167884104 744 472 744 c 0
 574.134714748 744 670.417186775 689.191492094 670.417186775 588.492263199 c 0
 670.409886013 567.493445438 665.872081671 546.336589355 657.384548727 525.724009348 c 0
 628.879665585 456.712187003 563.162145079 408.044657399 514.824499328 376.398021213 c 1
414.321932363 428.441806701 m 1
 449.699232994 447.196424616 546.832697014 509.53887122 568.62543815 562.300244497 c 0
 572.905589385 572.694897495 574.414713208 581.376389429 574.417180803 588.475097496 c 0
 574.417180803 613.295431745 549.675272303 648 472 648 c 0
 369.588094616 648 274.728756106 585.703630122 249.363667887 525.674443576 c 0
 244.07398709 512.557806455 242.469186509 503.222614645 242.469186509 494.453604939 c 0
 242.469186509 477.93771064 248.268980536 466.081292498 264.757579708 454.809873976 c 0
 281.073713924 443.656350534 310.25780526 434 353 434 c 0
 374.749606185 434 395.434194488 432.095335282 414.321932363 428.441806701 c 1
EndSplineSet
EndChar

StartChar: nine
Encoding: 57 57 25
Width: 672
VWidth: 0
Flags: HW
LayerCount: 2
Fore
SplineSet
548.347044517 554.039265539 m 0
 544.249361168 630.997017229 495.598735971 648 450 648 c 0
 340.884148813 648 244.065718385 567.921429334 214.351474366 495.643538479 c 0
 207.849749821 480.039399571 205.31338884 466.620325559 205.31338884 454.417176068 c 0
 205.31338884 416.159528231 231.43578574 380 307 380 c 0
 408.443487779 380 497.509550978 431.018804222 546.615451273 550.275990652 c 0
 547.008517386 551.230579783 547.729474732 552.780325191 548.347044517 554.039265539 c 0
484.06520069 331.216392909 m 1
 430.211056993 299.400819299 369.080082022 284 307 284 c 0
 194.000059138 284 109.313404465 354.024544043 109.313404465 454.42386258 c 0
 109.313404465 480.523341013 115.005833158 506.813999579 125.648525634 532.356461521 c 0
 169.934281615 640.078570666 297.115851187 744 450 744 c 0
 527.846729254 744 644.577197146 695.679803974 644.577197146 544.522835532 c 0
 644.577197146 510.963097692 639.13005927 474.581915793 627.59024241 433.214163963 c 0
 620.350388718 407.260851667 610.695866839 379.494871442 598.356869939 349.656933484 c 0
 485.638251674 76.3674533507 280.430118035 -8 178 -8 c 0
 39.5169710402 -8 4.74320934105 87.3502082458 1.28912856711 100.922457495 c 0
 0.548354163273 104.290732589 0.188699988663 107.712257978 0.188699988663 111.124488586 c 0
 0.188699988663 132.159098632 13.8558287881 152.840500031 36.1615626758 158.517216186 c 0
 39.968100064 159.48596406 43.765346194 159.941550743 47.4948599809 159.941550743 c 0
 69.1603194931 159.941550743 88.5400356011 144.567001343 94.177155501 125.104870696 c 0
 94.8777559143 123.233831017 103.489780165 88 178 88 c 0
 230.634848519 88 382.869517932 136.933365697 484.06520069 331.216392909 c 1
EndSplineSet
EndChar

StartChar: colon
Encoding: 58 58 26
Width: 288
VWidth: 0
Flags: HW
HStem: 48 48<121.906 166.094> 432 48<121.906 166.094>
VStem: 120 48<49.9059 94.0941 433.906 478.094>
LayerCount: 2
Fore
SplineSet
251.975552075 444.760695967 m 0
 237.323223969 411.269660296 204.636911878 384 163 384 c 0
 126.312238087 384 104.41687886 414.370790027 104.41687886 444.374249004 c 0
 104.41687886 451.349397251 105.600237288 458.304692694 108.056199477 464.853925196 c 0
 108.34335048 465.619661205 108.781626511 466.68428366 109.024447925 467.239304033 c 0
 123.676776031 500.730339704 156.363088122 528 198 528 c 0
 234.687761913 528 256.58312114 497.629209973 256.58312114 467.625750996 c 0
 256.58312114 460.650602749 255.399762712 453.695307306 252.943800523 447.146074804 c 0
 252.65664952 446.380338795 252.218373489 445.31571634 251.975552075 444.760695967 c 0
92.9755520753 60.7606959671 m 0
 77.8036989473 26.0821745315 43.8643122063 0 3 0 c 0
 -36.7397625316 0 -54.3027527006 32.8908636915 -54.3027527006 60.9407718063 c 0
 -54.3027527006 68.103594907 -53.1574928828 74.950745571 -50.9438005233 80.8539251962 c 0
 -50.6566495202 81.6196612047 -50.2183734887 82.6842836596 -49.9755520753 83.2393040329 c 0
 -35.3232239694 116.730339704 -2.63691187826 144 39 144 c 0
 75.6877619128 144 97.58312114 113.629209973 97.58312114 83.6257509961 c 0
 97.58312114 76.6506027486 96.3997627116 69.6953073059 93.9438005233 63.1460748038 c 0
 93.6566495202 62.3803387953 93.2183734887 61.3157163404 92.9755520753 60.7606959671 c 0
EndSplineSet
EndChar

StartChar: semicolon
Encoding: 59 59 27
Width: 296
VWidth: 0
Flags: HW
HStem: 432 48<121.906 166.094>
VStem: 120 48<433.906 478.094>
LayerCount: 2
Fore
SplineSet
-37.6978231351 16.5802895677 m 1
 -49.8324390174 29.2475042492 -54.7923312179 44.7374503202 -54.7923312179 59.2282765171 c 0
 -54.7923312179 66.9069210159 -53.3996392684 74.3050218759 -50.9438005233 80.8539251962 c 0
 -50.6566495202 81.6196612047 -50.2183734887 82.6842836596 -49.9755520753 83.2393040329 c 0
 -35.3232239694 116.730339704 -2.63691187826 144 39 144 c 0
 46.9378246038 144 54.4016925276 142.556163699 61.8640451875 139.598113996 c 0
 87.8550994863 129.295353733 100.535339601 103.570060107 100.535339601 77.1230090159 c 0
 100.535339601 66.3296744861 98.423386622 55.4161278928 94.2423425479 45.381622115 c 0
 71.0518400061 -9.18426621875 4.14829365409 -85.2069225503 2.81187634734 -86.8039893486 c 0
 -6.56964083606 -98.0152401576 -20.3305464057 -103.813369712 -34.1456955207 -103.813369712 c 0
 -45.0380061417 -103.813369712 -55.9640359383 -100.209104028 -64.8039893486 -92.8118763473 c 0
 -76.0156993842 -83.4299748855 -81.8133406763 -69.6692668217 -81.8133406763 -55.8546126985 c 0
 -81.8133406763 -44.9619142078 -78.2088635439 -34.0356766746 -70.8118763473 -25.1960106514 c 2
 -70.8118763473 -25.1960106514 -55.5925874622 -7.03813274806 -37.6978231351 16.5802895677 c 1
251.975552075 444.760695967 m 0
 237.323223969 411.269660296 204.636911878 384 163 384 c 0
 126.312238087 384 104.41687886 414.370790027 104.41687886 444.374249004 c 0
 104.41687886 451.349397251 105.600237288 458.304692694 108.056199477 464.853925196 c 0
 108.34335048 465.619661205 108.781626511 466.68428366 109.024447925 467.239304033 c 0
 123.676776031 500.730339704 156.363088122 528 198 528 c 0
 234.687761913 528 256.58312114 497.629209973 256.58312114 467.625750996 c 0
 256.58312114 460.650602749 255.399762712 453.695307306 252.943800523 447.146074804 c 0
 252.65664952 446.380338795 252.218373489 445.31571634 251.975552075 444.760695967 c 0
EndSplineSet
EndChar

StartChar: less
Encoding: 60 60 28
Width: 640
VWidth: 0
Flags: HW
LayerCount: 2
Fore
SplineSet
487.617198701 126.421822393 m 0
 478.583829902 112.07716731 462.73677189 104.154256119 446.678580223 104.154256119 c 0
 437.970814124 104.154256119 429.200964309 106.483983066 421.421822393 111.382801299 c 2
 78.4218223926 327.382801299 l 2
 74.1544672165 330.070115346 70.4554286426 333.360432684 67.3642291276 337.079926651 c 0
 64.215314754 340.754038935 61.5921269168 344.955827584 59.6596441645 349.617050172 c 0
 56.6399727537 356.900609455 55.6057869172 364.584730641 56.29651368 372.040054101 c 0
 56.8694320493 379.505388246 59.1811878871 386.90617179 63.3828012994 393.578177607 c 0
 66.0716541953 397.847976419 69.3640982155 401.548733009 73.0860321033 404.640922917 c 0
 76.7587586086 407.787597678 80.9584960601 410.408978055 85.6170501719 412.340355835 c 2
 606.617050172 628.340355835 l 2
 612.463701403 630.764303371 618.568457802 631.908887888 624.605790547 631.908887888 c 0
 643.509075124 631.908887888 661.75136709 620.687871756 669.340355835 602.382949828 c 0
 671.764227467 596.53648168 672.90881839 590.431724544 672.90881839 584.394291019 c 0
 672.90881839 565.49171695 661.68895755 547.249083067 643.382949828 539.659644165 c 2
 208.073386329 359.185813616 l 1
 472.578177607 192.617198701 l 2
 486.923538277 183.583385567 494.845681711 167.736375156 494.845681711 151.678747508 c 0
 494.845681711 142.970711014 492.515872189 134.20073446 487.617198701 126.421822393 c 0
EndSplineSet
EndChar

StartChar: equal
Encoding: 61 61 29
Width: 640
VWidth: 0
Flags: HW
AnchorPoint: "middle" -152 0 basechar 0
LayerCount: 2
Fore
SplineSet
6 248 m 0
 6 274.144471708 27.8536339246 296 54 296 c 2
 486 296 l 2
 512.144471708 296 534 274.146366075 534 248 c 0
 534 221.853633925 512.144471708 200 486 200 c 2
 54 200 l 2
 27.8536339246 200 6 221.855528292 6 248 c 0
106 488 m 0
 106 514.144471708 127.853633925 536 154 536 c 2
 586 536 l 2
 612.144471708 536 634 514.146366075 634 488 c 0
 634 461.853633925 612.144471708 440 586 440 c 2
 154 440 l 2
 127.853633925 440 106 461.855528292 106 488 c 0
EndSplineSet
EndChar

StartChar: greater
Encoding: 62 62 30
Width: 640
VWidth: 0
Flags: HW
LayerCount: 2
Fore
SplineSet
-29.3403558355 133.617050172 m 0
 -31.7642274668 139.46351832 -32.9088183896 145.568275456 -32.9088183896 151.605708981 c 0
 -32.9088183896 170.50828305 -21.6889575504 188.750916933 -3.38294982814 196.340355835 c 2
 431.926613671 376.814186384 l 1
 167.421822393 543.382801299 l 2
 153.076461723 552.416614433 145.154318289 568.263624844 145.154318289 584.321252492 c 0
 145.154318289 593.029288986 147.484127811 601.79926554 152.382801299 609.578177607 c 0
 161.416170098 623.92283269 177.26322811 631.845743881 193.321419777 631.845743881 c 0
 202.029185876 631.845743881 210.799035691 629.516016934 218.578177607 624.617198701 c 2
 561.578177607 408.617198701 l 2
 565.845532784 405.929884654 569.544571357 402.639567316 572.635770872 398.92007335 c 0
 575.784685246 395.245961065 578.407873083 391.044172416 580.340355835 386.382949828 c 0
 583.360027246 379.099390545 584.394213083 371.415269359 583.70348632 363.959945898 c 0
 583.130567951 356.494611754 580.818812113 349.09382821 576.617198701 342.421822393 c 0
 573.928345805 338.152023581 570.635901785 334.451266991 566.913967897 331.359077083 c 0
 563.241241391 328.212402322 559.04150394 325.591021945 554.382949828 323.659644165 c 2
 33.3829498281 107.659644165 l 2
 27.5362985965 105.235696629 21.4315421976 104.091112112 15.3942094527 104.091112112 c 0
 -3.50907512448 104.091112112 -21.75136709 115.312128244 -29.3403558355 133.617050172 c 0
EndSplineSet
EndChar

StartChar: question
Encoding: 63 63 31
Width: 640
VWidth: 0
Flags: HW
HStem: 48 48<281.906 326.094>
VStem: 280 48<49.9059 94.0941>
LayerCount: 2
Fore
SplineSet
252.975552075 60.7606959671 m 0
 237.803698947 26.0821745315 203.864312206 0 163 0 c 0
 123.260237468 0 105.697247299 32.8908636915 105.697247299 60.9407718063 c 0
 105.697247299 68.103594907 106.842507117 74.950745571 109.056199477 80.8539251962 c 0
 109.34335048 81.6196612047 109.781626511 82.6842836596 110.024447925 83.2393040329 c 0
 124.676776031 116.730339704 157.363088122 144 199 144 c 0
 235.687761913 144 257.58312114 113.629209973 257.58312114 83.6257509961 c 0
 257.58312114 76.6506027486 256.399762712 69.6953073059 253.943800523 63.1460748038 c 0
 253.65664952 62.3803387953 253.218373489 61.3157163404 252.975552075 60.7606959671 c 0
163.744878572 491.6068638 m 0
 145.373703464 499.161365714 134.089976939 517.441391985 134.089976939 536.393774291 c 0
 134.089976939 542.386266993 135.218057104 548.44597787 137.6068638 554.255121428 c 0
 190.52367313 682.939180481 317.283690629 744 440 744 c 0
 480.333776692 744 516.781549056 738.728101946 548.499833984 725.853539661 c 0
 602.002439996 704.136645601 633.325577328 658.47650322 633.325577328 604.042521767 c 0
 633.325577328 584.192221283 629.16015325 563.175155154 620.385889018 541.7269537 c 0
 584.976187517 456.25526042 520.902478243 416.241207454 443.213961204 380.463600923 c 0
 356.2582584 339.760931525 335.805479177 319.48612768 295.358002352 221.659672104 c 0
 287.78048056 203.332642653 269.52558813 192.090733322 250.605929445 192.090733322 c 0
 244.583556109 192.090733322 238.49382655 193.229799175 232.659672104 195.641997648 c 0
 214.331554578 203.219969317 203.090802741 221.475206497 203.090802741 240.394153462 c 0
 203.090802741 246.416626651 204.22987478 252.506356307 206.641997648 258.340327896 c 0
 252.194520823 368.51387232 301.7417416 420.239068475 402.786038796 467.536399077 c 0
 477.097521757 501.758792546 509.023812483 523.74473958 531.614110982 578.2730463 c 0
 537.164810721 591.841423441 539.851789062 601.710854187 539.851789062 609.278797081 c 0
 539.851789062 623.544149616 530.304644679 629.632049998 512.394095986 636.902004072 c 0
 496.517320889 643.346442362 471.691946781 648 440 648 c 0
 346.716309371 648 261.47632687 603.060819519 226.3931362 517.744878572 c 0
 218.838184979 499.372610831 200.55780828 488.090046197 181.606140131 488.090046197 c 0
 175.613549427 488.090046197 169.553839725 489.218132111 163.744878572 491.6068638 c 0
EndSplineSet
EndChar

StartChar: at
Encoding: 64 64 32
Width: 880
VWidth: 0
Flags: HW
LayerCount: 2
Fore
SplineSet
499.566881162 87.826752465 m 0
 501.839946422 82.1440893151 502.91373848 76.2348688975 502.91373848 70.3920114284 c 0
 502.91373848 51.2760370554 491.419969015 32.8704054575 472.826752465 25.4331188375 c 0
 417.312456041 3.22740026791 359.500591703 -8 304 -8 c 0
 260.388251725 -8 220.118071445 -0.526695404044 184.511945556 14.1660176583 c 0
 88.1032422413 53.9486499771 37.5922221765 141.168155133 37.5922221765 243.82287787 c 0
 37.5922221765 289.242407584 47.480337814 337.683559433 67.6561514046 386.374522899 c 0
 150.001273963 585.100752007 371.800787149 744 576 744 c 0
 619.611748275 744 659.881928555 736.526695404 695.488054444 721.833982342 c 0
 791.88519298 682.056122179 842.408785126 594.884386658 842.408785126 492.216444312 c 0
 842.408785126 446.773334351 832.510485521 398.294294216 812.310652642 349.545364202 c 0
 793.853457729 305.453176353 771.352108227 255.469857233 727.941125497 212.058874503 c 0
 688.215975552 172.333724558 632.421501334 152 586 152 c 0
 566.783845045 152 548.250056144 155.389961045 531.246881731 162.308074301 c 0
 516.172636752 168.441360443 501.476108955 177.831958879 489.803432336 190.69553798 c 1
 453.44748307 163.937689111 361.872552578 141.208631862 355.854201341 141.208631862 c 0
 355.215082465 141.208631862 355.540817676 141.464956086 357 142 c 1
 273.011416411 142 224.61836779 210.226251764 224.61836779 285.317774804 c 0
 224.61836779 317.782018749 232.191093182 351.800229323 246.719090607 386.525686583 c 0
 292.64731015 496.305333295 397.436950641 594 504 594 c 0
 538.079363521 594 565.864437278 582.936887221 587.002010983 564.932895679 c 1
 595.837269246 579.32095069 611.858897012 587.9102815 628.393667284 587.9102815 c 0
 634.375947357 587.9102815 640.425397398 586.785944554 646.225977718 584.405109348 c 0
 664.613331128 576.858061307 675.910212299 558.56910312 675.910212299 539.606246228 c 0
 675.910212299 533.623868784 674.78586975 527.574420352 672.405109348 521.774022282 c 2
 562.452749643 253.890091365 l 2
 565.378549646 251.786183196 573.936482886 248 586 248 c 0
 603.578498666 248 641.784024448 261.666275442 660.058874503 279.941125497 c 0
 688.647891773 308.530142767 706.146542271 344.546823647 723.689347358 386.454635798 c 0
 740.306721131 426.557897838 747.810027378 462.711857246 747.810027378 494.431791752 c 0
 747.810027378 563.011066673 712.736948913 610.864157938 658.869240198 633.092433768 c 0
 636.289532192 642.409852119 608.695165721 648 576 648 c 0
 418.199212851 648 223.998726037 512.899247993 156.343848595 349.625477101 c 0
 139.701575026 309.462123555 132.188480569 273.272015203 132.188480569 241.531585856 c 0
 132.188480569 172.942790399 167.271713478 125.132267564 221.130759802 102.907566232 c 0
 243.710467808 93.5901478808 271.304834279 88 304 88 c 0
 346.499408297 88 392.687543959 96.7725997321 437.173247535 114.566881162 c 0
 442.856090818 116.840018476 448.765318688 117.91380685 454.608087356 117.91380685 c 0
 473.724788447 117.91380685 492.130040751 106.418853494 499.566881162 87.826752465 c 0
540.12490427 452.317283624 m 1
 539.914573298 489.583110163 526.233399412 498 504 498 c 0
 456.563049359 498 371.35268985 435.694666705 335.280909393 349.474313417 c 0
 324.83631125 324.509176393 320.618202441 302.536846753 320.618202441 285.150281695 c 0
 320.618202441 247.212290438 333.865117141 238 357 238 c 0
 389.802579151 238 444.181618473 267.654014717 485.672326201 319.65100251 c 1
 540.12490427 452.317283624 l 1
EndSplineSet
EndChar

StartChar: A
Encoding: 65 65 33
Width: 688
VWidth: 0
Flags: HW
AnchorPoint: "above" -152 0 basechar 0
LayerCount: 2
Fore
SplineSet
-66.0288500011 9.77270781743 m 0
 -78.3261799757 19.1109927668 -84.8219568899 33.6154145812 -84.8219568899 48.2161343607 c 0
 -84.8219568899 58.3369595589 -81.7008084961 68.5040548558 -75.2272921826 77.0288500011 c 2
 410.772707817 717.028850001 l 2
 420.124456987 729.343910636 436.588608121 736 449 736 c 2
 485 736 l 1
 505 736 l 2
 532.73728817 736 554.811083397 711.474904154 552.876493945 684.558876998 c 2
 506.876493945 44.5588769977 l 2
 505.082934382 19.6050048112 483.611013606 0.00303837677473 458.912493067 0.00303837677473 c 0
 457.800659354 0.00303837677473 456.682287068 0.0427609560184 455.558876998 0.123506054819 c 0
 429.479786642 1.99794067417 409.249207243 25.3639221393 411.123506055 51.4411230023 c 2
 417.776175339 144 l 1
 96.1710751522 144 l 1
 1.22729218257 18.9711499989 l 2
 -8.11140145019 6.6732818405 -22.6156625281 0.178085882498 -37.2158641744 0.178085882498 c 0
 -47.3370395052 0.178085882498 -57.5043196714 3.29939259825 -66.0288500011 9.77270781743 c 0
169.071075152 240 m 1
 424.676175339 240 l 1
 451.398526722 611.789236635 l 1
 169.071075152 240 l 1
EndSplineSet
EndChar

StartChar: B
Encoding: 66 66 34
Width: 696
VWidth: 0
Flags: HW
AnchorPoint: "above" -152 0 basechar 0
LayerCount: 2
Fore
SplineSet
224.243289721 436 m 1
 408 436 l 2
 424.48513765 436 441.308844566 438.735556259 457.908088506 443.927981728 c 0
 515.182490557 461.844042544 566.222290614 509.262292706 585.626947147 556.303884302 c 0
 591.823785783 571.326523418 594.254166574 584.394010288 594.266114827 594.960870012 c 0
 594.266114827 620.409088366 584.754231393 640 533 640 c 2
 309.030789721 640 l 1
 224.243289721 436 l 1
184.343289721 340 m 1
 82.9307897208 96 l 1
 283 96 l 2
 359.986945287 96 442.230032781 169.887122202 469.626947147 236.303884302 c 0
 477.168075008 254.585406388 480.786227808 272.552646771 480.786227808 288.117882015 c 0
 480.786227808 321.54566712 471.206272691 340 424 340 c 0
 422.431737457 340 420.739522588 340.088877522 419.109078801 340.249462219 c 0
 415.418216441 340.091759628 411.532898546 340 408 340 c 2
 184.343289721 340 l 1
548.606734673 379.875238098 m 1
 568.822427249 352.355048206 577.006315576 320.453464987 577.006315576 288.250091749 c 0
 577.006315576 257.857803308 569.717050092 227.196715066 558.373052853 199.696115698 c 0
 519.769967219 106.112877798 414.013054713 0 283 0 c 2
 11 0 l 2
 6.62238965343 0 0.87276659106 0.814036806133 -3.88786664422 2.36721105626 c 0
 -24.0825235404 8.95579277033 -36.906302557 28.2652015758 -36.906302557 48.4295897637 c 0
 -36.906302557 54.4563503854 -35.760753188 60.5594863947 -33.3240668788 66.4221902965 c 2
 115.989064434 425.671829546 l 1
 232.675933121 706.422190297 l 2
 239.408664277 722.621242702 257.201132759 736 277 736 c 2
 533 736 l 2
 625.465815441 736 690.266001788 676.571835913 690.266001788 594.861135619 c 0
 690.237592659 569.681341133 684.604400396 544.499382471 674.373052853 519.696115698 c 0
 650.802855957 462.556244436 604.653343339 412.888714867 548.606734673 379.875238098 c 1
EndSplineSet
EndChar

StartChar: C
Encoding: 67 67 35
Width: 684
VWidth: 0
Flags: HW
AnchorPoint: "bottom" -152 0 basechar 0
AnchorPoint: "above" -152 0 basechar 0
LayerCount: 2
Fore
SplineSet
512.461538462 244.307692308 m 0
 530.725653666 236.697644306 541.90818872 218.478634754 541.90818872 199.605550749 c 0
 541.90818872 193.540613 540.753387544 187.408130106 538.307692308 181.538461538 c 0
 520.567604925 138.96225182 396.822507583 -8 232 -8 c 0
 204.781793721 -8 178.882126301 -3.25745648734 155.387290032 6.34088298927 c 0
 74.1037107491 39.5476429298 37.5716126585 117.325535303 37.5716126585 209.731755811 c 0
 37.5716126585 265.480068821 50.8680612726 326.552598713 75.6561514046 386.374522899 c 0
 155.341979764 578.682988672 336.699780971 744 504 744 c 0
 677.056007053 744 681.923235601 589.571966909 681.923235601 574.147681479 c 0
 681.923235601 547.187415284 657.749257017 527.999662246 634.011456722 527.999662246 c 0
 633.250294708 527.999662246 632.48592593 528.017739074 631.71881981 528.054236715 c 0
 606.426005049 529.257627047 586.015723017 550.260229799 586.015723017 576.553071 c 0
 586.015723017 586.404423249 591.274049804 648 504 648 c 0
 397.300219029 648 234.658020236 519.317011328 164.343848595 349.625477101 c 0
 142.148919932 296.061715927 133.12168485 250.231221576 133.12168485 212.672216239 c 0
 133.12168485 148.389495272 159.564950627 108.336251035 191.693317999 95.2108572958 c 0
 202.618206539 90.7477153631 215.802821664 88 232 88 c 0
 331.943334193 88 435.314676147 195.113288677 450.296611606 219.849862606 c 0
 457.711808506 236.124892409 475.712509685 247.830900005 494.814793818 247.830900005 c 0
 500.684753032 247.830900005 506.658732227 246.725528239 512.461538462 244.307692308 c 0
EndSplineSet
EndChar

StartChar: D
Encoding: 68 68 36
Width: 696
VWidth: 0
Flags: HW
HStem: 48 21G<144 384> 668 20G<144 384>
VStem: 144 432<226.215 509.777>
AnchorPoint: "above" -152 0 basechar 0
LayerCount: 2
Fore
SplineSet
-33.3240668788 66.4221902965 m 2
 232.675933121 706.422190297 l 2
 240.274651871 724.704821874 259.457509651 736 277 736 c 2
 485 736 l 2
 505.035142504 736 527.167853008 732.037962533 549.824517627 722.751597184 c 0
 612.120357401 697.21818626 662.36845942 635.295970316 662.36845942 532.939533816 c 0
 662.36845942 482.013798823 649.930075478 421.079002004 620.348585788 349.636913697 c 0
 507.574098779 77.2758884656 305.925566053 0 219 0 c 2
 11 0 l 2
 -15.3548479083 0 -36.9966637886 22.1344177733 -36.9966637886 48.0898351674 c 0
 -36.9966637886 54.1772382522 -33.4628136536 65.845794843 -33.3240668788 66.4221902965 c 2
82.9307897208 96 m 1
 219 96 l 2
 260.074433947 96 432.425901222 146.724111534 531.651414212 386.363086303 c 0
 559.022732014 452.467400996 568.981419921 500.980325788 568.981419921 536.688914687 c 0
 568.981419921 603.288001516 534.340190706 625.347291661 513.416226152 633.923469252 c 0
 502.709661532 638.311805857 491.857786789 640 485 640 c 2
 309.030789721 640 l 1
 82.9307897208 96 l 1
EndSplineSet
EndChar

StartChar: E
Encoding: 69 69 37
Width: 696
VWidth: 0
Flags: HW
AnchorPoint: "bottom" -152 0 basechar 0
AnchorPoint: "above" -152 0 basechar 0
LayerCount: 2
Fore
SplineSet
741 688 m 0
 741 661.855528292 719.146366075 640 693 640 c 2
 309.030789721 640 l 1
 224.243289721 436 l 1
 440 436 l 2
 466.144471708 436 488 414.146366075 488 388 c 0
 488 361.853633925 466.144471708 340 440 340 c 2
 184.343289721 340 l 1
 82.9307897208 96 l 1
 443 96 l 2
 469.144471708 96 491 74.1463660754 491 48 c 0
 491 21.8536339246 469.144471708 0 443 0 c 2
 11 0 l 2
 6.62238965343 0 0.87276659106 0.814036806133 -3.88786664422 2.36721105626 c 0
 -24.0825235404 8.95579277033 -36.906302557 28.2652015758 -36.906302557 48.4295897637 c 0
 -36.906302557 54.4563503854 -35.760753188 60.5594863947 -33.3240668788 66.4221902965 c 2
 232.675933121 706.422190297 l 2
 239.408664277 722.621242702 257.201132759 736 277 736 c 2
 693 736 l 2
 719.146366075 736 741 714.144471708 741 688 c 0
EndSplineSet
EndChar

StartChar: F
Encoding: 70 70 38
Width: 664
VWidth: 0
Flags: HW
AnchorPoint: "above" -152 0 basechar 0
LayerCount: 2
Fore
SplineSet
-7.42219029651 3.67593312117 m 0
 -25.7067438984 11.2754507119 -36.9085389007 29.5061253644 -36.9085389007 48.3943318345 c 0
 -36.9085389007 54.4454445873 -35.7588597156 60.5640421177 -33.3240668788 66.4221902965 c 2
 232.675933121 706.422190297 l 2
 240.274651871 724.704821874 259.457509651 736 277 736 c 2
 677 736 l 2
 703.144471708 736 725 714.146366075 725 688 c 0
 725 661.853633925 703.144471708 640 677 640 c 2
 309.030789721 640 l 1
 224.243289721 436 l 1
 448 436 l 2
 474.144471708 436 496 414.146366075 496 388 c 0
 496 361.853633925 474.144471708 340 448 340 c 2
 184.343289721 340 l 1
 55.3240668788 29.5778097035 l 2
 47.7240988776 11.2921724073 29.4930849095 0.091530669426 10.6055878369 0.091530669426 c 0
 4.55437344789 0.091530669426 -1.5642254105 1.24121646542 -7.42219029651 3.67593312117 c 0
EndSplineSet
EndChar

StartChar: G
Encoding: 71 71 39
Width: 672
VWidth: 0
Flags: HW
AnchorPoint: "above" -152 0 basechar 0
LayerCount: 2
Fore
SplineSet
631.71881981 528.054236715 m 0
 605.23814641 529.314143399 586.016343896 552.513838702 586.016343896 576.635918474 c 0
 586.016343896 587.07705995 590.895096919 648 504 648 c 0
 397.300390466 648 234.658088101 519.317175108 164.343848595 349.625477101 c 0
 142.831205322 297.708298002 133.354678498 250.241225051 133.349913102 211.209739458 c 0
 133.349913102 126.416884872 170.102862231 88 232 88 c 0
 317.253179781 88 399.454826592 156.827193312 422.191652323 178.967521583 c 1
 470.345640838 296 l 1
 374 296 l 2
 347.855528292 296 326 317.853633925 326 344 c 0
 326 370.146366075 347.855528292 392 374 392 c 2
 542 392 l 2
 545.978887055 392 552.034548831 391.197436196 556.72540399 389.685473373 c 0
 576.999915047 383.150565361 589.907828865 363.797291503 589.907828865 343.571684151 c 0
 589.907828865 337.599886345 588.78254238 331.552040226 586.389335254 325.735638098 c 2
 507.389335254 133.735638098 l 2
 505.564625054 129.300899384 502.092710472 123.589148374 498.293872112 119.467822217 c 0
 497.075485773 118.146005647 386.375525807 -8 232 -8 c 0
 107.202098271 -8 37.3499156286 92.0922885774 37.3499156286 211.23042838 c 0
 37.3565360603 265.461927815 50.1225324065 324.75338905 75.6561514046 386.374522899 c 0
 155.341911899 578.682824892 336.699609534 744 504 744 c 0
 669.195070219 744 682.039443956 599.492219388 682.039443956 578.227168209 c 0
 682.039235363 575.522427554 682.032370592 575.539018493 681.90844711 572.934399199 c 0
 679.983230445 549.000899335 659.636840915 528.000622565 633.969019778 528.000622565 c 0
 633.223337218 528.000622565 632.4731635 528.018346289 631.71881981 528.054236715 c 0
EndSplineSet
EndChar

StartChar: H
Encoding: 72 72 40
Width: 712
VWidth: 0
Flags: HW
AnchorPoint: "above" -152 0 basechar 0
LayerCount: 2
Fore
SplineSet
719.422190297 732.324066879 m 0
 737.706743898 724.724549288 748.908538901 706.493874636 748.908538901 687.605668165 c 0
 748.908538901 681.554555413 747.758859716 675.435957882 745.324066879 669.577809703 c 2
 479.324066879 29.5778097035 l 2
 471.724549288 11.2932561016 453.493874636 0.0914610993227 434.605668165 0.0914610993227 c 0
 428.554555413 0.0914610993227 422.435957882 1.24114028437 416.577809703 3.67593312117 c 0
 398.292172407 11.2759011224 387.091530669 29.5069150905 387.091530669 48.3944121631 c 0
 387.091530669 54.4456265521 388.241216465 60.5642254105 390.675933121 66.4221902965 c 2
 504.381710279 340 l 1
 184.343289721 340 l 1
 55.3240668788 29.5778097035 l 2
 47.7240988776 11.2921724073 29.4930849095 0.091530669426 10.6055878369 0.091530669426 c 0
 4.55437344789 0.091530669426 -1.5642254105 1.24121646542 -7.42219029651 3.67593312117 c 0
 -25.7067438984 11.2754507119 -36.9085389007 29.5061253644 -36.9085389007 48.3943318345 c 0
 -36.9085389007 54.4454445873 -35.7588597156 60.5640421177 -33.3240668788 66.4221902965 c 2
 232.675933121 706.422190297 l 2
 240.275450712 724.706743898 258.506125364 735.908538901 277.394331835 735.908538901 c 0
 283.445444587 735.908538901 289.564042118 734.758859716 295.422190297 732.324066879 c 0
 313.707827593 724.724098878 324.908469331 706.493084909 324.908469331 687.605587837 c 0
 324.908469331 681.554373448 323.758783535 675.43577459 321.324066879 669.577809703 c 2
 224.243289721 436 l 1
 544.281710279 436 l 1
 656.675933121 706.422190297 l 2
 664.275901122 724.707827593 682.506915091 735.908469331 701.394412163 735.908469331 c 0
 707.445626552 735.908469331 713.56422541 734.758783535 719.422190297 732.324066879 c 0
EndSplineSet
EndChar

StartChar: I
Encoding: 73 73 41
Width: 336
VWidth: 0
Flags: HW
AnchorPoint: "above" -152 0 basechar 0
LayerCount: 2
Fore
SplineSet
319.422190297 732.324066879 m 0
 337.706743898 724.724549288 348.908538901 706.493874636 348.908538901 687.605668165 c 0
 348.908538901 681.554555413 347.758859716 675.435957882 345.324066879 669.577809703 c 2
 79.3240668788 29.5778097035 l 2
 71.7245492881 11.2932561016 53.4938746356 0.0914610993227 34.6056681655 0.0914610993227 c 0
 28.5545554127 0.0914610993227 22.4359578823 1.24114028437 16.5778097035 3.67593312117 c 0
 -1.70782759274 11.2759011224 -12.9084693306 29.5069150905 -12.9084693306 48.3944121631 c 0
 -12.9084693306 54.4456265521 -11.7587835346 60.5642254105 -9.32406687883 66.4221902965 c 2
 256.675933121 706.422190297 l 2
 264.275901122 724.707827593 282.506915091 735.908469331 301.394412163 735.908469331 c 0
 307.445626552 735.908469331 313.56422541 734.758783535 319.422190297 732.324066879 c 0
EndSplineSet
EndChar

StartChar: J
Encoding: 74 74 42
Width: 544
VWidth: 0
Flags: HW
AnchorPoint: "above" -152 0 basechar 0
LayerCount: 2
Fore
SplineSet
78.6576242594 324.225479726 m 0
 96.8196764999 316.563363937 107.906440279 298.402723059 107.906440279 279.605045087 c 0
 107.906440279 273.471104686 106.725914466 267.269332161 104.225479726 261.342375741 c 2
 77.3009998822 197.521386481 l 2
 68.2308919761 175.526374809 64.4685908511 155.877871071 64.4685908511 139.786285308 c 0
 64.4685908511 102.345610843 79.0646019113 88 112 88 c 0
 165.701930566 88 261.417177714 159.760244258 302.692471639 258.462034078 c 2
 488.668922448 706.405313448 l 2
 496.263915045 724.698628949 514.499588104 735.908689025 533.394279846 735.908689025 c 0
 539.439465111 735.908689025 545.552108978 734.761202622 551.405313448 732.331077552 c 0
 569.699713547 724.735634653 580.908619485 706.49962116 580.908619485 687.605639293 c 0
 580.908619485 681.56035276 579.76112656 675.447707819 577.331077552 669.594686552 c 2
 391.307528361 221.537965922 l 2
 340.582822286 100.239755742 226.298069434 -8 112 -8 c 0
 24.0465078336 -8 -31.530447026 59.513493575 -31.530447026 140.142117385 c 0
 -31.530447026 170.957986962 -24.6831497477 202.026900095 -11.3009998822 234.478613519 c 2
 15.774520274 298.657624259 l 2
 23.4370879282 316.820747588 41.5980526037 327.906370301 60.3950277553 327.906370301 c 0
 66.5290749552 327.906370301 72.7308523868 326.72583661 78.6576242594 324.225479726 c 0
EndSplineSet
EndChar

StartChar: K
Encoding: 75 75 43
Width: 672
VWidth: 0
Flags: HW
AnchorPoint: "above" -152 0 basechar 0
LayerCount: 2
Fore
SplineSet
456.595629002 1.96567723923 m 0
 452.202786488 0.668309242933 447.746206218 0.0515300248452 443.343230398 0.0515300248452 c 0
 422.614553012 0.0515300248452 403.073971341 13.7219014959 396.965677239 34.4043709981 c 2
 301.691086917 357.000790861 l 1
 146.486875134 248.916897236 l 1
 55.3240668788 29.5778097035 l 2
 47.7245492881 11.2932561016 29.4938746356 0.0914610993227 10.6056681655 0.0914610993227 c 0
 4.55455541266 0.0914610993227 -1.56404211775 1.24114028437 -7.42219029651 3.67593312117 c 0
 -25.7078275927 11.2759011224 -36.9084693306 29.5069150905 -36.9084693306 48.3944121631 c 0
 -36.9084693306 54.4456265521 -35.7587835346 60.5642254105 -33.3240668788 66.4221902965 c 2
 232.675933121 706.422190297 l 2
 240.275901122 724.707827593 258.506915091 735.908469331 277.394412163 735.908469331 c 0
 283.445626552 735.908469331 289.56422541 734.758783535 295.422190297 732.324066879 c 0
 313.706743898 724.724549288 324.908538901 706.493874636 324.908538901 687.605668165 c 0
 324.908538901 681.554555413 323.758859716 675.435957882 321.324066879 669.577809703 c 2
 214.914463565 413.554703985 l 1
 665.569112273 727.389673755 l 2
 673.767980198 733.099348502 683.276214872 735.831997587 692.729617662 735.831997587 c 0
 708.015477788 735.831997587 723.157975071 728.687243227 732.389673755 715.430887727 c 0
 738.09917633 707.232267034 740.831944563 697.723872885 740.831944563 688.270156051 c 0
 740.831944563 672.984834612 733.687856931 657.842452312 720.430887727 648.610326245 c 2
 384.714687069 414.818255118 l 1
 489.034322761 61.5956290019 l 2
 490.331736976 57.2026299933 490.948523848 52.7459929754 490.948523848 48.3430265392 c 0
 490.948523848 27.6134676984 477.276761798 8.07357656237 456.595629002 1.96567723923 c 0
EndSplineSet
EndChar

StartChar: L
Encoding: 76 76 44
Width: 656
VWidth: 0
Flags: HW
AnchorPoint: "above" -152 0 basechar 0
LayerCount: 2
Fore
SplineSet
295.422190297 732.324066879 m 0
 313.706743898 724.724549288 324.908538901 706.493874636 324.908538901 687.605668165 c 0
 324.908538901 681.554555413 323.758859716 675.435957882 321.324066879 669.577809703 c 2
 82.9307897208 96 l 1
 427 96 l 2
 453.144471708 96 475 74.1463660754 475 48 c 0
 475 21.8536339246 453.144471708 0 427 0 c 2
 11 0 l 2
 6.62238965343 0 0.87276659106 0.814036806133 -3.88786664422 2.36721105626 c 0
 -24.0825235404 8.95579277033 -36.906302557 28.2652015758 -36.906302557 48.4295897637 c 0
 -36.906302557 54.4563503854 -35.760753188 60.5594863947 -33.3240668788 66.4221902965 c 2
 232.675933121 706.422190297 l 2
 240.275901122 724.707827593 258.506915091 735.908469331 277.394412163 735.908469331 c 0
 283.445626552 735.908469331 289.56422541 734.758783535 295.422190297 732.324066879 c 0
EndSplineSet
EndChar

StartChar: M
Encoding: 77 77 45
Width: 830
VWidth: 0
Flags: HW
AnchorPoint: "above" -152 0 basechar 0
LayerCount: 2
Fore
SplineSet
-7.42219029651 3.67593312117 m 0
 -25.7067438984 11.2754507119 -36.9085389007 29.5061253644 -36.9085389007 48.3943318345 c 0
 -36.9085389007 54.4454445873 -35.7588597156 60.5640421177 -33.3240668788 66.4221902965 c 2
 232.675933121 706.422190297 l 2
 240.274651871 724.704821874 259.457509651 736 277 736 c 2
 299 736 l 1
 317 736 l 2
 345.120223015 736 366.275668642 710.738484524 364.932408662 685.45359079 c 2
 339.046495699 198.18934679 l 1
 743.117468917 717.477344499 l 2
 752.51536074 729.554956481 769.018743675 736 781 736 c 2
 821 736 l 2
 847.354847908 736 868.996663789 713.865582227 868.996663789 687.910164833 c 0
 868.996663789 681.822761748 865.462813654 670.154205157 865.324066879 669.577809703 c 2
 599.324066879 29.5778097035 l 2
 591.724549288 11.2932561016 573.493874636 0.0914610993229 554.605668165 0.0914610993229 c 0
 548.554555413 0.0914610993229 542.435957882 1.24114028437 536.577809703 3.67593312117 c 0
 518.292172407 11.2759011224 507.091530669 29.5069150905 507.091530669 48.3944121631 c 0
 507.091530669 54.4456265521 508.241216465 60.5642254105 510.675933121 66.4221902965 c 2
 685.549809654 487.171366917 l 1
 320.882531083 18.5226555008 l 2
 312.196088628 7.35935596013 298.5094895 0.379434164744 284.222077199 0.0155595289408 c 0
 283.822328445 0.00537864880311 283.423534617 0.000319430260582 283.025756458 0.000319430260582 c 0
 255.977271926 0.000319430260582 233.625087812 23.3934016613 235.067591338 50.5464092102 c 2
 260.132105605 522.349030698 l 1
 55.3240668788 29.5778097035 l 2
 47.7240988776 11.2921724073 29.4930849095 0.091530669426 10.6055878369 0.091530669426 c 0
 4.55437344789 0.091530669426 -1.5642254105 1.24121646542 -7.42219029651 3.67593312117 c 0
EndSplineSet
EndChar

StartChar: N
Encoding: 78 78 46
Width: 720
VWidth: 0
Flags: HW
AnchorPoint: "above" -152 0 basechar 0
LayerCount: 2
Fore
SplineSet
-7.42219029651 3.67593312117 m 0
 -25.7067438984 11.2754507119 -36.9085389007 29.5061253644 -36.9085389007 48.3943318345 c 0
 -36.9085389007 54.4454445873 -35.7588597156 60.5640421177 -33.3240668788 66.4221902965 c 2
 232.675933121 706.422190297 l 2
 240.274651871 724.704821874 259.457509651 736 277 736 c 2
 301 736 l 1
 317 736 l 2
 340.8559627 736 361.175430852 717.545811499 364.490494357 694.975166359 c 2
 441.629967489 169.77024291 l 1
 664.675933121 706.422190297 l 2
 672.275450712 724.706743898 690.506125364 735.908538901 709.394331835 735.908538901 c 0
 715.445444587 735.908538901 721.564042118 734.758859716 727.422190297 732.324066879 c 0
 745.707827593 724.724098878 756.908469331 706.493084909 756.908469331 687.605587837 c 0
 756.908469331 681.554373448 755.758783535 675.43577459 753.324066879 669.577809703 c 2
 487.324066879 29.5778097035 l 2
 480.591335723 13.3787572983 462.798867241 0 443 0 c 2
 423 0 l 1
 411 0 l 2
 388.187203852 0 366.976157903 17.4220948496 363.509505643 41.0248336413 c 2
 284.281143623 580.451979313 l 1
 55.3240668788 29.5778097035 l 2
 47.7240988776 11.2921724073 29.4930849095 0.091530669426 10.6055878369 0.091530669426 c 0
 4.55437344789 0.091530669426 -1.5642254105 1.24121646542 -7.42219029651 3.67593312117 c 0
EndSplineSet
EndChar

StartChar: O
Encoding: 79 79 47
Width: 736
VWidth: 0
Flags: HW
HStem: 40 656<282.729 453.271>
VStem: 120 496<233.016 502.984>
AnchorPoint: "middle" -152 0 basechar 0
AnchorPoint: "above" -152 0 basechar 0
LayerCount: 2
Fore
SplineSet
660.343848595 349.625477101 m 0
 580.658020236 157.317011328 399.300219029 -8 232 -8 c 0
 204.387440004 -8 178.154248075 -3.1767142054 154.399372495 6.60696655944 c 0
 73.4672313855 39.9396703905 37.360255518 117.261570678 37.360255518 209.045135362 c 0
 37.360255518 265.009519761 50.784341835 326.350555804 75.6561514046 386.374522899 c 0
 155.341979764 578.682988672 336.699780971 744 504 744 c 0
 531.612559996 744 557.845751925 739.176714205 581.600627505 729.393033441 c 0
 662.532768614 696.060329609 698.639744482 618.738429322 698.639744482 526.954864638 c 0
 698.639744482 470.990480239 685.215658165 409.649444196 660.343848595 349.625477101 c 0
571.656151405 386.374522899 m 0
 593.985907416 440.263667406 603.07359701 486.295419402 603.07359701 523.94818812 c 0
 603.07359701 587.726787478 576.999480238 627.464668218 545.041421042 640.626911396 c 0
 533.984354801 645.180873631 520.564023497 648 504 648 c 0
 397.300219029 648 234.658020236 519.317011328 164.343848595 349.625477101 c 0
 142.014092584 295.736332594 132.92640299 249.704580598 132.92640299 212.05181188 c 0
 132.92640299 148.273212522 159.000519762 108.535331782 190.958578958 95.3730886037 c 0
 202.015645199 90.8191263686 215.435976503 88 232 88 c 0
 338.699780971 88 501.341979764 216.682988672 571.656151405 386.374522899 c 0
EndSplineSet
EndChar

StartChar: P
Encoding: 80 80 48
Width: 680
VWidth: 0
Flags: HW
AnchorPoint: "above" -152 0 basechar 0
LayerCount: 2
Fore
SplineSet
209.280789721 400 m 1
 377 400 l 2
 455.042051522 400 540.517297763 445.515320057 578.599048718 538.236104991 c 0
 588.655531607 562.721454633 592.707170213 580.477005616 592.707170213 593.621077227 c 0
 592.707170213 617.417358543 579.42744598 626.098971371 564.458052906 632.235732692 c 0
 553.320896401 636.801453622 537.167312046 640 517 640 c 2
 309.030789721 640 l 1
 209.280789721 400 l 1
169.380789721 304 m 1
 55.3240668788 29.5778097035 l 2
 47.7240988776 11.2921724073 29.4930849095 0.091530669426 10.6055878369 0.091530669426 c 0
 4.55437344789 0.091530669426 -1.5642254105 1.24121646542 -7.42219029651 3.67593312117 c 0
 -25.7067438984 11.2754507119 -36.9085389007 29.5061253644 -36.9085389007 48.3943318345 c 0
 -36.9085389007 54.4454445873 -35.7588597156 60.5640421177 -33.3240668788 66.4221902965 c 2
 100.635529081 388.730992605 l 1
 232.675933121 706.422190297 l 2
 240.274651871 724.704821874 259.457509651 736 277 736 c 2
 517 736 l 2
 546.740944834 736 575.090161403 731.630908039 600.872463559 721.061352289 c 0
 656.95699637 698.069278399 686.108694355 649.171123193 686.108694355 589.481461128 c 0
 686.108694355 562.034229076 679.944693024 532.30517925 667.400951282 501.763895009 c 0
 613.482702237 370.484679943 490.957948478 304 377 304 c 2
 169.380789721 304 l 1
EndSplineSet
EndChar

StartChar: Q
Encoding: 81 81 49
Width: 736
VWidth: 0
Flags: HW
HStem: 40 656<282.729 453.271>
VStem: 120 496<233.016 502.984>
AnchorPoint: "above" -152 0 basechar 0
LayerCount: 2
Fore
SplineSet
299.563770548 197.363914314 m 0
 308.789668121 210.660060817 323.958285021 217.832458802 339.272453538 217.832458802 c 0
 348.698396264 217.832458802 358.179480644 215.115224244 366.363914314 209.436229452 c 0
 374.854265019 203.544965698 382.076012987 196.168939062 387.591811648 188.324762365 c 0
 393.857449819 179.414217229 398.946761208 171.089099655 403.043753179 163.3091637 c 1
 470.507779787 217.17784553 534.189261764 295.954429233 571.656151405 386.374522899 c 0
 593.985907416 440.263667406 603.07359701 486.295419402 603.07359701 523.94818812 c 0
 603.07359701 587.726787478 576.999480238 627.464668218 545.041421042 640.626911396 c 0
 533.984354801 645.180873631 520.564023497 648 504 648 c 0
 397.300219029 648 234.658020236 519.317011328 164.343848595 349.625477101 c 0
 142.014092584 295.736332594 132.92640299 249.704580598 132.92640299 212.05181188 c 0
 132.92640299 148.273212522 159.000519762 108.535331782 190.958578958 95.3730886037 c 0
 202.015645199 90.8191263686 215.435976503 88 232 88 c 0
 254.879124452 88 280.330379278 93.9166091983 306.891983828 104.885455706 c 1
 307.34542977 121.213245453 309.179189175 132.141768814 309.103286772 132.414474677 c 0
 297.553450529 142.237523034 291.147282739 156.32642721 291.147282739 170.575325725 c 0
 291.147282739 179.810245522 293.838210128 189.112371356 299.563770548 197.363914314 c 0
416.359815917 52.0901464979 m 1
 418.796414614 51.5383470694 421.697398734 51.0487848496 425.127667781 50.6072650712 c 0
 449.058345969 47.5270787699 466.98992635 26.452784071 466.98992635 2.83720058589 c 0
 466.98992635 0.863652924573 466.864694024 -1.12764283798 466.607265071 -3.12766778144 c 0
 463.526862305 -27.0600277363 442.451241341 -44.9899096356 418.836980851 -44.9899096356 c 0
 416.863487949 -44.9899096356 414.872264445 -44.8646820904 412.872332219 -44.6072650712 c 0
 368.942477602 -38.9529273482 342.815598824 -17.4376862764 327.488619901 8.74930813508 c 1
 295.677251462 -2.10654122879 263.588053269 -8 232 -8 c 0
 204.387440004 -8 178.154248075 -3.1767142054 154.399372495 6.60696655944 c 0
 73.4672313855 39.9396703905 37.360255518 117.261570678 37.360255518 209.045135362 c 0
 37.360255518 265.009519761 50.784341835 326.350555804 75.6561514046 386.374522899 c 0
 155.341979764 578.682988672 336.699780971 744 504 744 c 0
 531.612559996 744 557.845751925 739.176714205 581.600627505 729.393033441 c 0
 662.532768614 696.060329609 698.639744482 618.738429322 698.639744482 526.954864638 c 0
 698.639744482 470.990480239 685.215658165 409.649444196 660.343848595 349.625477101 c 0
 609.935947506 227.974409139 518.842861303 117.124275689 416.359815917 52.0901464979 c 1
EndSplineSet
EndChar

StartChar: R
Encoding: 82 82 50
Width: 704
VWidth: 0
Flags: HW
AnchorPoint: "above" -152 0 basechar 0
LayerCount: 2
Fore
SplineSet
222.580789721 432 m 1
 415 432 l 2
 497.922507117 432 572.401923105 463.669190454 609.599048718 554.236104991 c 0
 619.259673489 577.757626172 623.066605645 593.34193943 623.066605645 604.037435818 c 0
 623.066605645 622.066329297 612.24949201 626.204014464 600.418544583 631.051237814 c 0
 587.609100945 636.299358024 566.790979943 640 541 640 c 2
 309.030789721 640 l 1
 222.580789721 432 l 1
182.680789721 336 m 1
 55.3240668788 29.5778097035 l 2
 47.7240988776 11.2921724073 29.4930849095 0.091530669426 10.6055878369 0.091530669426 c 0
 4.55437344789 0.091530669426 -1.5642254105 1.24121646542 -7.42219029651 3.67593312117 c 0
 -25.7067438984 11.2754507119 -36.9085389007 29.5061253644 -36.9085389007 48.3943318345 c 0
 -36.9085389007 54.4454445873 -35.7588597156 60.5640421177 -33.3240668788 66.4221902965 c 2
 113.686034131 420.130704005 l 1
 232.675933121 706.422190297 l 2
 240.274651871 724.704821874 259.457509651 736 277 736 c 2
 541 736 l 2
 574.83634925 736 607.280062282 731.984890269 636.814184773 719.884550119 c 0
 688.416951455 698.742529404 715.863595265 654.368984199 715.863595265 599.090270766 c 0
 715.863595265 573.86226 710.14697416 546.362907234 698.400951282 517.763895009 c 0
 654.809429269 411.628015324 570.271054244 359.336290555 482.611570641 342.382956056 c 1
 486.994654491 48.7163381267 l 2
 487.384855301 22.5728838356 465.857898261 0.395518048556 439.716338127 0.00534550923201 c 0
 439.482806136 0.00185995713399 439.249590359 0.000123346752315 439.016703504 0.000123346752315 c 0
 413.180246703 0.000123346752315 391.392060515 21.3737564939 391.005345509 47.2836618733 c 2
 386.696146433 336 l 1
 182.680789721 336 l 1
EndSplineSet
EndChar

StartChar: S
Encoding: 83 83 51
Width: 672
VWidth: 0
Flags: HW
AnchorPoint: "bottom" -152 0 basechar 0
AnchorPoint: "above" -152 0 basechar 0
LayerCount: 2
Fore
SplineSet
618.138540396 528.155573682 m 0
 591.46684573 530.308210456 572.87808263 553.698951648 574.133144941 579.930441017 c 0
 574.136413236 580.030387594 574.12343504 580.075613025 574.12343504 580.075613025 c 2
 574.13337559 589.101632639 581.116546775 648 472 648 c 0
 373.822019489 648 283.464343589 597.914424613 253.307692308 525.538461538 c 0
 250.344481497 518.426755592 248.347501906 511.625491585 247.395222984 505.698731578 c 0
 246.921359547 502.749517013 246.354272704 499.254349194 246.354272704 495.384536077 c 0
 246.354272704 476.324027177 260.111742566 448.174660962 366.527505883 431.406116439 c 0
 397.360212219 426.472883426 423.713980449 419.468470861 446.734301935 410.057837491 c 0
 522.145583911 379.229948006 548.137460246 323.851572669 548.137460246 269.949425461 c 0
 548.137460246 244.616680007 542.396427565 219.610000813 533.346314604 197.63115505 c 0
 484.969909196 81.5277820713 354.279533331 -8 200 -8 c 0
 0.977448136265 -8 -10.8311658208 160.837905984 -11.0042896353 167.546850867 c 0
 -10.8173265645 194.541871438 10.2130991424 215.324744852 35.7617758308 215.984026518 c 0
 36.174477287 215.994676248 36.5862714556 215.999971895 36.9970865389 215.999971895 c 0
 62.022700274 215.999971895 83.4150477139 196.348471128 84.9438731174 170.255306452 c 0
 85.3407553021 164.014838277 85.0122432638 88 200 88 c 0
 317.720466669 88 413.030090804 158.472217929 444.653685396 234.36884495 c 0
 451.177438889 250.21224629 455.514288854 263.34909763 455.514288854 274.740265607 c 0
 455.514288854 293.540832327 443.700756717 307.586176554 410.407939416 321.196173168 c 0
 395.941359869 327.11006435 376.367341961 332.610707906 351.472494117 336.593883561 c 0
 217.145482898 357.760564116 150.749764819 420.797317326 150.749764819 498.120952022 c 0
 150.749764819 505.598072017 151.37061134 513.208784373 152.610915911 520.928148265 c 0
 155.008740331 535.851643422 159.373309914 549.695943794 164.692307692 562.461538462 c 0
 214.535656411 682.085575387 346.177980511 744 472 744 c 0
 647.605385479 744 670.12342019 612.920894746 670.12342019 580.048774247 c 0
 670.120983832 575.617127931 670.027714215 574.409462129 669.781254371 571.355764542 c 0
 667.122364892 547.980049451 646.880487405 528.002218808 621.932427735 528.002218808 c 0
 620.679131339 528.002218808 619.413958051 528.05263643 618.138540396 528.155573682 c 0
EndSplineSet
EndChar

StartChar: T
Encoding: 84 84 52
Width: 688
VWidth: 0
Flags: HW
AnchorPoint: "bottom" -152 0 basechar 0
AnchorPoint: "above" -152 0 basechar 0
LayerCount: 2
Fore
SplineSet
181 688 m 0
 181 714.144471708 202.853633925 736 229 736 c 2
 725 736 l 2
 751.144471708 736 773 714.146366075 773 688 c 0
 773 661.853633925 751.144471708 640 725 640 c 2
 508.86933533 640 l 1
 255.328221046 29.5878078729 l 2
 247.731383541 11.2980632382 229.497747383 0.0913721576053 210.605698847 0.0913721576053 c 0
 204.558097811 0.0913721576053 198.443027484 1.23975200001 192.587807873 3.67177895433 c 0
 174.296979009 11.2690668054 163.09144171 29.5030429419 163.09144171 48.3943817976 c 0
 163.09144171 54.4420842516 164.23982811 60.5571557559 166.671778954 66.4121921271 c 2
 404.917498525 640 l 1
 229 640 l 2
 202.853633925 640 181 661.855528292 181 688 c 0
EndSplineSet
EndChar

StartChar: U
Encoding: 85 85 53
Width: 712
VWidth: 0
Flags: HW
AnchorPoint: "above" -152 0 basechar 0
LayerCount: 2
Fore
SplineSet
719.408174494 732.329889598 m 0
 737.700004819 724.734129548 748.908663578 706.499303637 748.908663578 687.605711272 c 0
 748.908663578 681.559521243 747.760805617 675.445868162 745.329889598 669.591825506 c 2
 549.352546201 197.646386305 l 2
 500.229236956 78.5223613853 355.43688784 -8 220 -8 c 0
 185.474767462 -8 153.499575304 -2.22338889889 125.244960153 9.38262438801 c 0
 59.6981178742 36.3069876583 21.4741674769 94.2745045047 21.4741674769 160.761609517 c 0
 21.4741674769 184.545736156 26.3655895554 209.420092905 36.6474537988 234.353613695 c 2
 232.670110402 706.408174494 l 2
 240.265870452 724.700004819 258.500696363 735.908663578 277.394288728 735.908663578 c 0
 283.440478757 735.908663578 289.554131838 734.760805617 295.408174494 732.329889598 c 0
 313.701089264 724.733679228 324.908594034 706.498513073 324.908594034 687.605630501 c 0
 324.908594034 681.559339141 323.760729535 675.445684944 321.329889598 669.591825506 c 2
 125.352546201 197.646386305 l 2
 119.115849416 182.522396601 116.160263509 169.107315221 116.160263509 157.277126911 c 0
 116.160263509 129.210298692 132.796188172 110.06426065 161.721040451 98.1829372594 c 0
 176.671326413 92.0418797159 196.192854315 88 220 88 c 0
 318.56311216 88 429.770763044 159.477638615 460.647453799 234.353613695 c 2
 656.670110402 706.408174494 l 2
 664.266320772 724.701089264 682.501486927 735.908594034 701.394369499 735.908594034 c 0
 707.440660859 735.908594034 713.554315056 734.760729535 719.408174494 732.329889598 c 0
EndSplineSet
EndChar

StartChar: V
Encoding: 86 86 54
Width: 688
VWidth: 0
Flags: HW
AnchorPoint: "above" -152 0 basechar 0
LayerCount: 2
Fore
SplineSet
230.948392858 735.960439586 m 0
 257.071316938 734.899195795 278.021760272 712.176424028 276.960439586 686.051607142 c 2
 256.089523316 172.305975888 l 1
 687.346720307 717.769624257 l 2
 696.712993844 729.616294342 710.911704431 735.818009699 725.187971268 735.818009699 c 0
 735.626658416 735.818009699 746.106810333 732.502316951 754.769624257 725.653279693 c 0
 766.616798897 716.286607243 772.817972375 702.088074566 772.817972375 687.812316347 c 0
 772.817972375 677.373262986 769.502100446 666.892915827 762.653279693 658.230375743 c 2
 256.653279693 18.2303757431 l 2
 247.647907899 6.84018216977 233.567787282 0 219 0 c 2
 203 0 l 2
 178.789814833 0 153.888374312 21.6115041806 155.039560414 49.9483928582 c 2
 181.039560414 689.948392858 l 2
 182.075053875 715.437462666 203.732292492 735.999056324 229.047590421 735.999056324 c 0
 229.67900329 735.999056324 230.312691841 735.98626494 230.948392858 735.960439586 c 0
EndSplineSet
EndChar

StartChar: W
Encoding: 87 87 55
Width: 872
VWidth: 0
Flags: HW
AnchorPoint: "above" -152 0 basechar 0
LayerCount: 2
Fore
SplineSet
236.265317601 735.446972086 m 0
 259.738797574 731.852595465 276.985648645 710.97199681 276.985648645 687.805483553 c 0
 276.985648645 685.466703017 276.809869476 683.104624537 276.446972086 680.734682399 c 2
 207.088375207 227.780580329 l 1
 524.812189188 714.247663937 l 2
 533.732852871 727.906096369 549.830165995 736 565 736 c 2
 573 736 l 2
 601.9848114 736 620.868304734 709.934986447 620.868304734 686.662049418 c 0
 620.868304734 684.261952632 620.667470631 681.891550785 620.256170018 679.582494716 c 2
 540.085670673 229.502498391 l 1
 869.272924353 714.939923173 l 2
 878.459674266 728.48720415 893.792504567 735.835445908 909.285177034 735.835445908 c 0
 918.538186798 735.835445908 927.84821361 733.214266194 935.939923173 727.727075647 c 0
 949.487841792 718.539893333 956.835390168 703.207161626 956.835390168 687.715034329 c 0
 956.835390168 678.461721932 954.214101867 669.151544064 948.727075647 661.060076827 c 2
 514.727075647 21.0600768271 l 2
 506.606632143 9.08522926445 491.124892658 0 475 0 c 2
 459 0 l 2
 436.05051769 0 411.013084986 20.7343379391 411.013084986 48.2393474475 c 0
 411.013084986 50.9060001838 411.248426814 53.6362945182 411.743829982 56.4175052845 c 2
 487.462078928 481.502411647 l 1
 187.187810812 21.7523360634 l 2
 178.892546126 9.0514523335 163.313522522 0 147 0 c 2
 131 0 l 2
 109.768452018 0 83.0094906081 19.8348542375 83.0094906081 48.2101069246 c 0
 83.0094906081 50.507841534 83.1849552076 52.8615774797 83.5530279137 55.2653176007 c 2
 181.553027914 695.265317601 l 2
 185.147654809 718.74043202 206.029477717 735.985626474 229.194751468 735.985626474 c 0
 231.533478994 735.985626474 233.895480789 735.809853348 236.265317601 735.446972086 c 0
EndSplineSet
EndChar

StartChar: X
Encoding: 88 88 56
Width: 632
VWidth: 0
Flags: HW
AnchorPoint: "above" -152 0 basechar 0
LayerCount: 2
Fore
SplineSet
-72.5626736993 15.7618821989 m 0
 -80.7680188439 24.8134035615 -84.8088314298 36.376059524 -84.8088314298 47.9183398901 c 0
 -84.8088314298 61.0764077929 -79.5574965272 74.2079961006 -69.2381178011 83.5626736993 c 2
 261.961849465 383.800604366 l 1
 182.681330291 675.407111673 l 2
 181.572549668 679.48538523 181.04422576 683.605240172 181.04422576 687.675646056 c 0
 181.04422576 708.787084904 195.25639913 728.568319736 216.407111673 734.318669709 c 0
 220.485235155 735.42740953 224.605025531 735.95572498 228.675425754 735.95572498 c 0
 249.785937389 735.95572498 269.567942614 721.744987986 275.318669709 700.592888327 c 2
 341.775729064 456.153129781 l 1
 636.761882199 723.562673699 l 2
 645.813403562 731.768018844 657.376059524 735.80883143 668.91833989 735.80883143 c 0
 682.076407793 735.80883143 695.207996101 730.557496527 704.562673699 720.238117801 c 0
 712.76829802 711.186288473 716.808847815 699.623852652 716.808847815 688.08198852 c 0
 716.808847815 674.923445852 711.557096725 661.791641472 701.238117801 652.437326301 c 2
 370.038150535 352.199395634 l 1
 449.318669709 60.592888327 l 2
 450.42740953 56.5147648452 450.95572498 52.3949744694 450.95572498 48.3245742457 c 0
 450.95572498 27.2140626112 436.744987986 7.43205738601 415.592888327 1.68133029131 c 0
 411.51461477 0.5725496679 407.394759828 0.0442257595726 403.324353944 0.0442257595726 c 0
 382.212915096 0.0442257595726 362.431680264 14.2563991298 356.681330291 35.407111673 c 2
 290.224270936 279.846870219 l 1
 -4.76188219892 12.4373263007 l 2
 -13.8137115272 4.23170198045 -25.3761473475 0.191152185002 -36.9180114796 0.191152185002 c 0
 -50.076554148 0.191152185002 -63.2083585279 5.44290327548 -72.5626736993 15.7618821989 c 0
EndSplineSet
EndChar

StartChar: Y
Encoding: 89 89 57
Width: 656
VWidth: 0
Flags: HW
AnchorPoint: "middle" -152 0 basechar 0
AnchorPoint: "above" -152 0 basechar 0
LayerCount: 2
Fore
SplineSet
213.19631883 733.323764864 m 0
 218.270987519 735.09322171 223.478565438 735.931052905 228.624751481 735.931052905 c 0
 248.513265937 735.931052905 267.484832562 723.417222867 274.323764864 703.80368117 c 2
 357.28027722 465.890664602 l 1
 661.930679525 724.588212928 l 2
 670.812635485 732.130432513 681.854974413 735.812330586 692.865981264 735.812330586 c 0
 706.560736133 735.812330586 720.207024279 730.116904475 729.588212928 719.069320475 c 0
 737.130679653 710.187073476 740.812357377 699.144945051 740.812357377 688.134331467 c 0
 740.812357377 674.439085206 735.116456552 660.792595362 724.069320475 651.411787072 c 2
 374.868058983 354.88334156 l 1
 239.307692308 29.5384615385 l 2
 231.697644306 11.2743463342 213.478634754 0.0918112799092 194.605550749 0.0918112799092 c 0
 188.540613 0.0918112799092 182.408130106 1.24661245603 176.538461538 3.69230769231 c 0
 158.273264746 11.3028063558 147.091880921 29.5221526184 147.091880921 48.3945283358 c 0
 147.091880921 54.4595685807 148.246688915 60.5920533967 150.692307692 66.4615384615 c 2
 283.634644121 385.523145891 l 1
 183.676235136 672.19631883 l 2
 181.906719261 677.271156809 181.06888448 682.478768822 181.06888448 687.624906907 c 0
 181.06888448 707.51421477 193.583999788 726.485258882 213.19631883 733.323764864 c 0
EndSplineSet
EndChar

StartChar: Z
Encoding: 90 90 58
Width: 632
VWidth: 0
Flags: HW
AnchorPoint: "above" -152 0 basechar 0
LayerCount: 2
Fore
SplineSet
189 688 m 0
 189 714.144471708 210.853633925 736 237 736 c 2
 661 736 l 2
 687.354847908 736 708.996663789 713.865582227 708.996663789 687.910164833 c 0
 708.996663789 673.28009391 701.162318947 659.702021264 693.439372373 652.620809506 c 2
 86.3748020061 96 l 1
 403 96 l 2
 429.144471708 96 451 74.1463660754 451 48 c 0
 451 21.8536339246 429.144471708 0 403 0 c 2
 -37 0 l 2
 -47.0312756861 0 -60.6931629897 4.46775097218 -69.7250352447 12.8848740821 c 0
 -79.765160757 22.2416242762 -84.7780879868 35.1181189336 -84.7780879868 47.9926259623 c 0
 -84.7780879868 61.0011218884 -79.6602756904 74.0075885989 -69.4393723731 83.3791904944 c 2
 537.625197994 640 l 1
 237 640 l 2
 210.853633925 640 189 661.855528292 189 688 c 0
EndSplineSet
EndChar

StartChar: bracketleft
Encoding: 91 91 59
Width: 312
VWidth: 0
Flags: HW
LayerCount: 2
Fore
SplineSet
446 768 m 0
 446 741.855528292 424.146366075 720 398 720 c 2
 310.049283235 720 l 1
 17.8892832354 16 l 1
 66 16 l 2
 92.1444717079 16 114 -5.85363392464 114 -32 c 0
 114 -58.1463660754 92.1444717079 -80 66 -80 c 2
 -54 -80 l 2
 -58.3179284992 -80 -64.1132663226 -79.1877116319 -68.863539694 -77.6407185281 c 0
 -89.070170291 -71.0601460559 -101.906531503 -51.7441517962 -101.906531503 -31.5705955997 c 0
 -101.906531503 -25.5520711991 -100.764029275 -19.4572193714 -98.3338806418 -13.6014395336 c 2
 233.666119358 786.398560466 l 2
 240.400787401 802.626676232 258.198331795 816 278 816 c 2
 398 816 l 2
 424.146366075 816 446 794.144471708 446 768 c 0
EndSplineSet
EndChar

StartChar: backslash
Encoding: 92 92 60
Width: 576
VWidth: 0
Flags: HW
LayerCount: 2
Fore
SplineSet
337.392544267 0.42757754962 m 0
 335.306391986 0.147250836916 333.228927529 0.0110184090285 331.170457075 0.0110184090285 c 0
 307.661176366 0.0110184090285 286.629351412 17.7803014116 283.42757755 41.6074557332 c 2
 197.42757755 681.607455733 l 2
 197.147250837 683.693608014 197.011018409 685.771072471 197.011018409 687.829542925 c 0
 197.011018409 711.338823634 214.780301412 732.370648588 238.607455733 735.57242245 c 0
 240.69370378 735.852762032 242.771241761 735.98899954 244.829766863 735.98899954 c 0
 268.340350554 735.98899954 289.370873122 718.218027641 292.57242245 694.392544267 c 2
 378.57242245 54.3925442668 l 2
 378.852762032 52.30629622 378.98899954 50.2287582386 378.98899954 48.1702331367 c 0
 378.98899954 24.659649446 361.218027641 3.62912687804 337.392544267 0.42757754962 c 0
EndSplineSet
EndChar

StartChar: bracketright
Encoding: 93 93 61
Width: 312
VWidth: 0
Flags: HW
LayerCount: 2
Fore
SplineSet
198 768 m 0
 198 794.144471708 219.853633925 816 246 816 c 2
 366 816 l 2
 392.354847908 816 413.996663789 793.865582227 413.996663789 767.910164833 c 0
 413.996663789 761.815903652 410.468759459 750.162423431 410.333880642 749.601439534 c 2
 78.3338806418 -50.3985604664 l 2
 70.7438350209 -68.687827023 51.570073846 -80 34 -80 c 2
 -86 -80 l 2
 -112.144471708 -80 -134 -58.1463660754 -134 -32 c 0
 -134 -5.85363392464 -112.144471708 16 -86 16 c 2
 1.95071676461 16 l 1
 294.110716765 720 l 1
 246 720 l 2
 219.853633925 720 198 741.855528292 198 768 c 0
EndSplineSet
EndChar

StartChar: asciicircum
Encoding: 94 94 62
Width: 512
VWidth: 0
Flags: HW
LayerCount: 2
Fore
SplineSet
110.779537965 414.340529146 m 0
 101.713812079 423.557350464 97.1931162005 435.773671613 97.1931162005 447.986267894 c 0
 97.1931162005 460.471077245 101.917586468 472.951993826 111.340529146 482.220462035 c 2
 355.340529146 722.220462035 l 2
 364.578698097 731.307185593 376.756869237 735.780122104 388.914069673 735.780122104 c 0
 402.642724024 735.780122104 416.344635887 730.076095774 425.755801165 718.87087755 c 0
 431.147239907 712.451667404 435.175054616 702.317883914 436.213114754 696.655737705 c 2
 480.213114754 456.655737705 l 2
 480.730138619 453.83560753 480.979349007 451.018818454 480.979349007 448.232335307 c 0
 480.979349007 425.60976123 464.553140313 404.984742391 441.655737705 400.786885246 c 0
 438.835488427 400.269839545 436.018620753 400.020621758 433.232091048 400.020621758 c 0
 410.608371028 400.020621758 389.984453872 416.448433428 385.786885246 439.344262295 c 2
 358.113236294 590.291438398 l 1
 178.659470854 413.779537965 l 2
 169.442319272 404.71348723 157.226223176 400.193113412 145.014069292 400.193113412 c 0
 132.528807722 400.193113412 120.047666658 404.917931642 110.779537965 414.340529146 c 0
EndSplineSet
EndChar

StartChar: underscore
Encoding: 95 95 63
Width: 576
VWidth: 0
Flags: HW
LayerCount: 2
Fore
SplineSet
-192 -96 m 0
 -192 -69.8555282921 -170.146366075 -48 -144 -48 c 2
 336 -48 l 2
 362.144471708 -48 384 -69.8536339246 384 -96 c 0
 384 -122.146366075 362.144471708 -144 336 -144 c 2
 -144 -144 l 2
 -170.146366075 -144 -192 -122.144471708 -192 -96 c 0
EndSplineSet
EndChar

StartChar: grave
Encoding: 96 96 64
Width: 384
VWidth: 0
Flags: HW
LayerCount: 2
Fore
SplineSet
229.104388438 733.291605547 m 0
 234.207062621 735.082447929 239.446221601 735.930290461 244.623715062 735.930290461 c 0
 264.477214098 735.930290461 283.423984379 723.463628043 290.291605547 703.895611562 c 2
 363.291605547 495.895611562 l 2
 365.082447929 490.792937379 365.930290461 485.553778399 365.930290461 480.376284938 c 0
 365.930290461 460.522785902 353.463628043 441.576015621 333.895611562 434.708394453 c 0
 328.792767584 432.91749248 323.553575606 432.069646611 318.376131856 432.069646611 c 0
 298.521842719 432.069646611 279.575588209 444.537589789 272.708394453 464.104388438 c 2
 199.708394453 672.104388438 l 2
 197.91749248 677.207232416 197.069646611 682.446424394 197.069646611 687.623868144 c 0
 197.069646611 707.478157281 209.537589789 726.424411791 229.104388438 733.291605547 c 0
EndSplineSet
EndChar

StartChar: a
Encoding: 97 97 65
Width: 588
VWidth: 0
Flags: HW
AnchorPoint: "above" -152 0 basechar 0
LayerCount: 2
Fore
SplineSet
508.374038884 524.344049151 m 0
 526.683584198 516.757455144 537.908967105 498.512527261 537.908967105 479.605819073 c 0
 537.908967105 473.571614577 536.765537665 467.470000435 534.344049151 461.625961116 c 2
 355.344049151 29.6259611158 l 2
 347.757455144 11.3164158024 329.512527261 0.0910328950784 310.605819073 0.0910328950784 c 0
 304.571614577 0.0910328950784 298.470000435 1.23446233525 292.625961116 3.65595084928 c 0
 281.982468733 8.0661016283 273.733326118 16.077447045 268.691203532 25.7264737076 c 1
 230.118252651 4.52973499347 189.142129772 -8 148 -8 c 0
 50.310966412 -8 -5.90063194694 70.0032618566 -5.90063194694 159.666147494 c 0
 -5.90063194694 159.953068371 -5.89890464814 160.240108641 -5.89890464814 160.527266132 c 0
 -5.74481954454 198.946075366 3.24294359048 240.036962749 20.6080407311 282.257983248 c 0
 76.7138120242 418.672015411 207.799476882 536 334 536 c 0
 380.068580253 536 416.734347901 518.827720514 442.727919383 491.307504843 c 1
 445.655950849 498.374038884 l 2
 453.242994955 516.684670469 471.488265348 527.908897623 490.394262774 527.908897623 c 0
 496.428567857 527.908897623 502.530182602 526.765461823 508.374038884 524.344049151 c 0
319.755199033 194.524179752 m 1
 392.198342579 369.35902898 l 2
 392.198342579 369.524588006 392.199004183 369.689807296 392.199004183 369.85468734 c 0
 392.199004183 421.696295481 370.404535055 440 334 440 c 0
 266.200523118 440 155.286187976 357.327984589 109.391959269 245.742016752 c 0
 95.959272476 213.082150825 90.194677971 183.668177133 90.1003232591 160.142245063 c 0
 90.1003232591 159.870727074 90.0986900837 159.600101202 90.0986900837 159.330365414 c 0
 90.0986900837 106.761506752 110.768851934 88 148 88 c 0
 194.703978672 88 265.478366973 127.330568081 319.755199033 194.524179752 c 1
EndSplineSet
EndChar

StartChar: b
Encoding: 98 98 66
Width: 588
VWidth: 0
Flags: HW
LayerCount: 2
Fore
SplineSet
295.415241976 732.326954136 m 0
 313.703403231 724.729298909 324.908600713 706.496566021 324.908600713 687.605689451 c 0
 324.908600713 681.557017248 323.75982461 675.440871023 321.326954136 669.584758024 c 2
 256.642847427 513.884961345 l 1
 288.223270064 527.967442129 321.058420866 536 354 536 c 0
 375.593269346 536 396.399999348 532.260568825 415.406852825 524.501153162 c 0
 479.998379865 498.132111739 507.56681648 438.158679913 507.56681648 369.523424158 c 0
 507.56681648 329.558345718 498.219671798 286.656455059 481.391959269 245.742016752 c 0
 425.283412329 109.321235958 294.194234581 -8 168 -8 c 0
 119.305511136 -8 81.1159826963 11.1861529497 54.9309484719 41.4991265483 c 1
 48.0865572647 29.256857093 43.7157856532 22.559535343 42.7407587981 21.0688043977 c 0
 33.0277401473 7.229114237 17.9757690344 0.0443556552859 2.82786470828 0.0443556552859 c 0
 -6.20976408317 0.0443556552859 -15.281541473 2.60185818205 -23.2739749778 7.82938587893 c 0
 -37.1172010098 16.8836804755 -44.8882763125 32.168195538 -44.8882763125 48.0051754965 c 0
 -44.8882763125 56.6355301147 -42.5805002448 65.4299502214 -37.6900049494 73.4695839247 c 0
 -36.5244891342 75.2757509993 -18.1691877342 103.53179787 6.72345134929 162.536571993 c 2
 232.673045864 706.415241976 l 2
 240.271151457 724.704487297 258.504224121 735.908531156 277.394391097 735.908531156 c 0
 283.443164785 735.908531156 289.559312233 734.759748478 295.415241976 732.326954136 c 0
181.103514042 332.05576948 m 1
 109.815214762 160.459155282 l 1
 109.161734816 106.847316302 131.057747052 88 168 88 c 0
 235.805765419 88 346.716587671 170.678764042 392.608040731 282.257983248 c 0
 406.788677544 316.736394322 412.239178827 344.965585662 412.239178827 367.447430307 c 0
 412.239178827 407.302800315 395.10961707 429.095697709 379.12266333 435.622260321 c 0
 372.772643588 438.214611691 364.650497967 440 354 440 c 0
 306.967585716 440 235.525409778 400.113974956 181.103514042 332.05576948 c 1
EndSplineSet
EndChar

StartChar: c
Encoding: 99 99 67
Width: 528
VWidth: 0
Flags: HW
AnchorPoint: "middle" -152 0 basechar 0
AnchorPoint: "bottom" -152 0 basechar 0
AnchorPoint: "above" -152 0 basechar 0
LayerCount: 2
Fore
SplineSet
356.329720344 168.541710175 m 0
 365.961292868 159.248087564 370.807098805 146.613456135 370.807098805 133.969821948 c 0
 370.807098805 121.915717404 366.40264478 109.853430065 357.541710175 100.670279656 c 0
 297.322584344 38.2613674319 221.821115715 -8 144 -8 c 0
 123.163711475 -8 103.030433959 -4.40562175461 84.6014848387 3.07841930592 c 0
 20.6885222635 29.0336288565 -6.14099580235 88.3057291742 -6.14099580235 156.175481406 c 0
 -6.14099580235 196.887811612 3.51311468249 240.693849325 20.6080407311 282.257983248 c 0
 76.4921429471 418.133055302 205.225962516 536 330 536 c 0
 405.44133418 536 459.67831178 486.027235676 474.8343801 418.513840431 c 0
 475.601595976 415.096242441 475.96922895 411.667839425 475.96922895 408.279096697 c 0
 475.96922895 386.373634515 460.607429123 366.125405116 438.513840431 361.1656199 c 0
 435.096107405 360.39837371 431.667628966 360.030732164 428.278855101 360.030732164 c 0
 406.372358322 360.030732164 386.125071042 375.394059024 381.1656199 397.486159569 c 0
 374.32168822 427.972764324 360.55866582 440 330 440 c 0
 264.774037484 440 155.507857053 357.866944698 109.391959269 245.742016752 c 0
 94.8262762044 210.327414792 89.3115487267 181.536001951 89.3115487267 158.794006404 c 0
 89.3115487267 119.267032445 105.970745218 98.0144758092 120.722414934 92.0237868584 c 0
 126.555034659 89.6551458019 134.05416562 88 144 88 c 0
 182.178884285 88 238.677415656 115.738632568 288.458289825 167.329720344 c 0
 297.752257346 176.96165032 310.386665354 181.807092787 323.029841813 181.807092787 c 0
 335.084382851 181.807092787 347.146894871 177.402331245 356.329720344 168.541710175 c 0
EndSplineSet
EndChar

StartChar: d
Encoding: 100 100 68
Width: 592
VWidth: 0
Flags: HW
AnchorPoint: "above" -152 0 basechar 0
LayerCount: 2
Fore
SplineSet
599.415241976 732.326954136 m 0
 617.703403231 724.729298909 628.908600713 706.496566021 628.908600713 687.605689451 c 0
 628.908600713 681.557017248 627.75982461 675.440871023 625.326954136 669.584758024 c 2
 399.276548651 125.463428007 l 2
 375.245337207 68.5005564372 370.878984836 43.0771418217 370.098078272 38.7368322497 c 0
 365.792105709 16.3818940489 345.276527464 0.0196096362958 322.752008915 0.0196096362958 c 0
 320.341291716 0.0196096362958 317.907562827 0.2070337371 315.468231532 0.594594572438 c 0
 298.811395346 3.24103188113 285.256595865 14.3167159053 278.929677691 29.2419267527 c 1
 238.551054843 5.92201858876 195.367754075 -8 152 -8 c 0
 54.310966412 -8 -1.90063194694 70.0032618566 -1.90063194694 159.666147494 c 0
 -1.90063194694 198.67650643 7.11445584766 239.724561178 24.6080407311 282.257983248 c 0
 80.7138120242 418.672015411 211.799476882 536 338 536 c 0
 384.306976814 536 421.113573523 518.649533788 447.13059792 490.879438076 c 1
 536.673045864 706.415241976 l 2
 544.271151457 724.704487297 562.504224121 735.908531156 581.394391097 735.908531156 c 0
 587.443164785 735.908531156 593.559312233 734.759748478 599.415241976 732.326954136 c 0
324.286118205 195.182991327 m 1
 396.192269959 368.266825637 l 1
 396.639625432 421.323101953 374.773787716 440 338 440 c 0
 270.200523118 440 159.286187976 357.327984589 113.391959269 245.742016752 c 0
 99.8042078931 212.705131054 94.0986900837 183.525948809 94.0986900837 159.330365414 c 0
 94.0986900837 106.761506752 114.768851934 88 152 88 c 0
 198.856411584 88 269.940611694 127.58772205 324.286118205 195.182991327 c 1
EndSplineSet
EndChar

StartChar: e
Encoding: 101 101 69
Width: 544
VWidth: 0
Flags: HW
AnchorPoint: "bottom" -152 0 basechar 0
AnchorPoint: "above" -152 0 basechar 0
LayerCount: 2
Fore
SplineSet
162.391141993 336 m 1
 369.755336405 336 l 1
 375.655161143 354.382929209 378.5479551 369.305527539 378.5479551 383.442195101 c 0
 378.5479551 391.068444013 377.706084461 398.465968707 376.040278041 406.0546424 c 0
 370.969122832 430.90330292 361.21667606 440 326 440 c 0
 282.523915289 440 215.327970559 403.009714121 162.391141993 336 c 1
107.069473561 240 m 1
 93.0610098831 204.485584549 87.8068498341 176.346224619 87.8068498341 154.501329823 c 0
 87.8068498341 115.965634849 104.157302257 97.0177239822 117.643862534 91.7256017043 c 0
 123.206988667 89.5426326491 130.437559806 88 140 88 c 0
 225.190816074 88 299.045095707 157.870612971 303.259383708 162.144455233 c 0
 312.266574229 170.853386654 324.773762408 175.62064185 337.409197056 175.62064185 c 0
 349.208753361 175.62064185 361.12014947 171.4632651 370.397502607 162.476177566 c 0
 380.089982315 153.086951754 384.641880105 140.698763043 384.641880105 128.377457798 c 0
 384.641880105 116.273909406 380.249453738 104.23490128 372.022621702 95.1665857212 c 0
 368.211582665 91.2324574692 275.918787833 -8 140 -8 c 0
 119.244760741 -8 99.1384315535 -4.43451659611 80.6987323156 3.11222331966 c 0
 18.5794921631 28.5355094128 -7.53292756543 85.6547510442 -7.53292756543 152.149408011 c 0
 -7.53292756543 193.708164282 2.66703791522 238.929120908 20.6514142116 282.363086303 c 0
 28.7512424461 301.924935624 38.1171987307 320.745586777 48.5182652722 338.692545667 c 0
 112.62894807 449.315026924 219.254957974 536 326 536 c 0
 393.371962778 536 454.012640927 500.950902409 470.488816652 423.470785243 c 0
 473.17849109 410.853181996 474.400682876 398.13716829 474.400682876 385.384166022 c 0
 474.400682876 346.533358249 463.058031277 307.339275065 447.307692308 269.538461538 c 0
 439.694553796 251.266929112 420.496591343 240 403 240 c 2
 107.069473561 240 l 1
EndSplineSet
EndChar

StartChar: f
Encoding: 102 102 70
Width: 376
VWidth: 0
Flags: HW
AnchorPoint: "above" -152 0 basechar 0
LayerCount: 2
Fore
SplineSet
82 480 m 0
 82 506.144471708 103.853633925 528 130 528 c 2
 194.198661018 528 l 1
 241.631895144 642.316078897 l 2
 274.87052433 723.244915177 359.358831161 752 407 752 c 0
 430.985888611 752 447.564031896 747.1144337 450.923528957 746.234216129 c 0
 472.584224111 739.794592644 485.99765215 720.542956495 485.99765215 699.941687931 c 0
 485.99765215 695.928838812 485.488722776 691.864782233 484.432683271 687.834231457 c 0
 478.863529447 666.578627693 459.210044991 652.04820914 437.745001153 652.04820914 c 0
 434.249372413 652.04820914 430.705699622 652.433567839 427.166988557 653.237995836 c 0
 423.774965245 654.07629908 415.296177149 656 407 656 c 0
 390.641168839 656 343.12947567 636.755084823 330.368104856 605.683921103 c 2
 298.134672315 528 l 1
 338 528 l 2
 364.144471708 528 386 506.146366075 386 480 c 0
 386 453.853633925 364.144471708 432 338 432 c 2
 258.301338982 432 l 1
 91.3349705504 29.604066039 l 2
 83.7420447019 11.3047970485 65.503253936 0.0912970831655 46.6056683119 0.0912970831655 c 0
 40.5636756769 0.0912970831655 34.454339192 1.23757236009 28.604066039 3.66502944963 c 0
 10.3058821481 11.2575050571 -0.908772439114 29.4959547664 -0.908772439114 48.394250531 c 0
 -0.908772439114 54.4361421026 0.237496364302 60.5454776549 2.66502944963 66.395933961 c 2
 154.365327685 432 l 1
 130 432 l 2
 103.853633925 432 82 453.855528292 82 480 c 0
EndSplineSet
EndChar

StartChar: g
Encoding: 103 103 71
Width: 588
VWidth: 0
Flags: HW
LayerCount: 2
Fore
SplineSet
523.384312407 520.738638706 m 0
 538.179204178 511.519917446 545.616459749 495.554461266 545.616459749 479.698351138 c 0
 545.616459749 471.223488551 543.491822805 462.779863383 539.230391907 455.414324464 c 0
 537.589454504 452.748336485 520.091104408 424.283115729 495.287522475 365.489440035 c 2
 336.328193713 -18.4123350882 l 2
 301.761048055 -101.373484669 219.557073265 -192 104 -192 c 0
 30.8735234348 -192 -8.29415728266 -155.5283948 -14.3150507674 -149.572242105 c 0
 -23.4725209017 -139.900230599 -27.9225196666 -127.805665216 -27.9225196666 -115.851297591 c 0
 -27.9225196666 -103.575647111 -23.2301123336 -91.4478314999 -14.124092518 -82.242833208 c 0
 -4.88638851987 -72.9047193838 7.43380144931 -68.0988545955 19.8886056111 -68.0988545955 c 0
 31.6655954452 -68.0988545955 43.5629462397 -72.3958643739 53.0883553375 -81.2212146391 c 0
 54.763798773 -82.6084097417 71.0381513477 -96 104 -96 c 0
 163.106279381 -96 219.681431054 -44.9610381699 245.937365019 14.374598175 c 1
 214.179025702 0.131336111561 181.143379028 -8 148 -8 c 0
 50.310966412 -8 -5.90063194694 70.0032618566 -5.90063194694 159.666147494 c 0
 -5.90063194694 198.67650643 3.11445584766 239.724561178 20.6080407311 282.257983248 c 0
 76.7138120242 418.672015411 207.799476882 536 334 536 c 0
 382.455277021 536 420.508232216 517.002325028 446.681793716 486.947873192 c 1
 452.756699666 498.122478651 456.628292282 504.368324533 457.676671636 506.050841949 c 0
 466.726284477 519.567919921 482.499262933 527.784675117 498.699034771 527.784675117 c 0
 507.10584889 527.784675117 515.627600779 525.571858407 523.384312407 520.738638706 c 0
321.488436448 196.68646076 m 1
 392.183286606 367.421193217 l 1
 392.870750217 421.124804145 370.968491029 440 334 440 c 0
 266.200523118 440 155.286187976 357.327984589 109.391959269 245.742016752 c 0
 95.8042078931 212.705131054 90.0986900837 183.525948809 90.0986900837 159.330365414 c 0
 90.0986900837 106.761506752 110.768851934 88 148 88 c 0
 195.202748981 88 266.992767709 128.17510718 321.488436448 196.68646076 c 1
EndSplineSet
EndChar

StartChar: h
Encoding: 104 104 72
Width: 584
VWidth: 0
Flags: HW
AnchorPoint: "above" -152 0 basechar 0
LayerCount: 2
Fore
SplineSet
295.422190297 732.324066879 m 0
 313.706743898 724.724549288 324.908538901 706.493874636 324.908538901 687.605668165 c 0
 324.908538901 681.554555413 323.758859716 675.435957882 321.324066879 669.577809703 c 2
 254.939679559 509.85597555 l 1
 289.54098878 525.16694592 328.636084774 536 370 536 c 0
 441.232039072 536 494.16515743 482.600485474 494.16515743 411.385249269 c 0
 494.16515743 386.021844272 488.306895429 360.202400732 477.373052853 333.696115698 c 2
 351.342138456 29.6213505083 l 2
 343.753855085 11.3131112633 325.509948745 0.0911433716504 306.605722578 0.0911433716504 c 0
 300.569798855 0.0911433716504 294.466558246 1.23517675769 288.621350508 3.65786154388 c 0
 270.314197288 11.2456947866 259.091073881 29.4892589225 259.091073881 48.3941957204 c 0
 259.091073881 54.4300187566 260.235100884 60.5332586925 262.657861544 66.3786494917 c 2
 388.642372841 370.341279923 l 2
 395.71450515 387.485843095 398.165770966 401.238684018 398.165770966 411.684462794 c 0
 398.165770966 434.155230865 391.805303785 440 370 440 c 0
 296.247755671 440 208.487732849 366.10750439 187.265522647 347.030936363 c 1
 55.3240668788 29.5778097035 l 2
 47.7245492881 11.2932561016 29.4938746356 0.0914610993227 10.6056681655 0.0914610993227 c 0
 4.55455541266 0.0914610993227 -1.56404211775 1.24114028437 -7.42219029651 3.67593312117 c 0
 -25.7078275927 11.2759011224 -36.9084693306 29.5069150905 -36.9084693306 48.3944121631 c 0
 -36.9084693306 54.4456265521 -35.7587835346 60.5642254105 -33.3240668788 66.4221902965 c 2
 232.675933121 706.422190297 l 2
 240.275901122 724.707827593 258.506915091 735.908469331 277.394412163 735.908469331 c 0
 283.445626552 735.908469331 289.56422541 734.758783535 295.422190297 732.324066879 c 0
EndSplineSet
EndChar

StartChar: i
Encoding: 105 105 73
Width: 288
VWidth: 0
Flags: HW
LayerCount: 2
Fore
SplineSet
-7.37403888421 3.65595084928 m 0
 -25.6835841976 11.2425448565 -36.9089671049 29.4874727392 -36.9089671049 48.394180927 c 0
 -36.9089671049 54.4283854234 -35.7655376647 60.5299995654 -33.3440491507 66.3740388842 c 2
 145.655950849 498.374038884 l 2
 153.242544856 516.683584198 171.487472739 527.908967105 190.394180927 527.908967105 c 0
 196.428385423 527.908967105 202.529999565 526.765537665 208.374038884 524.344049151 c 0
 226.684670469 516.757005045 237.908897623 498.511734652 237.908897623 479.605737226 c 0
 237.908897623 473.571432143 236.765461823 467.469817398 234.344049151 461.625961116 c 2
 55.3440491507 29.6259611158 l 2
 47.757005045 11.315329531 29.5117346524 0.0911023771115 10.6057372261 0.0911023771115 c 0
 4.57143214339 0.0911023771115 -1.53018260201 1.2345381768 -7.37403888421 3.65595084928 c 0
244.538461538 611.692307692 m 0
 226.274346334 619.302355694 215.09181128 637.521365246 215.09181128 656.394449251 c 0
 215.09181128 662.459387 216.246612456 668.591869894 218.692307692 674.461538462 c 2
 238.692307692 722.461538462 l 2
 246.302355694 740.725653666 264.521365246 751.90818872 283.394449251 751.90818872 c 0
 289.459387 751.90818872 295.591869894 750.753387544 301.461538462 748.307692308 c 0
 319.726735254 740.697193644 330.908119079 722.477847382 330.908119079 703.605471664 c 0
 330.908119079 697.540431419 329.753311085 691.407946603 327.307692308 685.538461538 c 2
 307.307692308 637.538461538 l 2
 299.697193644 619.273264746 281.477847382 608.091880921 262.605471664 608.091880921 c 0
 256.540431419 608.091880921 250.407946603 609.246688915 244.538461538 611.692307692 c 0
EndSplineSet
EndChar

StartChar: j
Encoding: 106 106 74
Width: 288
VWidth: 0
Flags: HW
LayerCount: 2
Fore
SplineSet
208.345684119 524.355787381 m 0
 226.669936272 516.776822796 237.909219092 498.523512817 237.909219092 479.605911649 c 0
 237.909219092 473.58165885 236.769460577 467.490041296 234.355787381 461.654315881 c 2
 9.26687546411 -82.5606533763 l 2
 -13.1496747297 -135.305477362 -67.046745745 -192 -148 -192 c 0
 -163.895719965 -192 -173.513768573 -188.889906659 -176.454049727 -188.082770656 c 0
 -197.855658365 -181.447575827 -210.997377605 -162.329889018 -210.997377605 -141.938098127 c 0
 -210.997377605 -137.74465002 -210.441621819 -133.497320781 -209.2876551 -129.293584875 c 0
 -203.616978481 -108.636120047 -186.003475481 -94.225183228 -163.175789835 -94.225183228 c 0
 -158.750749854 -94.225183228 -154.129781708 -94.7666886946 -149.361896388 -95.9091686354 c 1
 -149.361896388 -95.9091686354 -149.981618081 -96 -148 -96 c 0
 -116.953254255 -96 -90.8503252703 -72.6945226382 -79.2668754641 -45.4393466237 c 2
 145.644212619 498.345684119 l 2
 153.223627117 516.671024061 171.477281489 527.909149662 190.39417109 527.909149662 c 0
 196.418523858 527.909149662 202.51014159 526.769384934 208.345684119 524.355787381 c 0
244.538461538 611.692307692 m 0
 226.274346334 619.302355694 215.09181128 637.521365246 215.09181128 656.394449251 c 0
 215.09181128 662.459387 216.246612456 668.591869894 218.692307692 674.461538462 c 2
 238.692307692 722.461538462 l 2
 246.302355694 740.725653666 264.521365246 751.90818872 283.394449251 751.90818872 c 0
 289.459387 751.90818872 295.591869894 750.753387544 301.461538462 748.307692308 c 0
 319.726735254 740.697193644 330.908119079 722.477847382 330.908119079 703.605471664 c 0
 330.908119079 697.540431419 329.753311085 691.407946603 327.307692308 685.538461538 c 2
 307.307692308 637.538461538 l 2
 299.697193644 619.273264746 281.477847382 608.091880921 262.605471664 608.091880921 c 0
 256.540431419 608.091880921 250.407946603 609.246688915 244.538461538 611.692307692 c 0
EndSplineSet
EndChar

StartChar: k
Encoding: 107 107 75
Width: 528
VWidth: 0
Flags: HW
AnchorPoint: "above" -152 0 basechar 0
LayerCount: 2
Fore
SplineSet
292.99353903 0.375662840388 m 0
 291.037286528 0.129467797547 289.089716508 0.00963647091832 287.159245094 0.00963647091832 c 0
 263.491716071 0.00963647091832 242.394226325 18.0211186871 239.37566284 42.0064609697 c 2
 212.561945649 255.066808384 l 1
 120.195843759 185.660280393 l 1
 55.3240668788 29.5778097035 l 2
 47.7240988776 11.2921724073 29.4930849095 0.091530669426 10.6055878369 0.091530669426 c 0
 4.55437344789 0.091530669426 -1.5642254105 1.24121646542 -7.42219029651 3.67593312117 c 0
 -25.7067438984 11.2754507119 -36.9085389007 29.5061253644 -36.9085389007 48.3943318345 c 0
 -36.9085389007 54.4454445873 -35.7588597156 60.5640421177 -33.3240668788 66.4221902965 c 2
 232.675933121 706.422190297 l 2
 240.275450712 724.706743898 258.506125364 735.908538901 277.394331835 735.908538901 c 0
 283.445444587 735.908538901 289.564042118 734.758859716 295.422190297 732.324066879 c 0
 313.707827593 724.724098878 324.908469331 706.493084909 324.908469331 687.605587837 c 0
 324.908469331 681.554373448 323.758783535 675.43577459 321.324066879 669.577809703 c 2
 192.771280758 360.277873173 l 1
 403.164927522 518.373670598 l 2
 411.65218553 524.751238758 421.738212497 527.823068303 431.77680489 527.823068303 c 0
 446.461650281 527.823068303 461.044990509 521.249665753 470.373670598 508.835072478 c 0
 476.751041473 500.348077018 479.823024176 490.26186806 479.823024176 480.222929815 c 0
 479.823024176 465.538605033 473.250212885 450.955420622 460.835072478 441.626329402 c 2
 300.959644758 321.491365143 l 1
 334.62433716 53.9935390303 l 2
 334.870543673 52.0371953816 334.990379627 50.0895538001 334.990379627 48.1590276404 c 0
 334.990379627 24.4901653524 316.977194113 3.3940139902 292.99353903 0.375662840388 c 0
EndSplineSet
EndChar

StartChar: l
Encoding: 108 108 76
Width: 288
VWidth: 0
Flags: HW
AnchorPoint: "above" -152 0 basechar 0
LayerCount: 2
Fore
SplineSet
295.415241976 732.326954136 m 0
 313.703403231 724.729298909 324.908600713 706.496566021 324.908600713 687.605689451 c 0
 324.908600713 681.557017248 323.75982461 675.440871023 321.326954136 669.584758024 c 2
 95.2765486507 125.463428007 l 2
 71.2453372074 68.5005564372 66.8789848362 43.0771418217 66.0980782718 38.7368322497 c 0
 61.7921057085 16.3818940489 41.276527464 0.0196096362959 18.7520089145 0.0196096362959 c 0
 16.3412917162 0.0196096362959 13.9075628271 0.2070337371 11.4682315325 0.594594572438 c 0
 -11.7428067275 4.28236318213 -28.9303155388 24.3380283227 -28.9303155388 48.3694852781 c 0
 -28.9303155388 50.4707799474 -28.7989060735 52.6024720805 -28.5286236934 54.7562771899 c 0
 -27.6529547753 60.2677902242 -21.7175046076 95.1209726882 6.72345134929 162.536571993 c 2
 232.673045864 706.415241976 l 2
 240.271151457 724.704487297 258.504224121 735.908531156 277.394391097 735.908531156 c 0
 283.443164785 735.908531156 289.559312233 734.759748478 295.415241976 732.326954136 c 0
EndSplineSet
EndChar

StartChar: m
Encoding: 109 109 77
Width: 864
VWidth: 0
Flags: HW
AnchorPoint: "above" -152 0 basechar 0
LayerCount: 2
Fore
SplineSet
-7.37403888421 3.65595084928 m 0
 -25.6835841976 11.2425448565 -36.9089671049 29.4874727392 -36.9089671049 48.394180927 c 0
 -36.9089671049 54.4283854234 -35.7655376647 60.5299995654 -33.3440491507 66.3740388842 c 2
 145.655950849 498.374038884 l 2
 153.242544856 516.683584198 171.487472739 527.908967105 190.394180927 527.908967105 c 0
 196.428385423 527.908967105 202.529999565 526.765537665 208.374038884 524.344049151 c 0
 219.132343509 519.886325706 227.444363655 511.74929581 232.470845324 501.960702497 c 1
 269.783606404 521.334474973 313.908130284 536 362 536 c 0
 410.962869689 536 451.279874385 510.76982383 471.702903116 471.865981472 c 1
 516.2816601 503.847590781 578.79186448 536 650 536 c 0
 721.232039072 536 774.16515743 482.600485474 774.16515743 411.385249269 c 0
 774.16515743 386.021844272 768.306895429 360.202400732 757.373052853 333.696115698 c 2
 631.342138456 29.6213505083 l 2
 623.753855085 11.3131112632 605.509948745 0.0911433716505 586.605722578 0.0911433716505 c 0
 580.569798855 0.0911433716505 574.466558246 1.23517675769 568.621350508 3.65786154388 c 0
 550.314197288 11.2456947866 539.091073881 29.4892589225 539.091073881 48.3941957204 c 0
 539.091073881 54.4300187566 540.235100884 60.5332586925 542.657861544 66.3786494917 c 2
 668.642372841 370.341279923 l 2
 675.71450515 387.485843095 678.165770966 401.238684018 678.165770966 411.684462794 c 0
 678.165770966 434.155230865 671.805303785 440 650 440 c 0
 574.1898152 440 489.879966815 361.846986471 474.236297511 346.405781061 c 0
 472.748011094 342.182552461 471.125902032 337.945447042 469.373052853 333.696115698 c 2
 343.342138456 29.6213505083 l 2
 335.753855085 11.3131112633 317.509948745 0.0911433716504 298.605722578 0.0911433716504 c 0
 292.569798855 0.0911433716504 286.466558246 1.23517675769 280.621350508 3.65786154388 c 0
 262.314197288 11.2456947866 251.091073881 29.4892589225 251.091073881 48.3941957204 c 0
 251.091073881 54.4300187566 252.235100884 60.5332586925 254.657861544 66.3786494917 c 2
 380.642372841 370.341279923 l 2
 387.71450515 387.485843095 390.165770966 401.238684018 390.165770966 411.684462794 c 0
 390.165770966 434.155230865 383.805303785 440 362 440 c 0
 287.135916117 440 203.982994169 363.785492579 186.853923858 347.012921303 c 1
 55.3440491507 29.6259611158 l 2
 47.757005045 11.315329531 29.5117346524 0.0911023771115 10.6057372261 0.0911023771115 c 0
 4.57143214339 0.0911023771115 -1.53018260201 1.2345381768 -7.37403888421 3.65595084928 c 0
EndSplineSet
EndChar

StartChar: n
Encoding: 110 110 78
Width: 580
VWidth: 0
Flags: HW
AnchorPoint: "above" -152 0 basechar 0
LayerCount: 2
Fore
SplineSet
-7.37403888421 3.65595084928 m 0
 -25.6835841976 11.2425448565 -36.9089671049 29.4874727392 -36.9089671049 48.394180927 c 0
 -36.9089671049 54.4283854234 -35.7655376647 60.5299995654 -33.3440491507 66.3740388842 c 2
 145.655950849 498.374038884 l 2
 153.242544856 516.683584198 171.487472739 527.908967105 190.394180927 527.908967105 c 0
 196.428385423 527.908967105 202.529999565 526.765537665 208.374038884 524.344049151 c 0
 219.563085086 519.707847136 228.106036365 511.091816036 233.058742479 500.777141379 c 1
 271.45552273 520.719353122 316.894699899 536 366 536 c 0
 437.232039072 536 490.16515743 482.600485474 490.16515743 411.385249269 c 0
 490.16515743 386.021844272 484.306895429 360.202400732 473.373052853 333.696115698 c 2
 347.342138456 29.6213505083 l 2
 339.753855085 11.3131112633 321.509948745 0.0911433716504 302.605722578 0.0911433716504 c 0
 296.569798855 0.0911433716504 290.466558246 1.23517675769 284.621350508 3.65786154388 c 0
 266.314197288 11.2456947866 255.091073881 29.4892589225 255.091073881 48.3941957204 c 0
 255.091073881 54.4300187566 256.235100884 60.5332586925 258.657861544 66.3786494917 c 2
 384.642372841 370.341279923 l 2
 391.71450515 387.485843095 394.165770966 401.238684018 394.165770966 411.684462794 c 0
 394.165770966 434.155230865 387.805303785 440 366 440 c 0
 291.28932637 440 205.257530689 364.117243746 186.735181018 346.726346403 c 1
 55.3440491507 29.6259611158 l 2
 47.757005045 11.315329531 29.5117346524 0.0911023771115 10.6057372261 0.0911023771115 c 0
 4.57143214339 0.0911023771115 -1.53018260201 1.2345381768 -7.37403888421 3.65595084928 c 0
EndSplineSet
EndChar

StartChar: o
Encoding: 111 111 79
Width: 568
VWidth: 0
Flags: HW
HStem: 40 448<207.697 360.303>
VStem: 108 352<157.228 370.772>
AnchorPoint: "middle" -152 0 basechar 0
AnchorPoint: "above" -152 0 basechar 0
LayerCount: 2
Fore
SplineSet
461.391959269 245.742016752 m 0
 405.283412329 109.321235958 274.194234581 -8 148 -8 c 0
 126.406730654 -8 105.600000652 -4.26056882525 86.593147175 3.49884683829 c 0
 22.001620135 29.8678882607 -5.56681648016 89.8413200868 -5.56681648016 158.476575842 c 0
 -5.56681648016 198.441654282 3.78032820165 241.343544941 20.6080407311 282.257983248 c 0
 76.7165876709 418.678764042 207.805765419 536 334 536 c 0
 355.593269346 536 376.399999348 532.260568825 395.406852825 524.501153162 c 0
 459.998379865 498.132111739 487.56681648 438.158679913 487.56681648 369.523424158 c 0
 487.56681648 329.558345718 478.219671798 286.656455059 461.391959269 245.742016752 c 0
372.608040731 282.257983248 m 0
 386.788677544 316.736394322 392.239178827 344.965585662 392.239178827 367.447430307 c 0
 392.239178827 407.302800315 375.10961707 429.095697709 359.12266333 435.622260321 c 0
 352.772643588 438.214611691 344.650497967 440 334 440 c 0
 266.194234581 440 155.283412329 357.321235958 109.391959269 245.742016752 c 0
 95.211322456 211.263605678 89.7608211734 183.034414338 89.7608211734 160.552569693 c 0
 89.7608211734 120.697199685 106.89038293 98.9043022909 122.87733667 92.3777396795 c 0
 129.227356412 89.7853883094 137.349502033 88 148 88 c 0
 215.805765419 88 326.716587671 170.678764042 372.608040731 282.257983248 c 0
EndSplineSet
EndChar

StartChar: p
Encoding: 112 112 80
Width: 588
VWidth: 0
Flags: HW
AnchorPoint: "above" -152 0 basechar 0
LayerCount: 2
Fore
SplineSet
58.8404102217 37.1520074166 m 1
 -23.6419976478 -162.340327896 l 2
 -31.2195194402 -180.667357347 -49.4744118698 -191.909266678 -68.3940705545 -191.909266678 c 0
 -74.4164438913 -191.909266678 -80.5061734501 -190.770200825 -86.3403278956 -188.358002352 c 0
 -104.668445422 -180.780030683 -115.909197259 -162.524793503 -115.909197259 -143.605846538 c 0
 -115.909197259 -137.583373349 -114.77012522 -131.493643693 -112.358002352 -125.659672104 c 2
 145.641997648 498.340327896 l 2
 153.219969317 516.668445422 171.475206497 527.909197259 190.394153462 527.909197259 c 0
 196.416626651 527.909197259 202.506356307 526.77012522 208.340327896 524.358002352 c 0
 219.155970303 519.886150203 227.504052822 511.695652348 232.530219737 501.84442545 c 1
 271.330185437 523.301132723 312.580965142 536 354 536 c 0
 375.593269346 536 396.399999348 532.260568825 415.406852825 524.501153162 c 0
 479.998379865 498.132111739 507.56681648 438.158679913 507.56681648 369.523424158 c 0
 507.56681648 329.558345718 498.219671798 286.656455059 481.391959269 245.742016752 c 0
 425.283412329 109.321235958 294.194234581 -8 168 -8 c 0
 121.67609515 -8 84.8592258826 9.36355316339 58.8404102217 37.1520074166 c 1
109.814974053 160.439324589 m 1
 109.167134944 106.842668545 131.062302321 88 168 88 c 0
 235.805765419 88 346.716587671 170.678764042 392.608040731 282.257983248 c 0
 406.788677544 316.736394322 412.239178827 344.965585662 412.239178827 367.447430307 c 0
 412.239178827 407.302800315 395.10961707 429.095697709 379.12266333 435.622260321 c 0
 372.772643588 438.214611691 364.650497967 440 354 440 c 0
 306.768784256 440 234.921015341 399.776073596 180.414321215 331.191234006 c 1
 109.814974053 160.439324589 l 1
EndSplineSet
EndChar

StartChar: q
Encoding: 113 113 81
Width: 588
VWidth: 0
Flags: HW
AnchorPoint: "above" -152 0 basechar 0
LayerCount: 2
Fore
SplineSet
213.61003609 -188.337447236 m 0
 195.308753885 -180.746574503 184.091174475 -162.506357925 184.091174475 -143.605768285 c 0
 184.091174475 -137.56597294 185.23666867 -131.458742948 187.662552764 -125.61003609 c 2
 245.675759988 14.2574224216 l 1
 213.997627118 0.0867484737351 140.840114038 -9.63152665897 148 -8 c 1
 50.310966412 -8 -5.90063194694 70.0032618566 -5.90063194694 159.666147494 c 0
 -5.90063194694 198.67650643 3.11445584766 239.724561178 20.6080407311 282.257983248 c 0
 76.7138120242 418.672015411 207.799476882 536 334 536 c 0
 382.458780237 536 420.513734461 516.999577944 446.687470412 486.941354395 c 1
 452.917433474 498.406776216 456.815680115 504.66905851 457.676671636 506.050841949 c 0
 467.30094 520.426262002 482.666272245 527.959411429 498.170549217 527.959411429 c 0
 506.860260738 527.959411429 515.593618792 525.593032639 523.384312407 520.738638706 c 0
 537.73520409 511.796574627 545.889383898 496.212873045 545.889383898 479.993264968 c 0
 545.889383898 471.698862359 543.756978387 463.238163378 539.230391907 455.414324464 c 0
 537.976594886 453.377313314 520.324131756 424.835476849 495.281867951 365.476036718 c 2
 276.337447236 -162.38996391 l 2
 268.746124301 -180.692331534 250.50556627 -191.908756014 231.60568694 -191.908756014 c 0
 225.565790661 -191.908756014 219.458559826 -190.763255377 213.61003609 -188.337447236 c 0
321.183620355 196.303770705 m 1
 392.184067145 367.482930088 l 1
 392.853958157 421.139270731 370.954321365 440 334 440 c 0
 266.200523118 440 155.286187976 357.327984589 109.391959269 245.742016752 c 0
 95.8042078931 212.705131054 90.0986900837 183.525948809 90.0986900837 159.330365414 c 0
 90.0986900837 106.761506752 110.768851934 88 148 88 c 0
 195.114792957 88 266.725310841 128.025524772 321.183620355 196.303770705 c 1
EndSplineSet
EndChar

StartChar: r
Encoding: 114 114 82
Width: 424
VWidth: 0
Flags: HW
AnchorPoint: "above" -152 0 basechar 0
LayerCount: 2
Fore
SplineSet
208.374038884 524.344049151 m 0
 227.731601055 516.323207418 239.170812836 496.388971079 237.797857903 476.354595919 c 1
 277.388572145 504.61342593 369.538948049 528.818378459 375.217624885 528.818378459 c 0
 375.811910253 528.818378459 375.45915249 528.553284396 374 528 c 1
 400.146366075 528 422 506.144471708 422 480 c 0
 422 453.855528292 400.146366075 432 374 432 c 0
 328.198595488 432 226.423811462 347.888769781 144.300156392 244.313326077 c 1
 55.3440491507 29.6259611158 l 2
 47.7574551435 11.3164158024 29.5125272608 0.0910328950783 10.605819073 0.0910328950783 c 0
 4.57161457661 0.0910328950783 -1.52999956545 1.23446233525 -7.37403888421 3.65595084928 c 0
 -25.684670469 11.242994955 -36.9088976229 29.4882653476 -36.9088976229 48.3942627739 c 0
 -36.9088976229 54.4285678566 -35.7654618232 60.530182602 -33.3440491507 66.3740388842 c 2
 145.655950849 498.374038884 l 2
 153.242994955 516.684670469 171.488265348 527.908897623 190.394262774 527.908897623 c 0
 196.428567857 527.908897623 202.530182602 526.765461823 208.374038884 524.344049151 c 0
EndSplineSet
EndChar

StartChar: s
Encoding: 115 115 83
Width: 496
VWidth: 0
Flags: HW
AnchorPoint: "bottom" -152 0 basechar 0
LayerCount: 2
Fore
SplineSet
424.077637054 387.140727685 m 0
 418.67828085 385.085227432 413.169684332 384.140239116 407.759600047 384.140239116 c 0
 388.125667827 384.140239116 369.789203682 396.586329536 362.680364966 413.566811638 c 0
 361.592706667 415.615949779 351.304428234 440 298 440 c 0
 239.592711572 440 180.592381261 398.469891326 168.410474608 369.78557028 c 0
 165.707965626 363.024412461 164.136377467 356.911059711 163.613978277 351.828441333 c 0
 163.398784876 349.734743714 162.408066631 347.117878891 162.408066631 344.299486525 c 0
 162.408066631 336.913419522 169.212214433 328.14328273 214.610167059 323.778094978 c 0
 243.692676019 320.971887973 268.128269856 315.703825308 289.329763936 306.917951792 c 0
 343.080886539 284.643551564 359.543997524 243.714712698 359.543997524 204.808691159 c 0
 359.543997524 181.416380313 353.592523903 158.75532518 346.215965387 141.319823233 c 0
 311.806981913 59.7577883327 223.941189024 -8 112 -8 c 0
 -5.00039742283 -8 -41.6808861724 91.6803146444 -43.3598702891 96.2805957221 c 0
 -45.0803429646 101.520907871 -45.8934851093 106.792509541 -45.8934851093 111.938602253 c 0
 -45.8934851093 131.980412355 -33.5600190133 150.118544852 -14.456936225 157.090678084 c 0
 -8.93259205139 159.106921432 -3.26283843288 160.098560832 2.32673886575 160.098560832 c 0
 21.0408639627 160.098560832 38.8562631924 148.982909962 47.3068368992 127.988748109 c 0
 48.4881648838 125.146745592 64.8669125483 88 112 88 c 0
 184.055776002 88 238.201291623 132.261823013 257.774520274 178.657624259 c 0
 264.193600502 193.829995708 267.388770994 201.876791896 267.388770994 206.786005757 c 0
 267.388770994 212.899696803 262.433389334 214.147319524 252.5781333 218.231325711 c 0
 243.401476626 222.034121143 227.912262252 226.048688159 205.389832941 228.221905022 c 0
 114.332543301 236.977413642 67.505665994 290.268987604 67.505665994 349.798764517 c 0
 67.505665994 353.723637271 67.7092191546 357.675627058 68.1170696189 361.643757766 c 0
 69.8336057801 378.344584287 74.1494621937 392.774086935 79.5862077155 406.20604646 c 0
 111.660368767 483.475616265 206.218828449 536 298 536 c 0
 410.638497991 536 447.540329401 460.422612707 452.138576239 448.344009185 c 0
 453.876167695 443.288078313 454.718558722 438.000369449 454.718558722 432.721468617 c 0
 454.718558722 413.602410696 443.668624237 394.598890766 424.077637054 387.140727685 c 0
EndSplineSet
EndChar

StartChar: t
Encoding: 116 116 84
Width: 344
VWidth: 0
Flags: HW
AnchorPoint: "bottom" -152 0 basechar 0
AnchorPoint: "above" -152 0 basechar 0
LayerCount: 2
Fore
SplineSet
82 480 m 0
 82 506.144471708 103.853633925 528 130 528 c 2
 186.480225532 528 l 1
 240.674606455 658.418997993 l 2
 248.273718906 676.706292998 266.505678773 687.908497736 285.394402505 687.908497736 c 0
 291.444495522 687.908497736 297.561968092 686.759226916 303.418997993 684.325393545 c 0
 321.705209133 676.726731484 332.9085673 658.495111144 332.9085673 639.605677924 c 0
 332.9085673 633.555686474 331.759303075 627.438215184 329.325393545 621.581002007 c 2
 290.438693387 528 l 1
 306 528 l 2
 332.144471708 528 354 506.146366075 354 480 c 0
 354 453.853633925 332.144471708 432 306 432 c 2
 250.546801495 432 l 1
 83.325393545 29.5810020066 l 2
 75.7267314835 11.2947908668 57.4951111439 0.0914326995742 38.6056779244 0.0914326995742 c 0
 32.5556864737 0.0914326995742 26.4382151835 1.2406969254 20.5810020066 3.67460645499 c 0
 2.29370700152 11.2737189064 -8.90849773611 29.5056787733 -8.90849773611 48.394402505 c 0
 -8.90849773611 54.4444955222 -7.75922691609 60.5619680922 -5.32539354501 66.4189979934 c 2
 146.58833364 432 l 1
 130 432 l 2
 103.853633925 432 82 453.855528292 82 480 c 0
EndSplineSet
EndChar

StartChar: u
Encoding: 117 117 85
Width: 580
VWidth: 0
Flags: HW
AnchorPoint: "above" -152 0 basechar 0
LayerCount: 2
Fore
SplineSet
500.374038884 524.344049151 m 0
 518.683584198 516.757455144 529.908967105 498.512527261 529.908967105 479.605819073 c 0
 529.908967105 473.571614577 528.765537665 467.470000435 526.344049151 461.625961116 c 2
 347.344049151 29.6259611158 l 2
 339.757455144 11.3164158024 321.512527261 0.0910328950784 302.605819073 0.0910328950784 c 0
 296.571614577 0.0910328950784 290.470000435 1.23446233525 284.625961116 3.65595084928 c 0
 273.586857508 8.2300238719 265.123404238 16.6779745996 260.142300719 26.8091034022 c 1
 221.914770713 7.06967657773 176.765138894 -8 128 -8 c 1
 56.613377123 -8 3.0154144235 45.4869165117 3.0154144235 117.312238067 c 0
 3.0154144235 142.535036572 8.79999912422 168.056737579 19.6269471473 194.303884302 c 2
 145.657861544 498.378649492 l 2
 153.246144915 516.686888737 171.490051255 527.908856628 190.394277422 527.908856628 c 0
 196.430201145 527.908856628 202.533441754 526.764823242 208.378649492 524.342138456 c 0
 226.685802712 516.754305213 237.908926119 498.510741077 237.908926119 479.60580428 c 0
 237.908926119 473.569981243 236.764899116 467.466741308 234.342138456 461.621350508 c 2
 108.357627159 157.658720077 l 2
 101.404452062 140.802538023 99.0144287926 127.388994753 99.0144287926 116.955047386 c 0
 99.0144287926 94.3311632224 105.908439886 88 128 88 c 0
 200.713245976 88 284.150354347 159.879468532 305.635947606 179.755930499 c 1
 437.655950849 498.374038884 l 2
 445.242994955 516.684670469 463.488265348 527.908897623 482.394262774 527.908897623 c 0
 488.428567857 527.908897623 494.530182602 526.765461823 500.374038884 524.344049151 c 0
EndSplineSet
EndChar

StartChar: v
Encoding: 118 118 86
Width: 496
VWidth: 0
Flags: HW
AnchorPoint: "above" -152 0 basechar 0
LayerCount: 2
Fore
SplineSet
146.754284002 527.763969513 m 0
 172.770195452 525.174422771 192.353703887 501.2635125 189.763969513 475.245715998 c 2
 159.195399444 168.138221356 l 1
 407.21563855 508.280263558 l 2
 416.511691729 521.029136489 431.318611951 527.826419237 446.242685634 527.826419237 c 0
 456.047857725 527.826419237 465.903599566 524.892345611 474.280263558 518.78436145 c 0
 487.029709571 509.487890399 493.826371399 494.681110942 493.826371399 479.757564964 c 0
 493.826371399 469.952059426 490.892158752 460.096144171 484.78436145 451.719736442 c 2
 169.78436145 19.7197364424 l 2
 162.043573026 9.10379803187 146.716383991 0 131 0 c 2
 99 0 l 2
 75.1746625947 0 48.2333220818 22.5875390924 51.2360304872 52.7542840024 c 2
 94.2360304872 484.754284002 l 2
 96.6712546247 509.219791617 117.960898174 527.994047245 142.124297431 527.994047245 c 0
 143.657418131 527.994047245 145.202107582 527.918468555 146.754284002 527.763969513 c 0
EndSplineSet
EndChar

StartChar: w
Encoding: 119 119 87
Width: 696
VWidth: 0
Flags: HW
AnchorPoint: "above" -152 0 basechar 0
LayerCount: 2
Fore
SplineSet
149.356494678 527.43292091 m 0
 172.792727497 523.798134802 189.98527238 502.933699545 189.98527238 479.80297149 c 0
 189.98527238 477.434884343 189.805071494 475.043043413 189.43292091 472.643505322 c 2
 149.065002214 212.360805668 l 1
 330.893664957 467.8333354 l 2
 340.089649273 480.753858167 356.422116319 488 370 488 c 2
 386 488 l 2
 413.95731436 488 433.955593782 463.313651201 433.955593782 439.300264788 c 0
 433.955593782 437.622617322 433.857985375 435.948254479 433.658663298 434.285823533 c 2
 406.879120224 210.933038752 l 1
 606.189641788 506.816699629 l 2
 615.364235773 520.436715443 630.74442246 527.836335075 646.288748073 527.836335075 c 0
 655.491789057 527.836335075 664.75236483 525.242583737 672.816699629 519.810358212 c 0
 686.437359142 510.635330624 693.836278686 495.255238249 693.836278686 479.711459454 c 0
 693.836278686 470.508118722 691.242421309 461.24739404 685.810358212 453.183300371 c 2
 394.810358212 21.1833003708 l 2
 386.657715853 9.08040862152 371.159583756 0 355 0 c 2
 339 0 l 2
 314.977114566 0 291.008058618 21.0819182486 291.008058618 48.1663613708 c 0
 291.008058618 49.9899559009 291.11671811 51.8407618199 291.341336702 53.7141764668 c 2
 319.168187814 285.801955948 l 1
 130.106335043 20.1666645996 l 2
 122.233047741 9.10455484149 106.858941834 0 91 0 c 2
 75 0 l 2
 53.6305067377 0 27.0097342592 19.9076817856 27.0097342592 48.2125307041 c 0
 27.0097342592 50.5392423009 27.1896147568 52.9226947982 27.56707909 55.3564946782 c 2
 94.56707909 487.356494678 l 2
 98.2021180862 510.794358057 119.067769484 527.985249756 142.197264448 527.985249756 c 0
 144.565298867 527.985249756 146.957062869 527.80505501 149.356494678 527.43292091 c 0
EndSplineSet
EndChar

StartChar: x
Encoding: 120 120 88
Width: 496
VWidth: 0
Flags: HW
AnchorPoint: "above" -152 0 basechar 0
LayerCount: 2
Fore
SplineSet
456.953599649 512.897505552 m 0
 465.55047691 503.763323463 469.807593539 491.900405416 469.807593539 480.05065558 c 0
 469.807593539 467.201935018 464.802445207 454.368696496 454.897505552 445.046400351 c 2
 265.20667444 266.513853422 l 1
 313.739585232 58.9275419176 l 2
 314.569512546 55.3777538023 314.966718016 51.8124345422 314.966718016 48.2887958071 c 0
 314.966718016 26.542016184 299.837294628 6.38283380467 277.927541918 1.26041476822 c 0
 274.377615561 0.430455133989 270.812222441 0.0332409727254 267.288556981 0.0332409727254 c 0
 245.540765529 0.0332409727254 225.382490485 15.1641738269 220.260414768 37.0724580824 c 2
 184.399062071 190.459630015 l 1
 -4.10249444776 13.0464003507 l 2
 -13.2366765368 4.44952309046 -25.099594584 0.192406460741 -36.9493444198 0.192406460741 c 0
 -49.798064982 0.192406460741 -62.6313035039 5.19755479333 -71.9535996493 15.1024944478 c 0
 -80.5507762892 24.2369946278 -84.8076037267 36.0996892118 -84.8076037267 47.9490104398 c 0
 -84.8076037267 60.7981956833 -79.8020712955 73.6316554203 -69.8975055522 82.9535996493 c 2
 159.136182703 298.514718007 l 1
 119.260414768 469.072458082 l 2
 118.430455134 472.622384439 118.033240973 476.187777559 118.033240973 479.711443019 c 0
 118.033240973 501.459234471 133.164173827 521.617509515 155.072458082 526.739585232 c 0
 158.622246198 527.569512546 162.187565458 527.966718016 165.711204193 527.966718016 c 0
 187.457983816 527.966718016 207.617166195 512.837294628 212.739585232 490.927541918 c 2
 239.943795072 374.568941413 l 1
 389.102494448 514.953599649 l 2
 398.236994628 523.550776289 410.099689212 527.807603727 421.94901044 527.807603727 c 0
 434.798195683 527.807603727 447.63165542 522.802071296 456.953599649 512.897505552 c 0
EndSplineSet
EndChar

StartChar: y
Encoding: 121 121 89
Width: 496
VWidth: 0
Flags: HW
AnchorPoint: "above" -152 0 basechar 0
LayerCount: 2
Fore
SplineSet
144.806003887 527.91791254 m 0
 170.905764485 526.389548181 191.446387641 503.295647838 189.91791254 477.193996113 c 2
 173.149680686 190.844190606 l 1
 374.943990365 463.687968811 403.398258338 502.913347747 406.600334384 507.411151801 c 0
 415.50956245 519.89814797 432.069291383 526.740170054 448.658216108 526.740170054 c 0
 454.241211767 526.740170054 459.827514307 525.965204179 465.12660341 524.369641562 c 1
 482.62721998 514.313607987 491.763450521 502.871733817 491.763450521 486.280814853 c 0
 491.763450521 426.769522195 374.212828036 301.008432308 103.489718755 -64.6803749927 c 0
 66.8951140632 -113.473181249 0.9777613489 -194 -93 -194 c 0
 -111.830613219 -194 -123.300313168 -191.526411873 -126.837264644 -190.767261312 c 0
 -149.520389154 -185.116414558 -163.999796355 -165.377763416 -163.999796355 -143.965699233 c 0
 -163.999796355 -140.644276272 -163.651393202 -137.282587686 -162.93116304 -133.926969884 c 0
 -158.202906615 -111.897593357 -135.699380679 -96.7474657278 -112.332530214 -96.7474657278 c 0
 -109.202143105 -96.7474657278 -106.056261773 -97.019367492 -102.93554807 -97.5830569207 c 2
 -102.93554807 -97.5830569207 -103.367359543 -98 -93 -98 c 0
 -58.9777613489 -98 -8.89511406321 -54.5268187509 26.5102812445 -7.31962500729 c 0
 41.1332147443 12.4328191966 55.1960656612 31.4308042176 68.7202014764 49.7030278588 c 1
 94.0820874601 482.806003887 l 2
 95.5569274892 507.991733616 117.11191855 527.998002761 142.070336274 527.998002761 c 0
 142.977991683 527.998002761 143.890148251 527.971543726 144.806003887 527.91791254 c 0
EndSplineSet
EndChar

StartChar: z
Encoding: 122 122 90
Width: 504
VWidth: 0
Flags: HW
AnchorPoint: "above" -152 0 basechar 0
LayerCount: 2
Fore
SplineSet
311 48 m 0
 311 21.8555282921 289.146366075 0 263 0 c 2
 -25 0 l 2
 -51.3548479083 0 -72.9966637886 22.1344177733 -72.9966637886 48.0898351674 c 0
 -72.9966637886 62.5313038117 -64.6612172934 76.5877533046 -57.8975055522 82.9535996493 c 2
 312.96429482 432 l 1
 162 432 l 2
 135.855528292 432 114 453.853633925 114 480 c 0
 114 506.146366075 135.855528292 528 162 528 c 2
 434 528 l 2
 444.584342221 528 457.364891476 523.618556343 466.264812493 515.538456281 c 0
 476.595961436 506.158966612 481.778146333 493.073594647 481.778146333 479.983670698 c 0
 481.778146333 467.190510473 476.828270147 454.393002322 466.897505552 445.046400351 c 2
 96.0357051796 96 l 1
 263 96 l 2
 289.146366075 96 311 74.1444717079 311 48 c 0
EndSplineSet
EndChar

StartChar: braceleft
Encoding: 123 123 91
Width: 432
VWidth: 0
Flags: HW
LayerCount: 2
Fore
SplineSet
97.7396924076 355.194378521 m 0
 96.3967714184 360.045680595 95.8770189718 364.959879241 96.093089222 369.78270279 c 0
 96.236052167 374.608246507 97.1195937903 379.470225752 98.8193527769 384.208303937 c 0
 101.484827514 391.638314765 105.893412104 398.027624025 111.426908169 403.084352138 c 0
 116.881961308 408.229658918 123.583514702 412.153494329 131.194378521 414.260307592 c 0
 368.829947864 480.041780075 164.713576151 720.009566452 505.194378521 814.260307592 c 0
 509.339502737 815.407746822 513.530545214 815.954223749 517.671272987 815.954223749 c 0
 538.700722773 815.954223749 558.432403566 801.858924773 564.260307592 780.805621479 c 0
 565.407788753 776.660345786 565.954274015 772.469240265 565.954274015 768.328509883 c 0
 565.954274015 747.298142908 551.857548268 727.567215394 530.805621479 721.739692408 c 0
 317.029166333 662.562819011 460.81969974 462.204630879 243.545179443 354.045634517 c 1
 255.761077228 335.004583566 260.719330789 313.936135917 260.719330789 292.07653959 c 0
 260.719330789 205.206686173 182.415567578 105.842530487 170.117107337 71.5706263049 c 0
 165.599649354 58.9819051066 162.043278576 50.0874539032 162.043278576 42.934948607 c 0
 162.043278576 31.2020617038 171.613024902 24.1565320784 202.208303937 13.1806472231 c 0
 221.619666146 6.21692983857 233.927741675 -12.6443472092 233.927741675 -32.3794761207 c 0
 233.927741675 -37.663640337 233.045347101 -43.0104530268 231.180647223 -48.2083039365 c 0
 224.216498847 -67.6208675341 205.354728801 -79.9276777173 185.620378943 -79.9276777173 c 0
 180.336158978 -79.9276777173 174.989375475 -79.0452855772 169.791696063 -77.1806472231 c 0
 97.6732797377 -51.3085696175 70.0512001998 -0.971530938672 70.0512001998 50.1942600124 c 0
 70.0512001998 68.3769844736 73.5395088294 86.6643695451 79.7588356703 103.995658941 c 0
 116.1737631 205.472500688 166.928573183 255.500677465 166.928573183 287.224435483 c 0
 166.928573183 301.918652742 156.039250597 312.685700926 127.791696063 322.819352777 c 0
 120.358551123 325.485951859 113.967218653 329.896924818 108.909685146 335.433331768 c 0
 103.76722018 340.887364342 99.8456161912 347.58672262 97.7396924076 355.194378521 c 0
EndSplineSet
EndChar

StartChar: bar
Encoding: 124 124 92
Width: 288
VWidth: 0
Flags: HW
LayerCount: 2
Fore
SplineSet
328.398560466 812.333880642 m 0
 346.69538116 804.740700054 357.908749082 786.503027789 357.908749082 767.60574123 c 0
 357.908749082 761.562927377 356.762139395 755.452665445 354.333880642 749.601439534 c 2
 22.3338806418 -50.3985604664 l 2
 14.7407000539 -68.6953811602 -3.49697221075 -79.9087490823 -22.3942587704 -79.9087490823 c 0
 -28.4370726226 -79.9087490823 -34.5473345551 -78.762139395 -40.3985604664 -76.3338806418 c 0
 -58.6964661193 -68.7402497959 -69.9086795552 -50.5022366489 -69.9086795552 -31.6056601554 c 0
 -69.9086795552 -25.5627451825 -68.7620633807 -19.4524822779 -66.3338806418 -13.6014395336 c 2
 265.666119358 786.398560466 l 2
 273.259750204 804.696466119 291.497763351 815.908679555 310.394339845 815.908679555 c 0
 316.437254818 815.908679555 322.547517722 814.762063381 328.398560466 812.333880642 c 0
EndSplineSet
EndChar

StartChar: braceright
Encoding: 125 125 93
Width: 432
VWidth: 0
Flags: HW
LayerCount: 2
Fore
SplineSet
334.260307592 380.805621479 m 0
 335.603228582 375.954319405 336.122981028 371.040120759 335.906910778 366.21729721 c 0
 335.763947833 361.391753493 334.88040621 356.529774248 333.180647223 351.791696063 c 0
 330.515172486 344.361685235 326.106587896 337.972375975 320.573091831 332.915647862 c 0
 315.118038692 327.770341082 308.416485298 323.846505671 300.805621479 321.739692408 c 0
 63.1700521364 255.958219925 267.286423849 15.9904335481 -73.1943785211 -78.2603075924 c 0
 -77.3395027365 -79.4077468215 -81.5305452143 -79.9542237492 -85.671272987 -79.9542237492 c 0
 -106.700722773 -79.9542237492 -126.432403566 -65.858924773 -132.260307592 -44.8056214789 c 0
 -133.407788753 -40.6603457864 -133.954274015 -36.4692402653 -133.954274015 -32.328509883 c 0
 -133.954274015 -11.298142908 -119.857548268 8.43278460562 -98.8056214789 14.2603075924 c 0
 114.970833667 73.4371809892 -28.8196997402 273.795369121 188.454820557 381.954365483 c 1
 176.238922772 400.995416434 171.280669211 422.063864083 171.280669211 443.92346041 c 0
 171.280669211 530.793313827 249.584432422 630.157469513 261.882892663 664.429373695 c 0
 266.400350646 677.018094893 269.956721424 685.912546097 269.956721424 693.065051393 c 0
 269.956721424 704.797938296 260.386975098 711.843467922 229.791696063 722.819352777 c 0
 210.380333854 729.783070161 198.072258325 748.644347209 198.072258325 768.379476121 c 0
 198.072258325 773.663640337 198.954652899 779.010453027 200.819352777 784.208303937 c 0
 207.783501153 803.620867534 226.645271199 815.927677717 246.379621057 815.927677717 c 0
 251.663841022 815.927677717 257.010624525 815.045285577 262.208303937 813.180647223 c 0
 334.326720262 787.308569617 361.9487998 736.971530939 361.9487998 685.805739988 c 0
 361.9487998 667.623015526 358.460491171 649.335630455 352.24116433 632.004341059 c 0
 315.8262369 530.527499312 265.071426817 480.499322535 265.071426817 448.775564517 c 0
 265.071426817 434.081347258 275.960749403 423.314299074 304.208303937 413.180647223 c 0
 311.641448877 410.514048141 318.032781347 406.103075182 323.090314854 400.566668232 c 0
 328.23277982 395.112635658 332.154383809 388.41327738 334.260307592 380.805621479 c 0
EndSplineSet
EndChar

StartChar: asciitilde
Encoding: 126 126 94
Width: 648
VWidth: 0
Flags: HW
LayerCount: 2
Fore
SplineSet
11.421922802 178.196067013 m 0
 -0.541636165894 187.556444169 -6.81898298937 201.834821032 -6.81898298937 216.195428459 c 0
 -6.81898298937 226.551381434 -3.55452831325 236.950097372 3.19606701321 245.578077198 c 0
 66.8178722061 326.893520521 123.53648993 351.581847383 175.377317416 351.581847383 c 0
 255.522076171 351.581847383 324.008688068 292.575591233 388.320912466 292.575591233 c 0
 417.920339273 292.575591233 446.635521715 305.074658355 475.196067013 341.578077198 c 0
 484.556444169 353.541636166 498.834821032 359.818982989 513.195428459 359.818982989 c 0
 523.551381434 359.818982989 533.950097372 356.554528313 542.578077198 349.803932987 c 0
 554.542149326 340.443154331 560.818944217 326.164951187 560.818944217 311.80485485 c 0
 560.818944217 301.448539776 557.554315927 291.049631175 550.803932987 282.421922802 c 0
 487.182741707 201.107264125 430.463811267 176.419308744 378.622332722 176.419308744 c 0
 298.477668781 176.419308744 229.990022662 235.423055384 165.678117121 235.423055384 c 0
 136.078639568 235.423055384 107.363704802 222.92435305 78.8039329868 186.421922802 c 0
 69.4431543309 174.457850674 55.1649511865 168.181055783 40.8048548499 168.181055783 c 0
 30.448539776 168.181055783 20.0496311752 171.445684073 11.421922802 178.196067013 c 0
EndSplineSet
EndChar

StartChar: tildecomb
Encoding: 771 771 95
Width: 0
VWidth: 0
Flags: HW
AnchorPoint: "above" -152 0 mark 0
LayerCount: 2
Fore
SplineSet
18.5600946333 783.938404872 m 0
 4.43367602316 793.261577602 -2.61862831181 808.717759878 -2.61862831181 824.147224761 c 0
 -2.61862831181 833.103621757 -0.242357201539 842.051016338 4.50591920526 849.784625384 c 0
 6.42935727545 852.699007873 55.9520870831 936 151 936 c 0
 171.647232883 936 191.612495381 931.065559153 207.716942166 920.662380412 c 0
 237.904392563 901.161838331 246.83507153 874.48567819 248.437241019 872.288333913 c 0
 249.664444507 872.109195486 250.83884469 872 253 872 c 0
 283.792948982 872 314.976791066 908.684768442 319.883172716 915.81877024 c 0
 329.061814084 928.782678142 344.093424771 935.830292258 359.2846274 935.830292258 c 0
 368.349455865 935.830292258 377.471110166 933.320851289 385.439905367 928.061595128 c 0
 399.168442914 919.001016476 406.898160933 903.857370678 406.898160933 888.080623359 c 0
 406.898160933 879.344555695 404.528093572 870.414367981 399.494080795 862.215374616 c 0
 398.386162389 860.536662911 348.687288638 776 253 776 c 0
 231.650793903 776 211.047444452 781.332807463 194.729501881 792.364377514 c 0
 166.051469124 811.751853961 157.953069059 836.433402328 155.562758981 839.711666087 c 0
 154.991102082 839.795112491 153.227583061 840 151 840 c 0
 120.478138466 840 89.5467454454 804.076466757 84.1168272837 796.18122976 c 0
 75.5210163664 784.040511258 60.0592615033 776.348774916 44.1781425418 776.348774916 c 0
 35.4044522371 776.348774916 26.5027667419 778.696389465 18.5600946333 783.938404872 c 0
EndSplineSet
EndChar

StartChar: dotlessi
Encoding: 305 305 96
Width: 288
VWidth: 0
Flags: HW
AnchorPoint: "above" -152 0 basechar 0
LayerCount: 2
Fore
SplineSet
-7.37403888421 3.65595084928 m 0
 -25.6835841976 11.2425448565 -36.9089671049 29.4874727392 -36.9089671049 48.394180927 c 0
 -36.9089671049 54.4283854234 -35.7655376647 60.5299995654 -33.3440491507 66.3740388842 c 2
 145.655950849 498.374038884 l 2
 153.242544856 516.683584198 171.487472739 527.908967105 190.394180927 527.908967105 c 0
 196.428385423 527.908967105 202.529999565 526.765537665 208.374038884 524.344049151 c 0
 226.684670469 516.757005045 237.908897623 498.511734652 237.908897623 479.605737226 c 0
 237.908897623 473.571432143 236.765461823 467.469817398 234.344049151 461.625961116 c 2
 55.3440491507 29.6259611158 l 2
 47.757005045 11.315329531 29.5117346524 0.0911023771115 10.6057372261 0.0911023771115 c 0
 4.57143214339 0.0911023771115 -1.53018260201 1.2345381768 -7.37403888421 3.65595084928 c 0
EndSplineSet
EndChar

StartChar: uni0237
Encoding: 567 567 97
Width: 288
VWidth: 0
Flags: HW
AnchorPoint: "above" -152 0 basechar 0
LayerCount: 2
Fore
SplineSet
208.345684119 524.355787381 m 0
 226.669936272 516.776822796 237.909219092 498.523512817 237.909219092 479.605911649 c 0
 237.909219092 473.58165885 236.769460577 467.490041296 234.355787381 461.654315881 c 2
 9.26687546411 -82.5606533763 l 2
 -13.1496747297 -135.305477362 -67.046745745 -192 -148 -192 c 0
 -163.895719965 -192 -173.513768573 -188.889906659 -176.454049727 -188.082770656 c 0
 -197.855658365 -181.447575827 -210.997377605 -162.329889018 -210.997377605 -141.938098127 c 0
 -210.997377605 -137.74465002 -210.441621819 -133.497320781 -209.2876551 -129.293584875 c 0
 -203.616978481 -108.636120047 -186.003475481 -94.225183228 -163.175789835 -94.225183228 c 0
 -158.750749854 -94.225183228 -154.129781708 -94.7666886946 -149.361896388 -95.9091686354 c 1
 -149.361896388 -95.9091686354 -149.981618081 -96 -148 -96 c 0
 -116.953254255 -96 -90.8503252703 -72.6945226382 -79.2668754641 -45.4393466237 c 2
 145.644212619 498.345684119 l 2
 153.223627117 516.671024061 171.477281489 527.909149662 190.39417109 527.909149662 c 0
 196.418523858 527.909149662 202.51014159 526.769384934 208.345684119 524.355787381 c 0
EndSplineSet
EndChar

StartChar: gravecomb
Encoding: 768 768 98
Width: 0
VWidth: 0
Flags: HW
AnchorPoint: "above" -152 0 mark 0
LayerCount: 2
Fore
SplineSet
88.3409330636 937.511571411 m 0
 97.3657421584 951.894860906 113.237442479 959.846271995 129.323009161 959.846271995 c 0
 138.004487007 959.846271995 146.74826041 957.530164035 154.511571411 952.659066936 c 2
 307.511571411 856.659066936 l 2
 321.894860906 847.634257842 329.846271995 831.762557521 329.846271995 815.676990839 c 0
 329.846271995 806.995512993 327.530164035 798.25173959 322.659066936 790.488428589 c 0
 313.633813001 776.10443013 297.762157582 768.153790448 281.677155885 768.153790448 c 0
 272.995409238 768.153790448 264.25151031 770.469979827 256.488428589 775.340933064 c 2
 103.488428589 871.340933064 l 2
 89.10443013 880.366186999 81.1537904476 896.237842418 81.1537904476 912.322844115 c 0
 81.1537904476 921.004590762 83.4699798267 929.74848969 88.3409330636 937.511571411 c 0
EndSplineSet
EndChar

StartChar: acutecomb
Encoding: 769 769 99
Width: 0
VWidth: 0
Flags: HW
AnchorPoint: "above" -152 0 mark 0
LayerCount: 2
Fore
SplineSet
45.6752956134 797.579343632 m 0
 43.2410034058 803.436859256 42.0915170201 809.554916919 42.0915170201 815.605592473 c 0
 42.0915170201 834.493678968 53.2929097808 852.725147462 71.5793436316 860.324704387 c 2
 302.579343632 956.324704387 l 2
 308.436859256 958.758996594 314.554916919 959.90848298 320.605592473 959.90848298 c 0
 339.493678968 959.90848298 357.725147462 948.707090219 365.324704387 930.420656368 c 0
 367.759072764 924.562957459 368.908552547 918.444901102 368.908552547 912.39432715 c 0
 368.908552547 893.505531214 357.706006443 875.274402138 339.420656368 867.675295613 c 2
 108.420656368 771.675295613 l 2
 102.562957459 769.240927236 96.4449011016 768.091447453 90.3943271497 768.091447453 c 0
 71.5055312138 768.091447453 53.2744021378 779.293993557 45.6752956134 797.579343632 c 0
EndSplineSet
EndChar

StartChar: uni0302
Encoding: 770 770 100
Width: 0
VWidth: 0
Flags: HW
AnchorPoint: "above" -152 0 mark 0
LayerCount: 2
Fore
SplineSet
37.9722711667 808.81228754 m 0
 34.0093411984 815.995098108 32.1343011546 823.847572279 32.1343011546 831.632474698 c 0
 32.1343011546 848.657946509 41.1024439035 865.360228896 56.8122875403 874.027728833 c 2
 201.81228754 954.027728833 l 2
 208.969256751 957.976401501 216.888259262 959.872708378 224.763833576 959.872708378 c 0
 237.466851785 959.872708378 250.056884895 954.939175879 259.153916216 945.726992263 c 2
 338.153916216 865.726992263 l 2
 347.262062125 856.503553368 351.806859958 844.255570444 351.806859958 832.010410903 c 0
 351.806859958 819.558200059 347.107068315 807.108908885 337.726992263 797.846083784 c 0
 328.503222003 788.737610652 316.255464146 784.19313792 304.010748198 784.19313792 c 0
 291.558086286 784.19313792 279.108570479 788.893274375 269.846083784 798.273007737 c 2
 216.375326565 852.420609984 l 1
 103.18771246 789.972271167 l 2
 96.0046904448 786.009224538 88.1522989286 784.134231683 80.3676092279 784.134231683 c 0
 63.3415353566 784.134231683 46.6393135946 793.10327314 37.9722711667 808.81228754 c 0
EndSplineSet
EndChar

StartChar: uni0308
Encoding: 776 776 101
Width: 0
VWidth: 0
Flags: HW
AnchorPoint: "above" -152 0 mark 0
LayerCount: 2
Fore
SplineSet
72.3336743516 771.369282573 m 0
 53.6592717792 778.761233591 42.084784911 797.212897221 42.084784911 816.391057379 c 0
 42.084784911 822.177963626 43.1386396609 828.03101724 45.3692825726 833.666325648 c 2
 64.3692825726 881.666325648 l 2
 71.7612335909 900.340728221 90.2128972208 911.915215089 109.391057379 911.915215089 c 0
 115.177963626 911.915215089 121.03101724 910.861360339 126.666325648 908.630717427 c 0
 145.341852299 901.238321461 156.915147083 882.78626759 156.915147083 863.608838989 c 0
 156.915147083 857.82184734 155.861289373 851.968803477 153.630717427 846.333674352 c 2
 134.630717427 798.333674352 l 2
 127.238321461 779.658147701 108.78626759 768.084852917 89.6088389887 768.084852917 c 0
 83.8218473401 768.084852917 77.9688034769 769.138710627 72.3336743516 771.369282573 c 0
264.333674352 771.369282573 m 0
 245.659271779 778.761233591 234.084784911 797.212897221 234.084784911 816.391057379 c 0
 234.084784911 822.177963626 235.138639661 828.03101724 237.369282573 833.666325648 c 2
 256.369282573 881.666325648 l 2
 263.761233591 900.340728221 282.212897221 911.915215089 301.391057379 911.915215089 c 0
 307.177963626 911.915215089 313.03101724 910.861360339 318.666325648 908.630717427 c 0
 337.341852299 901.238321461 348.915147083 882.78626759 348.915147083 863.608838989 c 0
 348.915147083 857.82184734 347.861289373 851.968803477 345.630717427 846.333674352 c 2
 326.630717427 798.333674352 l 2
 319.238321461 779.658147701 300.78626759 768.084852917 281.608838989 768.084852917 c 0
 275.82184734 768.084852917 269.968803477 769.138710627 264.333674352 771.369282573 c 0
EndSplineSet
EndChar

StartChar: uni030A
Encoding: 778 778 102
Width: 0
VWidth: 0
Flags: HW
HStem: 816 160<-55.1865 55.1865>
VStem: -80 160<840.814 951.186>
AnchorPoint: "above" -152 0 mark 0
LayerCount: 2
Fore
SplineSet
343.426253898 877.825623405 m 0
 318.060843211 815.821286171 253.113184825 768 186 768 c 0
 171.397048581 768 156.942775846 770.498752321 143.477204977 776.003109441 c 0
 129.568861263 781.688459991 116.90843224 790.628984585 107.100195981 802.174179793 c 0
 91.4105560993 820.642327418 84.6690783611 842.957674551 84.6690783611 865.574851432 c 0
 84.6690783611 882.072777265 88.2561248846 898.731302507 94.5737461021 914.174376595 c 0
 119.939156789 976.178713829 184.886815175 1024 252 1024 c 0
 266.602951419 1024 281.057224154 1021.50124768 294.522795023 1015.99689056 c 0
 308.431138737 1010.31154001 321.09156776 1001.37101541 330.899804019 989.825820207 c 0
 346.589443901 971.357672582 353.330921639 949.042325449 353.330921639 926.425148568 c 0
 353.330921639 909.927222735 349.743875115 893.268697493 343.426253898 877.825623405 c 0
254.573746102 914.174376595 m 0
 257.390381438 921.059485193 257.563423962 925.537570821 257.392308424 927.403361342 c 0
 256.542168798 927.631234231 254.702941152 928 252 928 c 0
 231.113184825 928 194.060843211 903.821286171 183.426253898 877.825623405 c 0
 180.609618562 870.940514807 180.436576038 866.462429179 180.607691576 864.596638658 c 0
 181.457831202 864.368765769 183.297058848 864 186 864 c 0
 206.886815175 864 243.939156789 888.178713829 254.573746102 914.174376595 c 0
EndSplineSet
EndChar

StartChar: uni0327
Encoding: 807 807 103
Width: 0
VWidth: 0
Flags: HW
AnchorPoint: "bottom" -152 0 mark 0
LayerCount: 2
Fore
SplineSet
-347 -200 m 0
 -347 -173.855528292 -325.146366075 -152 -299 -152 c 0
 -229.799646565 -152 -201.714742575 -137.294704895 -192.831881333 -124.179986731 c 1
 -205.26120064 -121.497315993 -222.737666627 -120 -246 -120 c 0
 -272.354847908 -120 -293.996663789 -97.8655822267 -293.996663789 -71.9101648326 c 0
 -293.996663789 -58.313791964 -288.361843426 -46.6299166704 -280.245511709 -38.3660152856 c 2
 -170.245511709 73.6339847144 l 2
 -160.975290923 83.0727549693 -148.482230252 87.8068975279 -135.984679078 87.8068975279 c 0
 -123.784798059 87.8068975279 -111.580637903 83.2955874938 -102.366015286 74.2455117093 c 0
 -92.9268989168 64.9749509899 -88.1931055111 52.4821147374 -88.1931055111 39.9850162149 c 0
 -88.1931055111 27.7846932526 -92.7047364649 15.5803080537 -101.754488291 6.36601528556 c 2
 -145.900932093 -38.5830911309 l 1
 -129.041525442 -45.7331045541 -107.385854786 -60.2222256451 -97.4921991727 -85.0412201911 c 0
 -93.5816898488 -94.8510330016 -91.9750661638 -104.673156016 -91.9750661638 -114.192111219 c 0
 -91.9750661638 -128.69004958 -95.7019692291 -142.48472615 -100.692307692 -154.461538462 c 0
 -133.337909738 -232.810983371 -217.440098171 -248 -299 -248 c 0
 -325.146366075 -248 -347 -226.144471708 -347 -200 c 0
EndSplineSet
EndChar

StartChar: dieresis
Encoding: 168 168 104
Width: 480
VWidth: 0
Flags: HW
AnchorPoint: "above" -152 0 mark 0
LayerCount: 2
Fore
SplineSet
238.538461538 595.692307692 m 0
 220.274346334 603.302355694 209.09181128 621.521365246 209.09181128 640.394449251 c 0
 209.09181128 646.459387 210.246612456 652.591869894 212.692307692 658.461538462 c 2
 232.692307692 706.461538462 l 2
 240.302355694 724.725653666 258.521365246 735.90818872 277.394449251 735.90818872 c 0
 283.459387 735.90818872 289.591869894 734.753387544 295.461538462 732.307692308 c 0
 313.726735254 724.697193644 324.908119079 706.477847382 324.908119079 687.605471664 c 0
 324.908119079 681.540431419 323.753311085 675.407946603 321.307692308 669.538461538 c 2
 301.307692308 621.538461538 l 2
 293.697193644 603.273264746 275.477847382 592.091880921 256.605471664 592.091880921 c 0
 250.540431419 592.091880921 244.407946603 593.246688915 238.538461538 595.692307692 c 0
430.538461538 595.692307692 m 0
 412.274346334 603.302355694 401.09181128 621.521365246 401.09181128 640.394449251 c 0
 401.09181128 646.459387 402.246612456 652.591869894 404.692307692 658.461538462 c 2
 424.692307692 706.461538462 l 2
 432.302355694 724.725653666 450.521365246 735.90818872 469.394449251 735.90818872 c 0
 475.459387 735.90818872 481.591869894 734.753387544 487.461538462 732.307692308 c 0
 505.726735254 724.697193644 516.908119079 706.477847382 516.908119079 687.605471664 c 0
 516.908119079 681.540431419 515.753311085 675.407946603 513.307692308 669.538461538 c 2
 493.307692308 621.538461538 l 2
 485.697193644 603.273264746 467.477847382 592.091880921 448.605471664 592.091880921 c 0
 442.540431419 592.091880921 436.407946603 593.246688915 430.538461538 595.692307692 c 0
EndSplineSet
EndChar

StartChar: cedilla
Encoding: 184 184 106
Width: 320
VWidth: 0
Flags: HW
AnchorPoint: "bottom" -152 0 mark 0
LayerCount: 2
Fore
SplineSet
-187 -200 m 0
 -187 -173.855528292 -165.146366075 -152 -139 -152 c 0
 -69.7996465648 -152 -41.7147425748 -137.294704895 -32.8318813334 -124.179986731 c 1
 -45.2612006399 -121.497315993 -62.7376666273 -120 -86 -120 c 0
 -112.354847908 -120 -133.996663789 -97.8655822267 -133.996663789 -71.9101648326 c 0
 -133.996663789 -58.313791964 -128.361843426 -46.6299166704 -120.245511709 -38.3660152856 c 2
 -10.2455117093 73.6339847144 l 2
 -0.975290923246 83.0727549693 11.5177697482 87.8068975279 24.0153209224 87.8068975279 c 0
 36.2152019409 87.8068975279 48.4193620975 83.2955874938 57.6339847144 74.2455117093 c 0
 67.0731010832 64.9749509899 71.8068944889 52.4821147374 71.8068944889 39.9850162149 c 0
 71.8068944889 27.7846932526 67.2952635351 15.5803080537 58.2455117093 6.36601528556 c 2
 14.0990679074 -38.5830911309 l 1
 30.9584745585 -45.7331045541 52.6141452136 -60.2222256451 62.5078008273 -85.0412201911 c 0
 66.4183101512 -94.8510330016 68.0249338362 -104.673156016 68.0249338362 -114.192111219 c 0
 68.0249338362 -128.69004958 64.2980307709 -142.48472615 59.3076923077 -154.461538462 c 0
 26.6620902619 -232.810983371 -57.4400981713 -248 -139 -248 c 0
 -165.146366075 -248 -187 -226.144471708 -187 -200 c 0
EndSplineSet
EndChar

StartChar: minus
Encoding: 8722 8722 161
Width: 640
VWidth: 0
Flags: HW
LayerCount: 2
Fore
SplineSet
56 368 m 0
 56 394.144471708 77.8536339246 416 104 416 c 2
 536 416 l 2
 562.144471708 416 584 394.146366075 584 368 c 0
 584 341.853633925 562.144471708 320 536 320 c 2
 104 320 l 2
 77.8536339246 320 56 341.855528292 56 368 c 0
EndSplineSet
EndChar

StartChar: degree
Encoding: 176 176 164
Width: 480
VWidth: 32
Flags: HW
HStem: 432 256<168.45 311.55>
VStem: 112 256<488.45 631.55>
AnchorPoint: "above" -152 0 mark 0
LayerCount: 2
Fore
SplineSet
492.4362167 541.849995996 m 0
 456.088533698 452.86084106 360.994049521 384 267 384 c 0
 246.929164094 384 227.617898792 387.350914831 209.93561326 394.47705488 c 0
 158.563313824 415.180611541 134.212341688 461.59258862 134.212341688 512.169820943 c 0
 134.212341688 533.964375671 138.734046264 556.532371951 147.5637833 578.150004004 c 0
 183.911466302 667.13915894 279.005950479 736 373 736 c 0
 393.070835906 736 412.382101208 732.649085169 430.06438674 725.52294512 c 0
 481.436686176 704.819388459 505.787658312 658.40741138 505.787658312 607.830179057 c 0
 505.787658312 586.035624329 501.265953736 563.467628049 492.4362167 541.849995996 c 0
403.5637833 578.150004004 m 0
 409.079589955 591.654220299 411.259128133 602.071584061 411.259128133 610.145299181 c 0
 411.259128133 626.410249831 402.413612835 633.163653436 394.17994609 636.481904475 c 0
 389.349388082 638.428668246 382.4356576 640 373 640 c 0
 324.994049521 640 258.088533698 594.86084106 236.4362167 541.849995996 c 0
 230.920410045 528.345779701 228.740871867 517.928415939 228.740871867 509.854700819 c 0
 228.740871867 493.589750169 237.586387165 486.836346564 245.82005391 483.518095525 c 0
 250.650611918 481.571331754 257.5643424 480 267 480 c 0
 315.005950479 480 381.911466302 525.13915894 403.5637833 578.150004004 c 0
EndSplineSet
EndChar

StartChar: uni00B2
Encoding: 178 178 165
Width: 528
VWidth: 516
Flags: HW
LayerCount: 2
Fore
SplineSet
307.696115698 849.626947147 m 0
 289.350196581 857.194638783 278.090409667 875.460290332 278.090409667 894.393946869 c 0
 278.090409667 900.403535903 279.224769213 906.480422643 281.626947147 912.303884302 c 0
 323.707229547 1014.31669012 425.43834217 1062 521 1062 c 0
 546.891854617 1062 571.133933729 1057.93602317 592.963940687 1049.02696426 c 0
 644.596515004 1027.95515942 671.160500472 982.225353997 671.160500472 931.523218751 c 0
 671.160500472 911.259787088 666.917562064 890.202148953 658.336226302 869.606943125 c 0
 633.141514331 808.609219405 586.820621386 775.232625602 502.747681432 734.715546106 c 0
 364.364062319 668.74196025 302.956989551 640.114475083 259.068561 576 c 1
 486 576 l 2
 512.144471708 576 534 554.146366075 534 528 c 0
 534 501.853633925 512.144471708 480 486 480 c 2
 180 480 l 2
 175.869190934 480 169.930309722 480.806878008 165.212711138 482.334519732 c 0
 144.968587466 488.889924443 132.092751789 508.226521121 132.092751789 528.428811077 c 0
 132.092751789 534.421533799 133.2257327 540.490431302 135.635451528 546.324487412 c 0
 199.211235713 700.244807018 292.935653402 741.040462361 461.252318568 821.284453894 c 0
 543.179378614 860.767374398 556.858485669 875.390780595 569.663773698 906.393056875 c 0
 574.81345622 918.752294928 577.062647609 928.070740455 577.062647609 935.281061134 c 0
 577.062647609 949.166610164 568.721162786 955.233842121 556.689835697 960.143955161 c 0
 548.658706271 963.421544825 536.772145383 966 521 966 c 0
 454.56165783 966 394.292770453 933.683309881 370.373052853 875.696115698 c 0
 362.804911582 857.349106556 344.538912857 846.090479018 325.60596908 846.090479018 c 0
 319.596280986 846.090479018 313.519394693 847.224844562 307.696115698 849.626947147 c 0
EndSplineSet
EndChar

StartChar: uni00B3
Encoding: 179 179 166
Width: 528
VWidth: 516
Flags: HW
LayerCount: 2
Fore
SplineSet
207.28102941 654.658088247 m 0
 209.147829612 654.882104272 211.006072296 654.99125901 212.848492164 654.99125901 c 0
 236.625299168 654.99125901 257.766905949 636.812156411 260.658088247 612.71897059 c 0
 263.356098053 590.235555546 277.838242352 570 326 570 c 0
 396.653415475 570 485.059521108 627.889664802 510.582275555 690.195212423 c 0
 517.528073039 707.151129811 520.271176082 721.712314334 520.285436874 733.229604095 c 0
 520.285436874 758.567063779 512.503997727 777 459 777 c 0
 445.77000039 777 413.47294731 769.561206541 392.178932769 762.463201694 c 0
 387.295445479 760.835372597 382.301788245 760.063838328 377.367550543 760.063838328 c 0
 369.947243067 760.063838328 362.661315052 761.808691508 356.086538806 765.010127957 c 0
 345.138442327 770.331051689 336.149221949 779.693495223 331.807161051 791.825720797 c 0
 331.74794499 791.99117744 331.689723841 792.156784343 331.632494285 792.322534653 c 0
 331.575193067 792.488214009 331.518759988 792.654392669 331.463201694 792.821067231 c 0
 329.83531732 797.704720351 329.063777952 802.698418825 329.063777952 807.632620196 c 0
 329.063777952 815.053049123 330.808725477 822.338916774 334.010176769 828.913569705 c 0
 339.330891272 839.861358394 348.692989488 848.850596995 360.825720797 853.192838949 c 0
 442.507653253 882.42637267 499.935264957 924.256221569 538.085000017 960 c 1
 364 960 l 2
 337.855528292 960 316 981.853633925 316 1008 c 0
 316 1034.14636608 337.855528292 1056 364 1056 c 2
 640 1056 l 2
 646.065986872 1056 653.703260848 1054.50686016 659.918660121 1051.67203887 c 0
 677.516410611 1043.64576806 687.857431117 1025.82614646 687.857431117 1007.57619443 c 0
 687.857431117 999.792380008 685.976274776 991.930283293 681.974659439 984.716358425 c 0
 679.901313487 980.978627368 642.091986956 913.705538398 553.511201105 847.91708026 c 1
 592.716618581 823.377868094 616.285236217 782.53737045 616.285236217 733.06808512 c 0
 616.252562082 706.57076817 610.184479415 680.088336473 599.417724445 653.804787577 c 0
 556.940478892 550.110335198 437.346584525 474 326 474 c 0
 242.161757648 474 174.643901947 523.764444454 165.341911753 601.28102941 c 0
 165.117885184 603.147917484 165.008726131 605.006230189 165.008726131 606.848704625 c 0
 165.008726131 630.626866204 183.189541811 651.767109735 207.28102941 654.658088247 c 0
EndSplineSet
EndChar

StartChar: uni00B9
Encoding: 185 185 167
Width: 288
VWidth: 492
Flags: HW
LayerCount: 2
Fore
SplineSet
427.382798529 1052.34041856 m 0
 445.687798963 1044.75147047 456.908889233 1026.50913374 456.908889233 1007.60579103 c 0
 456.908889233 1001.5685114 455.764324334 995.463808358 453.340418562 989.617201471 c 2
 254.340418562 509.617201471 l 2
 246.751470465 491.312201037 228.509133737 480.091110767 209.605791029 480.091110767 c 0
 203.568511402 480.091110767 197.463808358 481.235675666 191.617201471 483.659581438 c 0
 173.311115234 491.248979691 162.091180265 509.491658346 162.091180265 528.394290542 c 0
 162.091180265 534.431670946 163.235751569 540.536374725 165.659581438 546.382798529 c 2
 364.659581438 1026.38279853 l 2
 372.248979691 1044.68888477 390.491658346 1055.90881973 409.394290542 1055.90881973 c 0
 415.431670946 1055.90881973 421.536374725 1054.76424843 427.382798529 1052.34041856 c 0
EndSplineSet
EndChar

StartChar: minute
Encoding: 8242 8242 168
Width: 256
VWidth: 0
Flags: HW
LayerCount: 2
Fore
SplineSet
300.836237106 729.663338808 m 0
 316.179690321 720.88511317 324.860149161 704.408986474 324.860149161 687.64271078 c 0
 324.860149161 679.611583858 322.868455897 671.513883519 318.663338808 664.163762894 c 2
 199.663338808 456.163762894 l 2
 190.88511317 440.820309679 174.408986474 432.139850839 157.64271078 432.139850839 c 0
 149.611583858 432.139850839 141.513883519 434.131544103 134.163762894 438.336661192 c 0
 118.819514433 447.115341802 110.139918831 463.5914975 110.139918831 480.357182241 c 0
 110.139918831 488.38853757 112.13166771 496.486332533 116.336661192 503.836237106 c 2
 235.336661192 711.836237106 l 2
 244.115341802 727.180485567 260.5914975 735.860081169 277.357182241 735.860081169 c 0
 285.38853757 735.860081169 293.486332533 733.86833229 300.836237106 729.663338808 c 0
EndSplineSet
EndChar

StartChar: second
Encoding: 8243 8243 169
Width: 416
VWidth: 0
Flags: HW
LayerCount: 2
Fore
SplineSet
460.836237106 729.663338808 m 0
 476.179690321 720.88511317 484.860149161 704.408986474 484.860149161 687.64271078 c 0
 484.860149161 679.611583858 482.868455897 671.513883519 478.663338808 664.163762894 c 2
 359.663338808 456.163762894 l 2
 350.88511317 440.820309679 334.408986474 432.139850839 317.64271078 432.139850839 c 0
 309.611583858 432.139850839 301.513883519 434.131544103 294.163762894 438.336661192 c 0
 278.819514433 447.115341802 270.139918831 463.5914975 270.139918831 480.357182241 c 0
 270.139918831 488.38853757 272.13166771 496.486332533 276.336661192 503.836237106 c 2
 395.336661192 711.836237106 l 2
 404.115341802 727.180485567 420.5914975 735.860081169 437.357182241 735.860081169 c 0
 445.38853757 735.860081169 453.486332533 733.86833229 460.836237106 729.663338808 c 0
300.836237106 729.663338808 m 0
 316.179690321 720.88511317 324.860149161 704.408986474 324.860149161 687.64271078 c 0
 324.860149161 679.611583858 322.868455897 671.513883519 318.663338808 664.163762894 c 2
 199.663338808 456.163762894 l 2
 190.88511317 440.820309679 174.408986474 432.139850839 157.64271078 432.139850839 c 0
 149.611583858 432.139850839 141.513883519 434.131544103 134.163762894 438.336661192 c 0
 118.819514433 447.115341802 110.139918831 463.5914975 110.139918831 480.357182241 c 0
 110.139918831 488.38853757 112.13166771 496.486332533 116.336661192 503.836237106 c 2
 235.336661192 711.836237106 l 2
 244.115341802 727.180485567 260.5914975 735.860081169 277.357182241 735.860081169 c 0
 285.38853757 735.860081169 293.486332533 733.86833229 300.836237106 729.663338808 c 0
EndSplineSet
EndChar

StartChar: uni2034
Encoding: 8244 8244 170
Width: 576
VWidth: 0
Flags: HW
LayerCount: 2
Fore
SplineSet
620.836237106 729.663338808 m 0
 636.179690321 720.88511317 644.860149161 704.408986474 644.860149161 687.64271078 c 0
 644.860149161 679.611583858 642.868455897 671.513883519 638.663338808 664.163762894 c 2
 519.663338808 456.163762894 l 2
 510.88511317 440.820309679 494.408986474 432.139850839 477.64271078 432.139850839 c 0
 469.611583858 432.139850839 461.513883519 434.131544103 454.163762894 438.336661192 c 0
 438.819514433 447.115341802 430.139918831 463.5914975 430.139918831 480.357182241 c 0
 430.139918831 488.38853757 432.13166771 496.486332533 436.336661192 503.836237106 c 2
 555.336661192 711.836237106 l 2
 564.115341802 727.180485567 580.5914975 735.860081169 597.357182241 735.860081169 c 0
 605.38853757 735.860081169 613.486332533 733.86833229 620.836237106 729.663338808 c 0
460.836237106 729.663338808 m 0
 476.179690321 720.88511317 484.860149161 704.408986474 484.860149161 687.64271078 c 0
 484.860149161 679.611583858 482.868455897 671.513883519 478.663338808 664.163762894 c 2
 359.663338808 456.163762894 l 2
 350.88511317 440.820309679 334.408986474 432.139850839 317.64271078 432.139850839 c 0
 309.611583858 432.139850839 301.513883519 434.131544103 294.163762894 438.336661192 c 0
 278.819514433 447.115341802 270.139918831 463.5914975 270.139918831 480.357182241 c 0
 270.139918831 488.38853757 272.13166771 496.486332533 276.336661192 503.836237106 c 2
 395.336661192 711.836237106 l 2
 404.115341802 727.180485567 420.5914975 735.860081169 437.357182241 735.860081169 c 0
 445.38853757 735.860081169 453.486332533 733.86833229 460.836237106 729.663338808 c 0
300.836237106 729.663338808 m 0
 316.179690321 720.88511317 324.860149161 704.408986474 324.860149161 687.64271078 c 0
 324.860149161 679.611583858 322.868455897 671.513883519 318.663338808 664.163762894 c 2
 199.663338808 456.163762894 l 2
 190.88511317 440.820309679 174.408986474 432.139850839 157.64271078 432.139850839 c 0
 149.611583858 432.139850839 141.513883519 434.131544103 134.163762894 438.336661192 c 0
 118.819514433 447.115341802 110.139918831 463.5914975 110.139918831 480.357182241 c 0
 110.139918831 488.38853757 112.13166771 496.486332533 116.336661192 503.836237106 c 2
 235.336661192 711.836237106 l 2
 244.115341802 727.180485567 260.5914975 735.860081169 277.357182241 735.860081169 c 0
 285.38853757 735.860081169 293.486332533 733.86833229 300.836237106 729.663338808 c 0
EndSplineSet
EndChar

StartChar: uni00AD
Encoding: 173 173 171
Width: 416
VWidth: 32
Flags: HW
LayerCount: 2
Fore
SplineSet
-11 264 m 0
 -11 290.144471708 10.8536339246 312 37 312 c 2
 293 312 l 2
 319.144471708 312 341 290.146366075 341 264 c 0
 341 237.853633925 319.144471708 216 293 216 c 2
 37 216 l 2
 10.8536339246 216 -11 237.855528292 -11 264 c 0
EndSplineSet
EndChar

StartChar: endash
Encoding: 8211 8211 173
Width: 512
VWidth: 0
Flags: HW
LayerCount: 2
Fore
SplineSet
-43 264 m 0
 -43 290.144471708 -21.1463660754 312 5 312 c 2
 421 312 l 2
 447.144471708 312 469 290.146366075 469 264 c 0
 469 237.853633925 447.144471708 216 421 216 c 2
 5 216 l 2
 -21.1463660754 216 -43 237.855528292 -43 264 c 0
EndSplineSet
EndChar

StartChar: emdash
Encoding: 8212 8212 174
Width: 1024
VWidth: 0
Flags: HW
LayerCount: 2
Fore
SplineSet
-43 264 m 0
 -43 290.144471708 -21.1463660754 312 5 312 c 2
 933 312 l 2
 959.144471708 312 981 290.146366075 981 264 c 0
 981 237.853633925 959.144471708 216 933 216 c 2
 5 216 l 2
 -21.1463660754 216 -43 237.855528292 -43 264 c 0
EndSplineSet
EndChar

StartChar: figuredash
Encoding: 8210 8210 190
Width: 672
VWidth: 0
Flags: HW
LayerCount: 2
Fore
SplineSet
0 368 m 0
 0 394.144471708 21.8536339246 416 48 416 c 2
 624 416 l 2
 650.144471708 416 672 394.146366075 672 368 c 0
 672 341.853633925 650.144471708 320 624 320 c 2
 48 320 l 2
 21.8536339246 320 0 341.855528292 0 368 c 0
EndSplineSet
EndChar

StartChar: uni2057
Encoding: 8279 8279 191
Width: 736
VWidth: 0
Flags: HW
LayerCount: 2
Fore
SplineSet
780.836237106 729.663338808 m 0
 796.179690321 720.88511317 804.860149161 704.408986474 804.860149161 687.64271078 c 0
 804.860149161 679.611583858 802.868455897 671.513883519 798.663338808 664.163762894 c 2
 679.663338808 456.163762894 l 2
 670.88511317 440.820309679 654.408986474 432.139850839 637.64271078 432.139850839 c 0
 629.611583858 432.139850839 621.513883519 434.131544103 614.163762894 438.336661192 c 0
 598.819514433 447.115341802 590.139918831 463.5914975 590.139918831 480.357182241 c 0
 590.139918831 488.38853757 592.13166771 496.486332533 596.336661192 503.836237106 c 2
 715.336661192 711.836237106 l 2
 724.115341802 727.180485567 740.5914975 735.860081169 757.357182241 735.860081169 c 0
 765.38853757 735.860081169 773.486332533 733.86833229 780.836237106 729.663338808 c 0
620.836237106 729.663338808 m 0
 636.179690321 720.88511317 644.860149161 704.408986474 644.860149161 687.64271078 c 0
 644.860149161 679.611583858 642.868455897 671.513883519 638.663338808 664.163762894 c 2
 519.663338808 456.163762894 l 2
 510.88511317 440.820309679 494.408986474 432.139850839 477.64271078 432.139850839 c 0
 469.611583858 432.139850839 461.513883519 434.131544103 454.163762894 438.336661192 c 0
 438.819514433 447.115341802 430.139918831 463.5914975 430.139918831 480.357182241 c 0
 430.139918831 488.38853757 432.13166771 496.486332533 436.336661192 503.836237106 c 2
 555.336661192 711.836237106 l 2
 564.115341802 727.180485567 580.5914975 735.860081169 597.357182241 735.860081169 c 0
 605.38853757 735.860081169 613.486332533 733.86833229 620.836237106 729.663338808 c 0
460.836237106 729.663338808 m 0
 476.179690321 720.88511317 484.860149161 704.408986474 484.860149161 687.64271078 c 0
 484.860149161 679.611583858 482.868455897 671.513883519 478.663338808 664.163762894 c 2
 359.663338808 456.163762894 l 2
 350.88511317 440.820309679 334.408986474 432.139850839 317.64271078 432.139850839 c 0
 309.611583858 432.139850839 301.513883519 434.131544103 294.163762894 438.336661192 c 0
 278.819514433 447.115341802 270.139918831 463.5914975 270.139918831 480.357182241 c 0
 270.139918831 488.38853757 272.13166771 496.486332533 276.336661192 503.836237106 c 2
 395.336661192 711.836237106 l 2
 404.115341802 727.180485567 420.5914975 735.860081169 437.357182241 735.860081169 c 0
 445.38853757 735.860081169 453.486332533 733.86833229 460.836237106 729.663338808 c 0
300.836237106 729.663338808 m 0
 316.179690321 720.88511317 324.860149161 704.408986474 324.860149161 687.64271078 c 0
 324.860149161 679.611583858 322.868455897 671.513883519 318.663338808 664.163762894 c 2
 199.663338808 456.163762894 l 2
 190.88511317 440.820309679 174.408986474 432.139850839 157.64271078 432.139850839 c 0
 149.611583858 432.139850839 141.513883519 434.131544103 134.163762894 438.336661192 c 0
 118.819514433 447.115341802 110.139918831 463.5914975 110.139918831 480.357182241 c 0
 110.139918831 488.38853757 112.13166771 496.486332533 116.336661192 503.836237106 c 2
 235.336661192 711.836237106 l 2
 244.115341802 727.180485567 260.5914975 735.860081169 277.357182241 735.860081169 c 0
 285.38853757 735.860081169 293.486332533 733.86833229 300.836237106 729.663338808 c 0
EndSplineSet
EndChar

StartChar: copyright
Encoding: 169 169 192
Width: 736
VWidth: 0
Flags: HW
HStem: 48 640<250.702 485.298>
VStem: 48 640<250.702 485.298>
LayerCount: 2
Fore
SplineSet
732.374157479 349.698793808 m 0
 652.014316847 154.853700771 435.087395756 0 235 0 c 0
 192.27819776 0 152.832390582 7.27802050242 117.942297075 21.6407813205 c 0
 23.358122024 60.5770450806 -25.7693708367 145.955839991 -25.7693708367 246.366409387 c 0
 -25.7693708367 290.96343222 -16.0781726188 338.525717427 3.62584252148 386.301206192 c 0
 83.9856831525 581.146299229 300.912604244 736 501 736 c 0
 543.72180224 736 583.167609418 728.721979498 618.057702925 714.359218679 c 0
 712.641877976 675.422954919 761.769370837 590.044160009 761.769370837 489.633590613 c 0
 761.769370837 445.03656778 752.078172619 397.474282573 732.374157479 349.698793808 c 0
643.625842521 386.301206192 m 0
 659.87047781 425.688883535 667.194197169 461.034086333 667.194197169 491.933997075 c 0
 667.194197169 558.365464769 633.343708754 604.250636263 581.513876109 625.586763934 c 0
 559.66693051 634.580218026 532.868871335 640 501 640 c 0
 347.087395756 640 158.014316847 508.853700771 92.3741574785 349.698793808 c 0
 76.1295221899 310.311116465 68.8058028311 274.965913667 68.8058028311 244.066002925 c 0
 68.8058028311 177.634535231 102.656291246 131.749363737 154.486123891 110.413236066 c 0
 176.33306949 101.419781974 203.131128665 96 235 96 c 0
 388.912604244 96 577.985683153 227.146299229 643.625842521 386.301206192 c 0
449.461538462 328.307692308 m 0
 467.725653666 320.697644306 478.90818872 302.478634754 478.90818872 283.605550749 c 0
 478.90818872 277.540613 477.753387544 271.408130106 475.307692308 265.538461538 c 0
 462.565834868 234.958003684 396.823394601 156 300 156 c 0
 283.477256554 156 267.192721341 158.912124473 252.16977064 165.090548936 c 0
 199.628067342 186.699149767 178.694423196 234.684943142 178.694423196 287.903546872 c 0
 178.694423196 320.421934355 186.510267307 354.894058594 199.706721743 386.496094217 c 0
 242.393405874 488.719469372 337.727226377 580 436 580 c 0
 546.122834762 580 548.919554486 476.073856004 548.919554486 469.371436098 c 0
 548.919554486 442.99734028 524.286395471 423.999689179 501.011295667 423.999689179 c 0
 500.289193413 423.999689179 499.564189408 424.01595275 498.836683202 424.048774151 c 0
 473.306589438 425.200562864 452.680925717 446.481720692 453.011958721 473.264158542 c 0
 452.790251964 478.049196467 457.859115581 484 436 484 c 0
 398.272773623 484 321.606594126 429.280530628 288.293278257 349.503905783 c 0
 277.763164516 324.287054457 274.199686939 305.06663866 274.199686939 290.705924688 c 0
 274.199686939 265.613005776 285.079572623 255.3575593 288.683867958 253.875236225 c 0
 291.060769783 252.897698013 294.553512677 252 300 252 c 0
 333.205784001 252 378.00697479 291.46586411 388.199753711 305.75604006 c 0
 396.746391416 321.665525981 413.660692761 331.910689048 431.519242785 331.910689048 c 0
 437.486901611 331.910689048 443.559999605 330.766666831 449.461538462 328.307692308 c 0
EndSplineSet
EndChar

StartChar: registered
Encoding: 174 174 193
Width: 736
VWidth: 0
Flags: HW
HStem: 48 640<250.702 485.298>
VStem: 48 640<250.702 485.298>
LayerCount: 2
Fore
SplineSet
339.023405127 424 m 1
 399 424 l 2
 434.059159082 424 460.489442913 435.882282161 474.599048718 470.236104991 c 0
 475.996470334 473.63852284 476.818943609 476.070798605 477.55272107 478.735553429 c 1
 473.973419252 479.410348926 468.415189665 480 462 480 c 2
 362.123405127 480 l 1
 339.023405127 424 l 1
299.423405127 328 m 1
 242.373052853 189.696115698 l 2
 234.804911582 171.349106556 216.538912857 160.090479018 197.60596908 160.090479018 c 0
 191.596280986 160.090479018 185.519394693 161.224844562 179.696115698 163.626947147 c 0
 161.350196581 171.194638783 150.090409667 189.460290332 150.090409667 208.393946869 c 0
 150.090409667 214.403535903 151.224769213 220.480422643 153.626947147 226.303884302 c 2
 230.309028072 412.199838059 l 1
 285.626947147 546.303884302 l 2
 293.182140884 564.619505481 312.319260871 576 330 576 c 2
 462 576 l 2
 480.934527895 576 500.071084033 573.90678014 519.023322151 566.190383259 c 0
 533.363983355 560.351588247 548.296874668 550.56701382 559.178652317 535.192687271 c 0
 570.13350461 519.715117162 574.504094173 502.499638962 574.504094173 485.145372077 c 0
 574.504094173 467.610011907 570.041813727 449.932951396 563.400951282 433.763895009 c 0
 541.475520074 380.380236416 500.794065973 350.408190493 457.706053091 336.889564164 c 1
 459.992348769 208.857006228 l 2
 460.459173739 182.714807901 438.99731049 160.474442379 412.857006228 160.007651231 c 0
 412.577585393 160.002661574 412.298609954 160.000177276 412.020101746 160.000177276 c 0
 386.243683611 160.000177276 364.469486182 181.280236526 364.007651231 207.142993772 c 2
 361.849490406 328 l 1
 299.423405127 328 l 1
732.374157479 349.698793808 m 0
 652.014316847 154.853700771 435.087395756 0 235 0 c 0
 192.27819776 0 152.832390582 7.27802050242 117.942297075 21.6407813205 c 0
 23.358122024 60.5770450806 -25.7693708367 145.955839991 -25.7693708367 246.366409387 c 0
 -25.7693708367 290.96343222 -16.0781726188 338.525717427 3.62584252148 386.301206192 c 0
 83.9856831525 581.146299229 300.912604244 736 501 736 c 0
 543.72180224 736 583.167609418 728.721979498 618.057702925 714.359218679 c 0
 712.641877976 675.422954919 761.769370837 590.044160009 761.769370837 489.633590613 c 0
 761.769370837 445.03656778 752.078172619 397.474282573 732.374157479 349.698793808 c 0
643.625842521 386.301206192 m 0
 659.87047781 425.688883535 667.194197169 461.034086333 667.194197169 491.933997075 c 0
 667.194197169 558.365464769 633.343708754 604.250636263 581.513876109 625.586763934 c 0
 559.66693051 634.580218026 532.868871335 640 501 640 c 0
 347.087395756 640 158.014316847 508.853700771 92.3741574785 349.698793808 c 0
 76.1295221899 310.311116465 68.8058028311 274.965913667 68.8058028311 244.066002925 c 0
 68.8058028311 177.634535231 102.656291246 131.749363737 154.486123891 110.413236066 c 0
 176.33306949 101.419781974 203.131128665 96 235 96 c 0
 388.912604244 96 577.985683153 227.146299229 643.625842521 386.301206192 c 0
EndSplineSet
EndChar

StartChar: brokenbar
Encoding: 166 166 194
Width: 288
VWidth: 0
Flags: HW
LayerCount: 2
Fore
SplineSet
122.378649492 316.342138456 m 0
 140.685802712 308.754305213 151.908926119 290.510741077 151.908926119 271.60580428 c 0
 151.908926119 265.569981243 150.764899116 259.466741308 148.342138456 253.621350508 c 2
 22.3421384561 -50.3786494917 l 2
 14.7543052134 -68.6858027122 -3.48925892254 -79.9089261189 -22.3941957204 -79.9089261189 c 0
 -28.4300187566 -79.9089261189 -34.5332586925 -78.7648991163 -40.3786494917 -76.3421384561 c 0
 -58.6868887368 -68.7538550848 -69.9088566283 -50.5099487451 -69.9088566283 -31.6057225779 c 0
 -69.9088566283 -25.5697988549 -68.7648232423 -19.4665582464 -66.3421384561 -13.6213505083 c 2
 59.6578615439 290.378649492 l 2
 67.2461449152 308.686888737 85.4900512549 319.908856628 104.394277422 319.908856628 c 0
 110.430201145 319.908856628 116.533441754 318.764823242 122.378649492 316.342138456 c 0
328.378649492 812.342138456 m 0
 346.685802712 804.754305213 357.908926119 786.510741077 357.908926119 767.60580428 c 0
 357.908926119 761.569981243 356.764899116 755.466741308 354.342138456 749.621350508 c 2
 228.342138456 445.621350508 l 2
 220.754305213 427.314197288 202.510741077 416.091073881 183.60580428 416.091073881 c 0
 177.569981243 416.091073881 171.466741308 417.235100884 165.621350508 419.657861544 c 0
 147.313111263 427.246144915 136.091143372 445.490051255 136.091143372 464.394277422 c 0
 136.091143372 470.430201145 137.235176758 476.533441754 139.657861544 482.378649492 c 2
 265.657861544 786.378649492 l 2
 273.246144915 804.686888737 291.490051255 815.908856628 310.394277422 815.908856628 c 0
 316.430201145 815.908856628 322.533441754 814.764823242 328.378649492 812.342138456 c 0
EndSplineSet
EndChar

StartChar: plusminus
Encoding: 177 177 195
Width: 640
VWidth: 0
Flags: HW
LayerCount: 2
Fore
SplineSet
455 56 m 0
 455 29.8555282921 433.146366075 8 407 8 c 2
 -25 8 l 2
 -51.1444717079 8 -73 29.8536339246 -73 56 c 0
 -73 82.1463660754 -51.1444717079 104 -25 104 c 2
 407 104 l 2
 433.146366075 104 455 82.1444717079 455 56 c 0
624 464 m 0
 624 437.855528292 602.146366075 416 576 416 c 2
 391.5684773 416 l 1
 314.344049151 229.625961116 l 2
 306.757455144 211.316415802 288.512527261 200.091032895 269.605819073 200.091032895 c 0
 263.571614577 200.091032895 257.470000435 201.234462335 251.625961116 203.655950849 c 0
 233.315329531 211.242994955 222.091102377 229.488265348 222.091102377 248.394262774 c 0
 222.091102377 254.428567857 223.234538177 260.530182602 225.655950849 266.374038884 c 2
 287.653744923 416 l 1
 144 416 l 2
 117.855528292 416 96 437.853633925 96 464 c 0
 96 490.146366075 117.855528292 512 144 512 c 2
 327.4315227 512 l 1
 404.655950849 698.374038884 l 2
 412.242994955 716.684670469 430.488265348 727.908897623 449.394262774 727.908897623 c 0
 455.428567857 727.908897623 461.530182602 726.765461823 467.374038884 724.344049151 c 0
 485.683584198 716.757455144 496.908967105 698.512527261 496.908967105 679.605819073 c 0
 496.908967105 673.571614577 495.765537665 667.470000435 493.344049151 661.625961116 c 2
 431.346255077 512 l 1
 576 512 l 2
 602.146366075 512 624 490.144471708 624 464 c 0
EndSplineSet
EndChar

StartChar: divide
Encoding: 247 247 196
Width: 640
VWidth: 0
Flags: HW
HStem: 128 48<297.906 342.094> 560 48<297.906 342.094>
VStem: 296 48<129.906 174.094 561.906 606.094>
LayerCount: 2
Fore
SplineSet
301.975552075 140.760695967 m 0
 287.323223969 107.269660296 254.636911878 80 213 80 c 0
 176.312238087 80 154.41687886 110.370790027 154.41687886 140.374249004 c 0
 154.41687886 147.349397251 155.600237288 154.304692694 158.056199477 160.853925196 c 0
 158.34335048 161.619661205 158.781626511 162.68428366 159.024447925 163.239304033 c 0
 173.676776031 196.730339704 206.363088122 224 248 224 c 0
 284.687761913 224 306.58312114 193.629209973 306.58312114 163.625750996 c 0
 306.58312114 156.650602749 305.399762712 149.695307306 302.943800523 143.146074804 c 0
 302.65664952 142.380338795 302.218373489 141.31571634 301.975552075 140.760695967 c 0
480.975552075 572.760695967 m 0
 466.323223969 539.269660296 433.636911878 512 392 512 c 0
 355.312238087 512 333.41687886 542.370790027 333.41687886 572.374249004 c 0
 333.41687886 579.349397251 334.600237288 586.304692694 337.056199477 592.853925196 c 0
 337.34335048 593.619661205 337.781626511 594.68428366 338.024447925 595.239304033 c 0
 352.676776031 628.730339704 385.363088122 656 427 656 c 0
 463.687761913 656 485.58312114 625.629209973 485.58312114 595.625750996 c 0
 485.58312114 588.650602749 484.399762712 581.695307306 481.943800523 575.146074804 c 0
 481.65664952 574.380338795 481.218373489 573.31571634 480.975552075 572.760695967 c 0
56 368 m 0
 56 394.144471708 77.8536339246 416 104 416 c 2
 536 416 l 2
 562.144471708 416 584 394.146366075 584 368 c 0
 584 341.853633925 562.144471708 320 536 320 c 2
 104 320 l 2
 77.8536339246 320 56 341.855528292 56 368 c 0
EndSplineSet
EndChar

